SplineFontDB: 3.0
FontName: ARFonts
FullName: ARFonts
FamilyName: ARFonts
Weight: Medium
Copyright: Created by Satoshi MITANI,,, with FontForge 2.0 (http://fontforge.sf.net)
UComments: "2014-2-9: Created." 
Version: 001.000
ItalicAngle: 0
UnderlinePosition: -51.2
UnderlineWidth: 25.6
Ascent: 410
Descent: 102
LayerCount: 2
Layer: 0 0 "+gMyXYgAA"  1
Layer: 1 0 "+Uk2XYgAA"  0
NeedsXUIDChange: 1
XUID: [1021 921 582314744 1937678]
OS2Version: 0
OS2_WeightWidthSlopeOnly: 0
OS2_UseTypoMetrics: 1
CreationTime: 1391943921
ModificationTime: 1391943963
OS2TypoAscent: 0
OS2TypoAOffset: 1
OS2TypoDescent: 0
OS2TypoDOffset: 1
OS2TypoLinegap: 0
OS2WinAscent: 0
OS2WinAOffset: 1
OS2WinDescent: 0
OS2WinDOffset: 1
HheadAscent: 0
HheadAOffset: 1
HheadDescent: 0
HheadDOffset: 1
OS2Vendor: 'PfEd'
MarkAttachClasses: 1
DEI: 91125
Encoding: UnicodeBmp
UnicodeInterp: none
NameList: Adobe Glyph List
DisplaySize: -24
AntiAlias: 1
FitToEm: 1
WinInfo: 12320 35 11
BeginPrivate: 0
EndPrivate
BeginChars: 65536 169

StartChar: uni3050
Encoding: 12368 12368 0
Width: 512
VWidth: 0
Flags: H
LayerCount: 2
Back
Fore
SplineSet
0 154 m 1
 0 410 l 1
 256 410 l 1
 512 410 l 1
 512 154 l 1
 512 -102 l 1
 256 -102 l 1
 0 -102 l 1
 0 154 l 1
436.906 307.6 m 1
 436.906 333.2 l 1
 256.854 333.2 l 1
 76.7998 333.2 l 1
 76.7998 307.6 l 1
 76.7998 282 l 1
 102.4 282 l 1
 128 282 l 1
 128 256.4 l 1
 128 230.8 l 1
 102.4 230.8 l 1
 76.7998 230.8 l 1
 76.7998 205.2 l 1
 76.7998 179.6 l 1
 102.4 179.6 l 1
 128 179.6 l 1
 128 154 l 1
 128 128.4 l 1
 102.4 128.4 l 1
 76.7998 128.4 l 1
 76.7998 102.8 l 1
 76.7998 77.2002 l 1
 102.4 77.2002 l 1
 128 77.2002 l 1
 128 51.5996 l 1
 128 26 l 1
 102.4 26 l 1
 76.7998 26 l 1
 76.7998 -0.453125 l 1
 76.7998 -26.9062 l 1
 102.4 -26.9062 l 1
 128 -26.9062 l 1
 128 -0.453125 l 1
 128 26 l 1
 153.6 26 l 1
 179.2 26 l 1
 179.2 -0.453125 l 1
 179.2 -26.9062 l 1
 204.8 -26.9062 l 1
 230.4 -26.9062 l 1
 230.4 -0.453125 l 1
 230.4 26 l 1
 204.8 26 l 1
 179.2 26 l 1
 179.2 51.5996 l 1
 179.2 77.2002 l 1
 281.6 77.2002 l 1
 384 77.2002 l 1
 384 25.1465 l 1
 384 -26.9062 l 1
 410.453 -26.9062 l 1
 436.906 -26.9062 l 1
 436.906 25.1465 l 1
 436.906 77.2002 l 1
 410.453 77.2002 l 1
 384 77.2002 l 1
 384 179.6 l 1
 384 282 l 1
 410.453 282 l 1
 436.906 282 l 1
 436.906 307.6 l 1
332.8 -0.453125 m 1
 332.8 26 l 1
 307.2 26 l 1
 281.6 26 l 1
 281.6 -0.453125 l 1
 281.6 -26.9062 l 1
 307.2 -26.9062 l 1
 332.8 -26.9062 l 1
 332.8 -0.453125 l 1
EndSplineSet
EndChar

StartChar: uni306F
Encoding: 12399 12399 1
Width: 512
VWidth: 0
Flags: H
LayerCount: 2
Back
Fore
SplineSet
128 102.8 m 1
 128 128.4 l 1
 153.6 128.4 l 1
 179.2 128.4 l 1
 179.2 102.8 l 1
 179.2 77.2002 l 1
 153.6 77.2002 l 1
 128 77.2002 l 1
 128 102.8 l 1
0 154 m 1
 0 410 l 1
 256 410 l 1
 512 410 l 1
 512 154 l 1
 512 -102 l 1
 256 -102 l 1
 0 -102 l 1
 0 154 l 1
436.906 307.6 m 1
 436.906 333.2 l 1
 256.854 333.2 l 1
 76.7998 333.2 l 1
 76.7998 307.6 l 1
 76.7998 282 l 1
 102.4 282 l 1
 128 282 l 1
 128 256.4 l 1
 128 230.8 l 1
 102.4 230.8 l 1
 76.7998 230.8 l 1
 76.7998 205.2 l 1
 76.7998 179.6 l 1
 102.4 179.6 l 1
 128 179.6 l 1
 128 154 l 1
 128 128.4 l 1
 102.4 128.4 l 1
 76.7998 128.4 l 1
 76.7998 102.8 l 1
 76.7998 77.2002 l 1
 102.4 77.2002 l 1
 128 77.2002 l 1
 128 51.5996 l 1
 128 26 l 1
 102.4 26 l 1
 76.7998 26 l 1
 76.7998 -0.453125 l 1
 76.7998 -26.9062 l 1
 102.4 -26.9062 l 1
 128 -26.9062 l 1
 128 -0.453125 l 1
 128 26 l 1
 153.6 26 l 1
 179.2 26 l 1
 179.2 -0.453125 l 1
 179.2 -26.9062 l 1
 204.8 -26.9062 l 1
 230.4 -26.9062 l 1
 230.4 -0.453125 l 1
 230.4 26 l 1
 204.8 26 l 1
 179.2 26 l 1
 179.2 51.5996 l 1
 179.2 77.2002 l 1
 256 77.2002 l 1
 332.8 77.2002 l 1
 332.8 51.5996 l 1
 332.8 26 l 1
 307.2 26 l 1
 281.6 26 l 1
 281.6 -0.453125 l 1
 281.6 -26.9062 l 1
 307.2 -26.9062 l 1
 332.8 -26.9062 l 1
 332.8 -0.453125 l 1
 332.8 26 l 1
 358.4 26 l 1
 384 26 l 1
 384 -0.453125 l 1
 384 -26.9062 l 1
 410.453 -26.9062 l 1
 436.906 -26.9062 l 1
 436.906 25.1465 l 1
 436.906 77.2002 l 1
 410.453 77.2002 l 1
 384 77.2002 l 1
 384 179.6 l 1
 384 282 l 1
 410.453 282 l 1
 436.906 282 l 1
 436.906 307.6 l 1
EndSplineSet
EndChar

StartChar: uni30F1
Encoding: 12529 12529 2
Width: 512
VWidth: 0
Flags: H
LayerCount: 2
Back
Fore
SplineSet
128 102.8 m 1
 128 128.4 l 1
 153.6 128.4 l 1
 179.2 128.4 l 1
 179.2 102.8 l 1
 179.2 77.2002 l 1
 153.6 77.2002 l 1
 128 77.2002 l 1
 128 102.8 l 1
128 205.2 m 1
 128 230.8 l 1
 153.6 230.8 l 1
 179.2 230.8 l 1
 179.2 205.2 l 1
 179.2 179.6 l 1
 153.6 179.6 l 1
 128 179.6 l 1
 128 205.2 l 1
0 154 m 1
 0 410 l 1
 256 410 l 1
 512 410 l 1
 512 154 l 1
 512 -102 l 1
 256 -102 l 1
 0 -102 l 1
 0 154 l 1
436.906 230.8 m 1
 436.906 333.2 l 1
 256.854 333.2 l 1
 76.7998 333.2 l 1
 76.7998 307.6 l 1
 76.7998 282 l 1
 102.4 282 l 1
 128 282 l 1
 128 256.4 l 1
 128 230.8 l 1
 102.4 230.8 l 1
 76.7998 230.8 l 1
 76.7998 205.2 l 1
 76.7998 179.6 l 1
 102.4 179.6 l 1
 128 179.6 l 1
 128 154 l 1
 128 128.4 l 1
 102.4 128.4 l 1
 76.7998 128.4 l 1
 76.7998 102.8 l 1
 76.7998 77.2002 l 1
 102.4 77.2002 l 1
 128 77.2002 l 1
 128 51.5996 l 1
 128 26 l 1
 102.4 26 l 1
 76.7998 26 l 1
 76.7998 -0.453125 l 1
 76.7998 -26.9062 l 1
 102.4 -26.9062 l 1
 128 -26.9062 l 1
 128 -0.453125 l 1
 128 26 l 1
 153.6 26 l 1
 179.2 26 l 1
 179.2 -0.453125 l 1
 179.2 -26.9062 l 1
 204.8 -26.9062 l 1
 230.4 -26.9062 l 1
 230.4 -0.453125 l 1
 230.4 26 l 1
 256 26 l 1
 281.6 26 l 1
 281.6 -0.453125 l 1
 281.6 -26.9062 l 1
 307.2 -26.9062 l 1
 332.8 -26.9062 l 1
 332.8 -0.453125 l 1
 332.8 26 l 1
 307.2 26 l 1
 281.6 26 l 1
 281.6 51.5996 l 1
 281.6 77.2002 l 1
 332.8 77.2002 l 1
 384 77.2002 l 1
 384 25.1465 l 1
 384 -26.9062 l 1
 410.453 -26.9062 l 1
 436.906 -26.9062 l 1
 436.906 25.1465 l 1
 436.906 77.2002 l 1
 410.453 77.2002 l 1
 384 77.2002 l 1
 384 102.8 l 1
 384 128.4 l 1
 410.453 128.4 l 1
 436.906 128.4 l 1
 436.906 230.8 l 1
EndSplineSet
EndChar

StartChar: uni30D3
Encoding: 12499 12499 3
Width: 512
VWidth: 0
Flags: H
LayerCount: 2
Back
Fore
SplineSet
128 205.2 m 1
 128 230.8 l 1
 153.6 230.8 l 1
 179.2 230.8 l 1
 179.2 205.2 l 1
 179.2 179.6 l 1
 153.6 179.6 l 1
 128 179.6 l 1
 128 205.2 l 1
0 154 m 1
 0 410 l 1
 256 410 l 1
 512 410 l 1
 512 154 l 1
 512 -102 l 1
 256 -102 l 1
 0 -102 l 1
 0 154 l 1
436.906 307.6 m 1
 436.906 333.2 l 1
 256.854 333.2 l 1
 76.7998 333.2 l 1
 76.7998 307.6 l 1
 76.7998 282 l 1
 102.4 282 l 1
 128 282 l 1
 128 256.4 l 1
 128 230.8 l 1
 102.4 230.8 l 1
 76.7998 230.8 l 1
 76.7998 205.2 l 1
 76.7998 179.6 l 1
 102.4 179.6 l 1
 128 179.6 l 1
 128 154 l 1
 128 128.4 l 1
 102.4 128.4 l 1
 76.7998 128.4 l 1
 76.7998 102.8 l 1
 76.7998 77.2002 l 1
 102.4 77.2002 l 1
 128 77.2002 l 1
 128 51.5996 l 1
 128 26 l 1
 102.4 26 l 1
 76.7998 26 l 1
 76.7998 -0.453125 l 1
 76.7998 -26.9062 l 1
 102.4 -26.9062 l 1
 128 -26.9062 l 1
 128 -0.453125 l 1
 128 26 l 1
 153.6 26 l 1
 179.2 26 l 1
 179.2 -0.453125 l 1
 179.2 -26.9062 l 1
 204.8 -26.9062 l 1
 230.4 -26.9062 l 1
 230.4 25.1465 l 1
 230.4 77.2002 l 1
 256 77.2002 l 1
 281.6 77.2002 l 1
 281.6 25.1465 l 1
 281.6 -26.9062 l 1
 307.2 -26.9062 l 1
 332.8 -26.9062 l 1
 332.8 25.1465 l 1
 332.8 77.2002 l 1
 358.4 77.2002 l 1
 384 77.2002 l 1
 384 25.1465 l 1
 384 -26.9062 l 1
 410.453 -26.9062 l 1
 436.906 -26.9062 l 1
 436.906 25.1465 l 1
 436.906 77.2002 l 1
 410.453 77.2002 l 1
 384 77.2002 l 1
 384 102.8 l 1
 384 128.4 l 1
 410.453 128.4 l 1
 436.906 128.4 l 1
 436.906 179.6 l 1
 436.906 230.8 l 1
 410.453 230.8 l 1
 384 230.8 l 1
 384 256.4 l 1
 384 282 l 1
 410.453 282 l 1
 436.906 282 l 1
 436.906 307.6 l 1
EndSplineSet
EndChar

StartChar: uni30B0
Encoding: 12464 12464 4
Width: 512
VWidth: 0
Flags: H
LayerCount: 2
Back
Fore
SplineSet
281.6 51.5996 m 1
 281.6 77.2002 l 1
 307.2 77.2002 l 1
 332.8 77.2002 l 1
 332.8 51.5996 l 1
 332.8 26 l 1
 307.2 26 l 1
 281.6 26 l 1
 281.6 51.5996 l 1
0 154 m 1
 0 410 l 1
 256 410 l 1
 512 410 l 1
 512 154 l 1
 512 -102 l 1
 256 -102 l 1
 0 -102 l 1
 0 154 l 1
436.906 307.6 m 1
 436.906 333.2 l 1
 256.854 333.2 l 1
 76.7998 333.2 l 1
 76.7998 307.6 l 1
 76.7998 282 l 1
 102.4 282 l 1
 128 282 l 1
 128 256.4 l 1
 128 230.8 l 1
 102.4 230.8 l 1
 76.7998 230.8 l 1
 76.7998 205.2 l 1
 76.7998 179.6 l 1
 128 179.6 l 1
 179.2 179.6 l 1
 179.2 128.4 l 1
 179.2 77.2002 l 1
 153.6 77.2002 l 1
 128 77.2002 l 1
 128 102.8 l 1
 128 128.4 l 1
 102.4 128.4 l 1
 76.7998 128.4 l 1
 76.7998 102.8 l 1
 76.7998 77.2002 l 1
 102.4 77.2002 l 1
 128 77.2002 l 1
 128 51.5996 l 1
 128 26 l 1
 102.4 26 l 1
 76.7998 26 l 1
 76.7998 -0.453125 l 1
 76.7998 -26.9062 l 1
 102.4 -26.9062 l 1
 128 -26.9062 l 1
 128 -0.453125 l 1
 128 26 l 1
 153.6 26 l 1
 179.2 26 l 1
 179.2 -0.453125 l 1
 179.2 -26.9062 l 1
 204.8 -26.9062 l 1
 230.4 -26.9062 l 1
 230.4 -0.453125 l 1
 230.4 26 l 1
 256 26 l 1
 281.6 26 l 1
 281.6 -0.453125 l 1
 281.6 -26.9062 l 1
 307.2 -26.9062 l 1
 332.8 -26.9062 l 1
 332.8 -0.453125 l 1
 332.8 26 l 1
 358.4 26 l 1
 384 26 l 1
 384 -0.453125 l 1
 384 -26.9062 l 1
 410.453 -26.9062 l 1
 436.906 -26.9062 l 1
 436.906 50.7471 l 1
 436.906 128.4 l 1
 410.453 128.4 l 1
 384 128.4 l 1
 384 154 l 1
 384 179.6 l 1
 410.453 179.6 l 1
 436.906 179.6 l 1
 436.906 205.2 l 1
 436.906 230.8 l 1
 410.453 230.8 l 1
 384 230.8 l 1
 384 256.4 l 1
 384 282 l 1
 410.453 282 l 1
 436.906 282 l 1
 436.906 307.6 l 1
EndSplineSet
EndChar

StartChar: uni3073
Encoding: 12403 12403 5
Width: 512
VWidth: 0
Flags: H
LayerCount: 2
Back
Fore
SplineSet
281.6 51.5996 m 1
 281.6 77.2002 l 1
 307.2 77.2002 l 1
 332.8 77.2002 l 1
 332.8 51.5996 l 1
 332.8 26 l 1
 307.2 26 l 1
 281.6 26 l 1
 281.6 51.5996 l 1
0 154 m 1
 0 410 l 1
 256 410 l 1
 512 410 l 1
 512 154 l 1
 512 -102 l 1
 256 -102 l 1
 0 -102 l 1
 0 154 l 1
436.906 307.6 m 1
 436.906 333.2 l 1
 256.854 333.2 l 1
 76.7998 333.2 l 1
 76.7998 307.6 l 1
 76.7998 282 l 1
 102.4 282 l 1
 128 282 l 1
 128 256.4 l 1
 128 230.8 l 1
 102.4 230.8 l 1
 76.7998 230.8 l 1
 76.7998 205.2 l 1
 76.7998 179.6 l 1
 102.4 179.6 l 1
 128 179.6 l 1
 128 154 l 1
 128 128.4 l 1
 102.4 128.4 l 1
 76.7998 128.4 l 1
 76.7998 102.8 l 1
 76.7998 77.2002 l 1
 102.4 77.2002 l 1
 128 77.2002 l 1
 128 102.8 l 1
 128 128.4 l 1
 153.6 128.4 l 1
 179.2 128.4 l 1
 179.2 50.7471 l 1
 179.2 -26.9062 l 1
 204.8 -26.9062 l 1
 230.4 -26.9062 l 1
 230.4 -0.453125 l 1
 230.4 26 l 1
 256 26 l 1
 281.6 26 l 1
 281.6 -0.453125 l 1
 281.6 -26.9062 l 1
 307.2 -26.9062 l 1
 332.8 -26.9062 l 1
 332.8 -0.453125 l 1
 332.8 26 l 1
 358.4 26 l 1
 384 26 l 1
 384 -0.453125 l 1
 384 -26.9062 l 1
 410.453 -26.9062 l 1
 436.906 -26.9062 l 1
 436.906 -0.453125 l 1
 436.906 26 l 1
 410.453 26 l 1
 384 26 l 1
 384 51.5996 l 1
 384 77.2002 l 1
 410.453 77.2002 l 1
 436.906 77.2002 l 1
 436.906 128.4 l 1
 436.906 179.6 l 1
 410.453 179.6 l 1
 384 179.6 l 1
 384 230.8 l 1
 384 282 l 1
 410.453 282 l 1
 436.906 282 l 1
 436.906 307.6 l 1
128 -0.453125 m 1
 128 26 l 1
 102.4 26 l 1
 76.7998 26 l 1
 76.7998 -0.453125 l 1
 76.7998 -26.9062 l 1
 102.4 -26.9062 l 1
 128 -26.9062 l 1
 128 -0.453125 l 1
EndSplineSet
EndChar

StartChar: uni30EF
Encoding: 12527 12527 6
Width: 512
VWidth: 0
Flags: H
LayerCount: 2
Back
Fore
SplineSet
128 102.8 m 1
 128 128.4 l 1
 153.6 128.4 l 1
 179.2 128.4 l 1
 179.2 102.8 l 1
 179.2 77.2002 l 1
 153.6 77.2002 l 1
 128 77.2002 l 1
 128 102.8 l 1
128 205.2 m 1
 128 230.8 l 1
 153.6 230.8 l 1
 179.2 230.8 l 1
 179.2 205.2 l 1
 179.2 179.6 l 1
 153.6 179.6 l 1
 128 179.6 l 1
 128 205.2 l 1
0 154 m 1
 0 410 l 1
 256 410 l 1
 512 410 l 1
 512 154 l 1
 512 -102 l 1
 256 -102 l 1
 0 -102 l 1
 0 154 l 1
436.906 282 m 1
 436.906 333.2 l 1
 256.854 333.2 l 1
 76.7998 333.2 l 1
 76.7998 307.6 l 1
 76.7998 282 l 1
 102.4 282 l 1
 128 282 l 1
 128 256.4 l 1
 128 230.8 l 1
 102.4 230.8 l 1
 76.7998 230.8 l 1
 76.7998 205.2 l 1
 76.7998 179.6 l 1
 102.4 179.6 l 1
 128 179.6 l 1
 128 154 l 1
 128 128.4 l 1
 102.4 128.4 l 1
 76.7998 128.4 l 1
 76.7998 102.8 l 1
 76.7998 77.2002 l 1
 102.4 77.2002 l 1
 128 77.2002 l 1
 128 51.5996 l 1
 128 26 l 1
 102.4 26 l 1
 76.7998 26 l 1
 76.7998 -0.453125 l 1
 76.7998 -26.9062 l 1
 102.4 -26.9062 l 1
 128 -26.9062 l 1
 128 -0.453125 l 1
 128 26 l 1
 153.6 26 l 1
 179.2 26 l 1
 179.2 -0.453125 l 1
 179.2 -26.9062 l 1
 204.8 -26.9062 l 1
 230.4 -26.9062 l 1
 230.4 -0.453125 l 1
 230.4 26 l 1
 256 26 l 1
 281.6 26 l 1
 281.6 -0.453125 l 1
 281.6 -26.9062 l 1
 307.2 -26.9062 l 1
 332.8 -26.9062 l 1
 332.8 25.1465 l 1
 332.8 77.2002 l 1
 358.4 77.2002 l 1
 384 77.2002 l 1
 384 25.1465 l 1
 384 -26.9062 l 1
 410.453 -26.9062 l 1
 436.906 -26.9062 l 1
 436.906 50.7471 l 1
 436.906 128.4 l 1
 410.453 128.4 l 1
 384 128.4 l 1
 384 179.6 l 1
 384 230.8 l 1
 410.453 230.8 l 1
 436.906 230.8 l 1
 436.906 282 l 1
EndSplineSet
EndChar

StartChar: uni30DF
Encoding: 12511 12511 7
Width: 512
VWidth: 0
Flags: H
LayerCount: 2
Back
Fore
SplineSet
128 205.2 m 1
 128 230.8 l 1
 153.6 230.8 l 1
 179.2 230.8 l 1
 179.2 205.2 l 1
 179.2 179.6 l 1
 153.6 179.6 l 1
 128 179.6 l 1
 128 205.2 l 1
0 154 m 1
 0 410 l 1
 256 410 l 1
 512 410 l 1
 512 154 l 1
 512 -102 l 1
 256 -102 l 1
 0 -102 l 1
 0 154 l 1
436.906 282 m 1
 436.906 333.2 l 1
 256.854 333.2 l 1
 76.7998 333.2 l 1
 76.7998 307.6 l 1
 76.7998 282 l 1
 102.4 282 l 1
 128 282 l 1
 128 256.4 l 1
 128 230.8 l 1
 102.4 230.8 l 1
 76.7998 230.8 l 1
 76.7998 205.2 l 1
 76.7998 179.6 l 1
 102.4 179.6 l 1
 128 179.6 l 1
 128 154 l 1
 128 128.4 l 1
 102.4 128.4 l 1
 76.7998 128.4 l 1
 76.7998 102.8 l 1
 76.7998 77.2002 l 1
 128 77.2002 l 1
 179.2 77.2002 l 1
 179.2 25.1465 l 1
 179.2 -26.9062 l 1
 204.8 -26.9062 l 1
 230.4 -26.9062 l 1
 230.4 -0.453125 l 1
 230.4 26 l 1
 256 26 l 1
 281.6 26 l 1
 281.6 -0.453125 l 1
 281.6 -26.9062 l 1
 307.2 -26.9062 l 1
 332.8 -26.9062 l 1
 332.8 25.1465 l 1
 332.8 77.2002 l 1
 384.854 77.2002 l 1
 436.906 77.2002 l 1
 436.906 102.8 l 1
 436.906 128.4 l 1
 410.453 128.4 l 1
 384 128.4 l 1
 384 179.6 l 1
 384 230.8 l 1
 410.453 230.8 l 1
 436.906 230.8 l 1
 436.906 282 l 1
128 -0.453125 m 1
 128 26 l 1
 102.4 26 l 1
 76.7998 26 l 1
 76.7998 -0.453125 l 1
 76.7998 -26.9062 l 1
 102.4 -26.9062 l 1
 128 -26.9062 l 1
 128 -0.453125 l 1
436.906 -0.453125 m 1
 436.906 26 l 1
 410.453 26 l 1
 384 26 l 1
 384 -0.453125 l 1
 384 -26.9062 l 1
 410.453 -26.9062 l 1
 436.906 -26.9062 l 1
 436.906 -0.453125 l 1
EndSplineSet
EndChar

StartChar: uni3063
Encoding: 12387 12387 8
Width: 512
VWidth: 0
Flags: H
LayerCount: 2
Back
Fore
SplineSet
281.6 51.5996 m 1
 281.6 77.2002 l 1
 307.2 77.2002 l 1
 332.8 77.2002 l 1
 332.8 51.5996 l 1
 332.8 26 l 1
 307.2 26 l 1
 281.6 26 l 1
 281.6 51.5996 l 1
128 102.8 m 1
 128 128.4 l 1
 153.6 128.4 l 1
 179.2 128.4 l 1
 179.2 102.8 l 1
 179.2 77.2002 l 1
 153.6 77.2002 l 1
 128 77.2002 l 1
 128 102.8 l 1
0 154 m 1
 0 410 l 1
 256 410 l 1
 512 410 l 1
 512 154 l 1
 512 -102 l 1
 256 -102 l 1
 0 -102 l 1
 0 154 l 1
436.906 307.6 m 1
 436.906 333.2 l 1
 256.854 333.2 l 1
 76.7998 333.2 l 1
 76.7998 307.6 l 1
 76.7998 282 l 1
 102.4 282 l 1
 128 282 l 1
 128 256.4 l 1
 128 230.8 l 1
 102.4 230.8 l 1
 76.7998 230.8 l 1
 76.7998 205.2 l 1
 76.7998 179.6 l 1
 102.4 179.6 l 1
 128 179.6 l 1
 128 154 l 1
 128 128.4 l 1
 102.4 128.4 l 1
 76.7998 128.4 l 1
 76.7998 102.8 l 1
 76.7998 77.2002 l 1
 102.4 77.2002 l 1
 128 77.2002 l 1
 128 51.5996 l 1
 128 26 l 1
 102.4 26 l 1
 76.7998 26 l 1
 76.7998 -0.453125 l 1
 76.7998 -26.9062 l 1
 102.4 -26.9062 l 1
 128 -26.9062 l 1
 128 -0.453125 l 1
 128 26 l 1
 153.6 26 l 1
 179.2 26 l 1
 179.2 -0.453125 l 1
 179.2 -26.9062 l 1
 204.8 -26.9062 l 1
 230.4 -26.9062 l 1
 230.4 -0.453125 l 1
 230.4 26 l 1
 256 26 l 1
 281.6 26 l 1
 281.6 -0.453125 l 1
 281.6 -26.9062 l 1
 307.2 -26.9062 l 1
 332.8 -26.9062 l 1
 332.8 -0.453125 l 1
 332.8 26 l 1
 358.4 26 l 1
 384 26 l 1
 384 -0.453125 l 1
 384 -26.9062 l 1
 410.453 -26.9062 l 1
 436.906 -26.9062 l 1
 436.906 76.3467 l 1
 436.906 179.6 l 1
 410.453 179.6 l 1
 384 179.6 l 1
 384 230.8 l 1
 384 282 l 1
 410.453 282 l 1
 436.906 282 l 1
 436.906 307.6 l 1
EndSplineSet
EndChar

StartChar: uni30E9
Encoding: 12521 12521 9
Width: 512
VWidth: 0
Flags: H
LayerCount: 2
Back
Fore
SplineSet
128 205.2 m 1
 128 230.8 l 1
 153.6 230.8 l 1
 179.2 230.8 l 1
 179.2 205.2 l 1
 179.2 179.6 l 1
 153.6 179.6 l 1
 128 179.6 l 1
 128 205.2 l 1
0 154 m 1
 0 410 l 1
 256 410 l 1
 512 410 l 1
 512 154 l 1
 512 -102 l 1
 256 -102 l 1
 0 -102 l 1
 0 154 l 1
436.906 153.146 m 1
 436.906 333.2 l 1
 256.854 333.2 l 1
 76.7998 333.2 l 1
 76.7998 307.6 l 1
 76.7998 282 l 1
 102.4 282 l 1
 128 282 l 1
 128 256.4 l 1
 128 230.8 l 1
 102.4 230.8 l 1
 76.7998 230.8 l 1
 76.7998 205.2 l 1
 76.7998 179.6 l 1
 102.4 179.6 l 1
 128 179.6 l 1
 128 154 l 1
 128 128.4 l 1
 102.4 128.4 l 1
 76.7998 128.4 l 1
 76.7998 102.8 l 1
 76.7998 77.2002 l 1
 153.6 77.2002 l 1
 230.4 77.2002 l 1
 230.4 51.5996 l 1
 230.4 26 l 1
 204.8 26 l 1
 179.2 26 l 1
 179.2 -0.453125 l 1
 179.2 -26.9062 l 1
 204.8 -26.9062 l 1
 230.4 -26.9062 l 1
 230.4 -0.453125 l 1
 230.4 26 l 1
 256 26 l 1
 281.6 26 l 1
 281.6 -0.453125 l 1
 281.6 -26.9062 l 1
 307.2 -26.9062 l 1
 332.8 -26.9062 l 1
 332.8 -0.453125 l 1
 332.8 26 l 1
 307.2 26 l 1
 281.6 26 l 1
 281.6 51.5996 l 1
 281.6 77.2002 l 1
 332.8 77.2002 l 1
 384 77.2002 l 1
 384 25.1465 l 1
 384 -26.9062 l 1
 410.453 -26.9062 l 1
 436.906 -26.9062 l 1
 436.906 153.146 l 1
128 -0.453125 m 1
 128 26 l 1
 102.4 26 l 1
 76.7998 26 l 1
 76.7998 -0.453125 l 1
 76.7998 -26.9062 l 1
 102.4 -26.9062 l 1
 128 -26.9062 l 1
 128 -0.453125 l 1
EndSplineSet
EndChar

StartChar: uni30DB
Encoding: 12507 12507 10
Width: 512
VWidth: 0
Flags: H
LayerCount: 2
Back
Fore
SplineSet
128 205.2 m 1
 128 230.8 l 1
 153.6 230.8 l 1
 179.2 230.8 l 1
 179.2 205.2 l 1
 179.2 179.6 l 1
 153.6 179.6 l 1
 128 179.6 l 1
 128 205.2 l 1
0 154 m 1
 0 410 l 1
 256 410 l 1
 512 410 l 1
 512 154 l 1
 512 -102 l 1
 256 -102 l 1
 0 -102 l 1
 0 154 l 1
436.906 307.6 m 1
 436.906 333.2 l 1
 256.854 333.2 l 1
 76.7998 333.2 l 1
 76.7998 307.6 l 1
 76.7998 282 l 1
 102.4 282 l 1
 128 282 l 1
 128 256.4 l 1
 128 230.8 l 1
 102.4 230.8 l 1
 76.7998 230.8 l 1
 76.7998 205.2 l 1
 76.7998 179.6 l 1
 102.4 179.6 l 1
 128 179.6 l 1
 128 154 l 1
 128 128.4 l 1
 102.4 128.4 l 1
 76.7998 128.4 l 1
 76.7998 102.8 l 1
 76.7998 77.2002 l 1
 102.4 77.2002 l 1
 128 77.2002 l 1
 128 51.5996 l 1
 128 26 l 1
 102.4 26 l 1
 76.7998 26 l 1
 76.7998 -0.453125 l 1
 76.7998 -26.9062 l 1
 102.4 -26.9062 l 1
 128 -26.9062 l 1
 128 -0.453125 l 1
 128 26 l 1
 153.6 26 l 1
 179.2 26 l 1
 179.2 -0.453125 l 1
 179.2 -26.9062 l 1
 204.8 -26.9062 l 1
 230.4 -26.9062 l 1
 230.4 -0.453125 l 1
 230.4 26 l 1
 204.8 26 l 1
 179.2 26 l 1
 179.2 51.5996 l 1
 179.2 77.2002 l 1
 230.4 77.2002 l 1
 281.6 77.2002 l 1
 281.6 25.1465 l 1
 281.6 -26.9062 l 1
 307.2 -26.9062 l 1
 332.8 -26.9062 l 1
 332.8 25.1465 l 1
 332.8 77.2002 l 1
 384.854 77.2002 l 1
 436.906 77.2002 l 1
 436.906 154 l 1
 436.906 230.8 l 1
 410.453 230.8 l 1
 384 230.8 l 1
 384 256.4 l 1
 384 282 l 1
 410.453 282 l 1
 436.906 282 l 1
 436.906 307.6 l 1
436.906 -0.453125 m 1
 436.906 26 l 1
 410.453 26 l 1
 384 26 l 1
 384 -0.453125 l 1
 384 -26.9062 l 1
 410.453 -26.9062 l 1
 436.906 -26.9062 l 1
 436.906 -0.453125 l 1
EndSplineSet
EndChar

StartChar: uni30BB
Encoding: 12475 12475 11
Width: 512
VWidth: 0
Flags: H
LayerCount: 2
Back
Fore
SplineSet
0 154 m 1
 0 410 l 1
 256 410 l 1
 512 410 l 1
 512 154 l 1
 512 -102 l 1
 256 -102 l 1
 0 -102 l 1
 0 154 l 1
436.906 205.2 m 1
 436.906 333.2 l 1
 256.854 333.2 l 1
 76.7998 333.2 l 1
 76.7998 307.6 l 1
 76.7998 282 l 1
 102.4 282 l 1
 128 282 l 1
 128 256.4 l 1
 128 230.8 l 1
 102.4 230.8 l 1
 76.7998 230.8 l 1
 76.7998 205.2 l 1
 76.7998 179.6 l 1
 128 179.6 l 1
 179.2 179.6 l 1
 179.2 128.4 l 1
 179.2 77.2002 l 1
 153.6 77.2002 l 1
 128 77.2002 l 1
 128 102.8 l 1
 128 128.4 l 1
 102.4 128.4 l 1
 76.7998 128.4 l 1
 76.7998 102.8 l 1
 76.7998 77.2002 l 1
 102.4 77.2002 l 1
 128 77.2002 l 1
 128 51.5996 l 1
 128 26 l 1
 102.4 26 l 1
 76.7998 26 l 1
 76.7998 -0.453125 l 1
 76.7998 -26.9062 l 1
 102.4 -26.9062 l 1
 128 -26.9062 l 1
 128 -0.453125 l 1
 128 26 l 1
 153.6 26 l 1
 179.2 26 l 1
 179.2 -0.453125 l 1
 179.2 -26.9062 l 1
 204.8 -26.9062 l 1
 230.4 -26.9062 l 1
 230.4 -0.453125 l 1
 230.4 26 l 1
 204.8 26 l 1
 179.2 26 l 1
 179.2 51.5996 l 1
 179.2 77.2002 l 1
 230.4 77.2002 l 1
 281.6 77.2002 l 1
 281.6 25.1465 l 1
 281.6 -26.9062 l 1
 307.2 -26.9062 l 1
 332.8 -26.9062 l 1
 332.8 25.1465 l 1
 332.8 77.2002 l 1
 384.854 77.2002 l 1
 436.906 77.2002 l 1
 436.906 205.2 l 1
436.906 -0.453125 m 1
 436.906 26 l 1
 410.453 26 l 1
 384 26 l 1
 384 -0.453125 l 1
 384 -26.9062 l 1
 410.453 -26.9062 l 1
 436.906 -26.9062 l 1
 436.906 -0.453125 l 1
EndSplineSet
EndChar

StartChar: uni30ED
Encoding: 12525 12525 12
Width: 512
VWidth: 0
Flags: H
LayerCount: 2
Back
Fore
SplineSet
128 205.2 m 1
 128 230.8 l 1
 153.6 230.8 l 1
 179.2 230.8 l 1
 179.2 205.2 l 1
 179.2 179.6 l 1
 153.6 179.6 l 1
 128 179.6 l 1
 128 205.2 l 1
0 154 m 1
 0 410 l 1
 256 410 l 1
 512 410 l 1
 512 154 l 1
 512 -102 l 1
 256 -102 l 1
 0 -102 l 1
 0 154 l 1
436.906 256.4 m 1
 436.906 333.2 l 1
 256.854 333.2 l 1
 76.7998 333.2 l 1
 76.7998 307.6 l 1
 76.7998 282 l 1
 102.4 282 l 1
 128 282 l 1
 128 256.4 l 1
 128 230.8 l 1
 102.4 230.8 l 1
 76.7998 230.8 l 1
 76.7998 205.2 l 1
 76.7998 179.6 l 1
 102.4 179.6 l 1
 128 179.6 l 1
 128 154 l 1
 128 128.4 l 1
 102.4 128.4 l 1
 76.7998 128.4 l 1
 76.7998 102.8 l 1
 76.7998 77.2002 l 1
 230.4 77.2002 l 1
 384 77.2002 l 1
 384 25.1465 l 1
 384 -26.9062 l 1
 410.453 -26.9062 l 1
 436.906 -26.9062 l 1
 436.906 50.7471 l 1
 436.906 128.4 l 1
 410.453 128.4 l 1
 384 128.4 l 1
 384 154 l 1
 384 179.6 l 1
 410.453 179.6 l 1
 436.906 179.6 l 1
 436.906 256.4 l 1
128 -0.453125 m 1
 128 26 l 1
 102.4 26 l 1
 76.7998 26 l 1
 76.7998 -0.453125 l 1
 76.7998 -26.9062 l 1
 102.4 -26.9062 l 1
 128 -26.9062 l 1
 128 -0.453125 l 1
230.4 -0.453125 m 1
 230.4 26 l 1
 204.8 26 l 1
 179.2 26 l 1
 179.2 -0.453125 l 1
 179.2 -26.9062 l 1
 204.8 -26.9062 l 1
 230.4 -26.9062 l 1
 230.4 -0.453125 l 1
332.8 -0.453125 m 1
 332.8 26 l 1
 307.2 26 l 1
 281.6 26 l 1
 281.6 -0.453125 l 1
 281.6 -26.9062 l 1
 307.2 -26.9062 l 1
 332.8 -26.9062 l 1
 332.8 -0.453125 l 1
EndSplineSet
EndChar

StartChar: uni30A8
Encoding: 12456 12456 13
Width: 512
VWidth: 0
Flags: H
LayerCount: 2
Back
Fore
SplineSet
281.6 51.5996 m 1
 281.6 77.2002 l 1
 307.2 77.2002 l 1
 332.8 77.2002 l 1
 332.8 51.5996 l 1
 332.8 26 l 1
 307.2 26 l 1
 281.6 26 l 1
 281.6 51.5996 l 1
0 154 m 1
 0 410 l 1
 256 410 l 1
 512 410 l 1
 512 154 l 1
 512 -102 l 1
 256 -102 l 1
 0 -102 l 1
 0 154 l 1
436.906 307.6 m 1
 436.906 333.2 l 1
 256.854 333.2 l 1
 76.7998 333.2 l 1
 76.7998 307.6 l 1
 76.7998 282 l 1
 102.4 282 l 1
 128 282 l 1
 128 256.4 l 1
 128 230.8 l 1
 102.4 230.8 l 1
 76.7998 230.8 l 1
 76.7998 205.2 l 1
 76.7998 179.6 l 1
 128 179.6 l 1
 179.2 179.6 l 1
 179.2 154 l 1
 179.2 128.4 l 1
 128 128.4 l 1
 76.7998 128.4 l 1
 76.7998 102.8 l 1
 76.7998 77.2002 l 1
 153.6 77.2002 l 1
 230.4 77.2002 l 1
 230.4 51.5996 l 1
 230.4 26 l 1
 204.8 26 l 1
 179.2 26 l 1
 179.2 -0.453125 l 1
 179.2 -26.9062 l 1
 204.8 -26.9062 l 1
 230.4 -26.9062 l 1
 230.4 -0.453125 l 1
 230.4 26 l 1
 256 26 l 1
 281.6 26 l 1
 281.6 -0.453125 l 1
 281.6 -26.9062 l 1
 307.2 -26.9062 l 1
 332.8 -26.9062 l 1
 332.8 -0.453125 l 1
 332.8 26 l 1
 358.4 26 l 1
 384 26 l 1
 384 -0.453125 l 1
 384 -26.9062 l 1
 410.453 -26.9062 l 1
 436.906 -26.9062 l 1
 436.906 -0.453125 l 1
 436.906 26 l 1
 410.453 26 l 1
 384 26 l 1
 384 102.8 l 1
 384 179.6 l 1
 410.453 179.6 l 1
 436.906 179.6 l 1
 436.906 205.2 l 1
 436.906 230.8 l 1
 410.453 230.8 l 1
 384 230.8 l 1
 384 256.4 l 1
 384 282 l 1
 410.453 282 l 1
 436.906 282 l 1
 436.906 307.6 l 1
128 -0.453125 m 1
 128 26 l 1
 102.4 26 l 1
 76.7998 26 l 1
 76.7998 -0.453125 l 1
 76.7998 -26.9062 l 1
 102.4 -26.9062 l 1
 128 -26.9062 l 1
 128 -0.453125 l 1
EndSplineSet
EndChar

StartChar: uni3070
Encoding: 12400 12400 14
Width: 512
VWidth: 0
Flags: H
LayerCount: 2
Back
Fore
SplineSet
128 102.8 m 1
 128 128.4 l 1
 153.6 128.4 l 1
 179.2 128.4 l 1
 179.2 102.8 l 1
 179.2 77.2002 l 1
 153.6 77.2002 l 1
 128 77.2002 l 1
 128 102.8 l 1
0 154 m 1
 0 410 l 1
 256 410 l 1
 512 410 l 1
 512 154 l 1
 512 -102 l 1
 256 -102 l 1
 0 -102 l 1
 0 154 l 1
436.906 205.2 m 1
 436.906 333.2 l 1
 256.854 333.2 l 1
 76.7998 333.2 l 1
 76.7998 307.6 l 1
 76.7998 282 l 1
 102.4 282 l 1
 128 282 l 1
 128 256.4 l 1
 128 230.8 l 1
 102.4 230.8 l 1
 76.7998 230.8 l 1
 76.7998 205.2 l 1
 76.7998 179.6 l 1
 102.4 179.6 l 1
 128 179.6 l 1
 128 154 l 1
 128 128.4 l 1
 102.4 128.4 l 1
 76.7998 128.4 l 1
 76.7998 102.8 l 1
 76.7998 77.2002 l 1
 102.4 77.2002 l 1
 128 77.2002 l 1
 128 51.5996 l 1
 128 26 l 1
 102.4 26 l 1
 76.7998 26 l 1
 76.7998 -0.453125 l 1
 76.7998 -26.9062 l 1
 102.4 -26.9062 l 1
 128 -26.9062 l 1
 128 -0.453125 l 1
 128 26 l 1
 153.6 26 l 1
 179.2 26 l 1
 179.2 -0.453125 l 1
 179.2 -26.9062 l 1
 204.8 -26.9062 l 1
 230.4 -26.9062 l 1
 230.4 -0.453125 l 1
 230.4 26 l 1
 204.8 26 l 1
 179.2 26 l 1
 179.2 51.5996 l 1
 179.2 77.2002 l 1
 308.054 77.2002 l 1
 436.906 77.2002 l 1
 436.906 205.2 l 1
332.8 -0.453125 m 1
 332.8 26 l 1
 307.2 26 l 1
 281.6 26 l 1
 281.6 -0.453125 l 1
 281.6 -26.9062 l 1
 307.2 -26.9062 l 1
 332.8 -26.9062 l 1
 332.8 -0.453125 l 1
436.906 -0.453125 m 1
 436.906 26 l 1
 410.453 26 l 1
 384 26 l 1
 384 -0.453125 l 1
 384 -26.9062 l 1
 410.453 -26.9062 l 1
 436.906 -26.9062 l 1
 436.906 -0.453125 l 1
EndSplineSet
EndChar

StartChar: uni30EA
Encoding: 12522 12522 15
Width: 512
VWidth: 0
Flags: H
LayerCount: 2
Back
Fore
SplineSet
128 205.2 m 1
 128 230.8 l 1
 153.6 230.8 l 1
 179.2 230.8 l 1
 179.2 205.2 l 1
 179.2 179.6 l 1
 153.6 179.6 l 1
 128 179.6 l 1
 128 205.2 l 1
0 154 m 1
 0 410 l 1
 256 410 l 1
 512 410 l 1
 512 154 l 1
 512 -102 l 1
 256 -102 l 1
 0 -102 l 1
 0 154 l 1
436.906 307.6 m 1
 436.906 333.2 l 1
 256.854 333.2 l 1
 76.7998 333.2 l 1
 76.7998 307.6 l 1
 76.7998 282 l 1
 102.4 282 l 1
 128 282 l 1
 128 256.4 l 1
 128 230.8 l 1
 102.4 230.8 l 1
 76.7998 230.8 l 1
 76.7998 205.2 l 1
 76.7998 179.6 l 1
 102.4 179.6 l 1
 128 179.6 l 1
 128 154 l 1
 128 128.4 l 1
 102.4 128.4 l 1
 76.7998 128.4 l 1
 76.7998 102.8 l 1
 76.7998 77.2002 l 1
 179.2 77.2002 l 1
 281.6 77.2002 l 1
 281.6 25.1465 l 1
 281.6 -26.9062 l 1
 307.2 -26.9062 l 1
 332.8 -26.9062 l 1
 332.8 -0.453125 l 1
 332.8 26 l 1
 358.4 26 l 1
 384 26 l 1
 384 -0.453125 l 1
 384 -26.9062 l 1
 410.453 -26.9062 l 1
 436.906 -26.9062 l 1
 436.906 101.946 l 1
 436.906 230.8 l 1
 410.453 230.8 l 1
 384 230.8 l 1
 384 256.4 l 1
 384 282 l 1
 410.453 282 l 1
 436.906 282 l 1
 436.906 307.6 l 1
128 -0.453125 m 1
 128 26 l 1
 102.4 26 l 1
 76.7998 26 l 1
 76.7998 -0.453125 l 1
 76.7998 -26.9062 l 1
 102.4 -26.9062 l 1
 128 -26.9062 l 1
 128 -0.453125 l 1
230.4 -0.453125 m 1
 230.4 26 l 1
 204.8 26 l 1
 179.2 26 l 1
 179.2 -0.453125 l 1
 179.2 -26.9062 l 1
 204.8 -26.9062 l 1
 230.4 -26.9062 l 1
 230.4 -0.453125 l 1
EndSplineSet
EndChar

StartChar: uni3071
Encoding: 12401 12401 16
Width: 512
VWidth: 0
Flags: H
LayerCount: 2
Back
Fore
SplineSet
0 154 m 1
 0 410 l 1
 256 410 l 1
 512 410 l 1
 512 154 l 1
 512 -102 l 1
 256 -102 l 1
 0 -102 l 1
 0 154 l 1
436.906 307.6 m 1
 436.906 333.2 l 1
 256.854 333.2 l 1
 76.7998 333.2 l 1
 76.7998 307.6 l 1
 76.7998 282 l 1
 102.4 282 l 1
 128 282 l 1
 128 256.4 l 1
 128 230.8 l 1
 102.4 230.8 l 1
 76.7998 230.8 l 1
 76.7998 205.2 l 1
 76.7998 179.6 l 1
 102.4 179.6 l 1
 128 179.6 l 1
 128 154 l 1
 128 128.4 l 1
 102.4 128.4 l 1
 76.7998 128.4 l 1
 76.7998 102.8 l 1
 76.7998 77.2002 l 1
 102.4 77.2002 l 1
 128 77.2002 l 1
 128 102.8 l 1
 128 128.4 l 1
 153.6 128.4 l 1
 179.2 128.4 l 1
 179.2 50.7471 l 1
 179.2 -26.9062 l 1
 204.8 -26.9062 l 1
 230.4 -26.9062 l 1
 230.4 -0.453125 l 1
 230.4 26 l 1
 256 26 l 1
 281.6 26 l 1
 281.6 -0.453125 l 1
 281.6 -26.9062 l 1
 307.2 -26.9062 l 1
 332.8 -26.9062 l 1
 332.8 -0.453125 l 1
 332.8 26 l 1
 358.4 26 l 1
 384 26 l 1
 384 -0.453125 l 1
 384 -26.9062 l 1
 410.453 -26.9062 l 1
 436.906 -26.9062 l 1
 436.906 -0.453125 l 1
 436.906 26 l 1
 410.453 26 l 1
 384 26 l 1
 384 51.5996 l 1
 384 77.2002 l 1
 410.453 77.2002 l 1
 436.906 77.2002 l 1
 436.906 154 l 1
 436.906 230.8 l 1
 410.453 230.8 l 1
 384 230.8 l 1
 384 256.4 l 1
 384 282 l 1
 410.453 282 l 1
 436.906 282 l 1
 436.906 307.6 l 1
128 -0.453125 m 1
 128 26 l 1
 102.4 26 l 1
 76.7998 26 l 1
 76.7998 -0.453125 l 1
 76.7998 -26.9062 l 1
 102.4 -26.9062 l 1
 128 -26.9062 l 1
 128 -0.453125 l 1
EndSplineSet
EndChar

StartChar: uni3068
Encoding: 12392 12392 17
Width: 512
VWidth: 0
Flags: H
LayerCount: 2
Back
Fore
SplineSet
128 102.8 m 1
 128 128.4 l 1
 153.6 128.4 l 1
 179.2 128.4 l 1
 179.2 102.8 l 1
 179.2 77.2002 l 1
 153.6 77.2002 l 1
 128 77.2002 l 1
 128 102.8 l 1
0 154 m 1
 0 410 l 1
 256 410 l 1
 512 410 l 1
 512 154 l 1
 512 -102 l 1
 256 -102 l 1
 0 -102 l 1
 0 154 l 1
436.906 230.8 m 1
 436.906 333.2 l 1
 256.854 333.2 l 1
 76.7998 333.2 l 1
 76.7998 307.6 l 1
 76.7998 282 l 1
 102.4 282 l 1
 128 282 l 1
 128 256.4 l 1
 128 230.8 l 1
 102.4 230.8 l 1
 76.7998 230.8 l 1
 76.7998 205.2 l 1
 76.7998 179.6 l 1
 102.4 179.6 l 1
 128 179.6 l 1
 128 154 l 1
 128 128.4 l 1
 102.4 128.4 l 1
 76.7998 128.4 l 1
 76.7998 102.8 l 1
 76.7998 77.2002 l 1
 102.4 77.2002 l 1
 128 77.2002 l 1
 128 51.5996 l 1
 128 26 l 1
 102.4 26 l 1
 76.7998 26 l 1
 76.7998 -0.453125 l 1
 76.7998 -26.9062 l 1
 102.4 -26.9062 l 1
 128 -26.9062 l 1
 128 -0.453125 l 1
 128 26 l 1
 153.6 26 l 1
 179.2 26 l 1
 179.2 -0.453125 l 1
 179.2 -26.9062 l 1
 204.8 -26.9062 l 1
 230.4 -26.9062 l 1
 230.4 25.1465 l 1
 230.4 77.2002 l 1
 307.2 77.2002 l 1
 384 77.2002 l 1
 384 25.1465 l 1
 384 -26.9062 l 1
 410.453 -26.9062 l 1
 436.906 -26.9062 l 1
 436.906 25.1465 l 1
 436.906 77.2002 l 1
 410.453 77.2002 l 1
 384 77.2002 l 1
 384 102.8 l 1
 384 128.4 l 1
 410.453 128.4 l 1
 436.906 128.4 l 1
 436.906 230.8 l 1
332.8 -0.453125 m 1
 332.8 26 l 1
 307.2 26 l 1
 281.6 26 l 1
 281.6 -0.453125 l 1
 281.6 -26.9062 l 1
 307.2 -26.9062 l 1
 332.8 -26.9062 l 1
 332.8 -0.453125 l 1
EndSplineSet
EndChar

StartChar: uni3080
Encoding: 12416 12416 18
Width: 512
VWidth: 0
Flags: H
LayerCount: 2
Back
Fore
SplineSet
0 154 m 1
 0 410 l 1
 256 410 l 1
 512 410 l 1
 512 154 l 1
 512 -102 l 1
 256 -102 l 1
 0 -102 l 1
 0 154 l 1
436.906 307.6 m 1
 436.906 333.2 l 1
 256.854 333.2 l 1
 76.7998 333.2 l 1
 76.7998 307.6 l 1
 76.7998 282 l 1
 102.4 282 l 1
 128 282 l 1
 128 256.4 l 1
 128 230.8 l 1
 102.4 230.8 l 1
 76.7998 230.8 l 1
 76.7998 205.2 l 1
 76.7998 179.6 l 1
 102.4 179.6 l 1
 128 179.6 l 1
 128 154 l 1
 128 128.4 l 1
 102.4 128.4 l 1
 76.7998 128.4 l 1
 76.7998 102.8 l 1
 76.7998 77.2002 l 1
 102.4 77.2002 l 1
 128 77.2002 l 1
 128 102.8 l 1
 128 128.4 l 1
 153.6 128.4 l 1
 179.2 128.4 l 1
 179.2 102.8 l 1
 179.2 77.2002 l 1
 281.6 77.2002 l 1
 384 77.2002 l 1
 384 25.1465 l 1
 384 -26.9062 l 1
 410.453 -26.9062 l 1
 436.906 -26.9062 l 1
 436.906 101.946 l 1
 436.906 230.8 l 1
 410.453 230.8 l 1
 384 230.8 l 1
 384 256.4 l 1
 384 282 l 1
 410.453 282 l 1
 436.906 282 l 1
 436.906 307.6 l 1
128 -0.453125 m 1
 128 26 l 1
 102.4 26 l 1
 76.7998 26 l 1
 76.7998 -0.453125 l 1
 76.7998 -26.9062 l 1
 102.4 -26.9062 l 1
 128 -26.9062 l 1
 128 -0.453125 l 1
230.4 -0.453125 m 1
 230.4 26 l 1
 204.8 26 l 1
 179.2 26 l 1
 179.2 -0.453125 l 1
 179.2 -26.9062 l 1
 204.8 -26.9062 l 1
 230.4 -26.9062 l 1
 230.4 -0.453125 l 1
332.8 -0.453125 m 1
 332.8 26 l 1
 307.2 26 l 1
 281.6 26 l 1
 281.6 -0.453125 l 1
 281.6 -26.9062 l 1
 307.2 -26.9062 l 1
 332.8 -26.9062 l 1
 332.8 -0.453125 l 1
EndSplineSet
EndChar

StartChar: uni30B1
Encoding: 12465 12465 19
Width: 512
VWidth: 0
Flags: H
LayerCount: 2
Back
Fore
SplineSet
0 154 m 1
 0 410 l 1
 256 410 l 1
 512 410 l 1
 512 154 l 1
 512 -102 l 1
 256 -102 l 1
 0 -102 l 1
 0 154 l 1
436.906 282 m 1
 436.906 333.2 l 1
 256.854 333.2 l 1
 76.7998 333.2 l 1
 76.7998 307.6 l 1
 76.7998 282 l 1
 102.4 282 l 1
 128 282 l 1
 128 256.4 l 1
 128 230.8 l 1
 102.4 230.8 l 1
 76.7998 230.8 l 1
 76.7998 205.2 l 1
 76.7998 179.6 l 1
 128 179.6 l 1
 179.2 179.6 l 1
 179.2 128.4 l 1
 179.2 77.2002 l 1
 153.6 77.2002 l 1
 128 77.2002 l 1
 128 102.8 l 1
 128 128.4 l 1
 102.4 128.4 l 1
 76.7998 128.4 l 1
 76.7998 102.8 l 1
 76.7998 77.2002 l 1
 102.4 77.2002 l 1
 128 77.2002 l 1
 128 51.5996 l 1
 128 26 l 1
 102.4 26 l 1
 76.7998 26 l 1
 76.7998 -0.453125 l 1
 76.7998 -26.9062 l 1
 102.4 -26.9062 l 1
 128 -26.9062 l 1
 128 -0.453125 l 1
 128 26 l 1
 153.6 26 l 1
 179.2 26 l 1
 179.2 -0.453125 l 1
 179.2 -26.9062 l 1
 204.8 -26.9062 l 1
 230.4 -26.9062 l 1
 230.4 -0.453125 l 1
 230.4 26 l 1
 256 26 l 1
 281.6 26 l 1
 281.6 -0.453125 l 1
 281.6 -26.9062 l 1
 307.2 -26.9062 l 1
 332.8 -26.9062 l 1
 332.8 -0.453125 l 1
 332.8 26 l 1
 307.2 26 l 1
 281.6 26 l 1
 281.6 51.5996 l 1
 281.6 77.2002 l 1
 332.8 77.2002 l 1
 384 77.2002 l 1
 384 25.1465 l 1
 384 -26.9062 l 1
 410.453 -26.9062 l 1
 436.906 -26.9062 l 1
 436.906 50.7471 l 1
 436.906 128.4 l 1
 410.453 128.4 l 1
 384 128.4 l 1
 384 179.6 l 1
 384 230.8 l 1
 410.453 230.8 l 1
 436.906 230.8 l 1
 436.906 282 l 1
EndSplineSet
EndChar

StartChar: uni30D4
Encoding: 12500 12500 20
Width: 512
VWidth: 0
Flags: H
LayerCount: 2
Back
Fore
SplineSet
128 205.2 m 1
 128 230.8 l 1
 153.6 230.8 l 1
 179.2 230.8 l 1
 179.2 205.2 l 1
 179.2 179.6 l 1
 153.6 179.6 l 1
 128 179.6 l 1
 128 205.2 l 1
0 154 m 1
 0 410 l 1
 256 410 l 1
 512 410 l 1
 512 154 l 1
 512 -102 l 1
 256 -102 l 1
 0 -102 l 1
 0 154 l 1
436.906 282 m 1
 436.906 333.2 l 1
 256.854 333.2 l 1
 76.7998 333.2 l 1
 76.7998 307.6 l 1
 76.7998 282 l 1
 102.4 282 l 1
 128 282 l 1
 128 256.4 l 1
 128 230.8 l 1
 102.4 230.8 l 1
 76.7998 230.8 l 1
 76.7998 205.2 l 1
 76.7998 179.6 l 1
 102.4 179.6 l 1
 128 179.6 l 1
 128 154 l 1
 128 128.4 l 1
 102.4 128.4 l 1
 76.7998 128.4 l 1
 76.7998 102.8 l 1
 76.7998 77.2002 l 1
 102.4 77.2002 l 1
 128 77.2002 l 1
 128 51.5996 l 1
 128 26 l 1
 102.4 26 l 1
 76.7998 26 l 1
 76.7998 -0.453125 l 1
 76.7998 -26.9062 l 1
 102.4 -26.9062 l 1
 128 -26.9062 l 1
 128 -0.453125 l 1
 128 26 l 1
 153.6 26 l 1
 179.2 26 l 1
 179.2 -0.453125 l 1
 179.2 -26.9062 l 1
 204.8 -26.9062 l 1
 230.4 -26.9062 l 1
 230.4 25.1465 l 1
 230.4 77.2002 l 1
 281.6 77.2002 l 1
 332.8 77.2002 l 1
 332.8 51.5996 l 1
 332.8 26 l 1
 307.2 26 l 1
 281.6 26 l 1
 281.6 -0.453125 l 1
 281.6 -26.9062 l 1
 307.2 -26.9062 l 1
 332.8 -26.9062 l 1
 332.8 -0.453125 l 1
 332.8 26 l 1
 358.4 26 l 1
 384 26 l 1
 384 -0.453125 l 1
 384 -26.9062 l 1
 410.453 -26.9062 l 1
 436.906 -26.9062 l 1
 436.906 25.1465 l 1
 436.906 77.2002 l 1
 410.453 77.2002 l 1
 384 77.2002 l 1
 384 102.8 l 1
 384 128.4 l 1
 410.453 128.4 l 1
 436.906 128.4 l 1
 436.906 154 l 1
 436.906 179.6 l 1
 410.453 179.6 l 1
 384 179.6 l 1
 384 205.2 l 1
 384 230.8 l 1
 410.453 230.8 l 1
 436.906 230.8 l 1
 436.906 282 l 1
EndSplineSet
EndChar

StartChar: uni30DC
Encoding: 12508 12508 21
Width: 512
VWidth: 0
Flags: H
LayerCount: 2
Back
Fore
SplineSet
128 205.2 m 1
 128 230.8 l 1
 153.6 230.8 l 1
 179.2 230.8 l 1
 179.2 205.2 l 1
 179.2 179.6 l 1
 153.6 179.6 l 1
 128 179.6 l 1
 128 205.2 l 1
0 154 m 1
 0 410 l 1
 256 410 l 1
 512 410 l 1
 512 154 l 1
 512 -102 l 1
 256 -102 l 1
 0 -102 l 1
 0 154 l 1
436.906 282 m 1
 436.906 333.2 l 1
 256.854 333.2 l 1
 76.7998 333.2 l 1
 76.7998 307.6 l 1
 76.7998 282 l 1
 102.4 282 l 1
 128 282 l 1
 128 256.4 l 1
 128 230.8 l 1
 102.4 230.8 l 1
 76.7998 230.8 l 1
 76.7998 205.2 l 1
 76.7998 179.6 l 1
 102.4 179.6 l 1
 128 179.6 l 1
 128 154 l 1
 128 128.4 l 1
 102.4 128.4 l 1
 76.7998 128.4 l 1
 76.7998 102.8 l 1
 76.7998 77.2002 l 1
 102.4 77.2002 l 1
 128 77.2002 l 1
 128 51.5996 l 1
 128 26 l 1
 102.4 26 l 1
 76.7998 26 l 1
 76.7998 -0.453125 l 1
 76.7998 -26.9062 l 1
 102.4 -26.9062 l 1
 128 -26.9062 l 1
 128 -0.453125 l 1
 128 26 l 1
 153.6 26 l 1
 179.2 26 l 1
 179.2 -0.453125 l 1
 179.2 -26.9062 l 1
 204.8 -26.9062 l 1
 230.4 -26.9062 l 1
 230.4 -0.453125 l 1
 230.4 26 l 1
 204.8 26 l 1
 179.2 26 l 1
 179.2 51.5996 l 1
 179.2 77.2002 l 1
 256 77.2002 l 1
 332.8 77.2002 l 1
 332.8 51.5996 l 1
 332.8 26 l 1
 307.2 26 l 1
 281.6 26 l 1
 281.6 -0.453125 l 1
 281.6 -26.9062 l 1
 307.2 -26.9062 l 1
 332.8 -26.9062 l 1
 332.8 -0.453125 l 1
 332.8 26 l 1
 358.4 26 l 1
 384 26 l 1
 384 -0.453125 l 1
 384 -26.9062 l 1
 410.453 -26.9062 l 1
 436.906 -26.9062 l 1
 436.906 -0.453125 l 1
 436.906 26 l 1
 410.453 26 l 1
 384 26 l 1
 384 51.5996 l 1
 384 77.2002 l 1
 410.453 77.2002 l 1
 436.906 77.2002 l 1
 436.906 128.4 l 1
 436.906 179.6 l 1
 410.453 179.6 l 1
 384 179.6 l 1
 384 205.2 l 1
 384 230.8 l 1
 410.453 230.8 l 1
 436.906 230.8 l 1
 436.906 282 l 1
EndSplineSet
EndChar

StartChar: uni3052
Encoding: 12370 12370 22
Width: 512
VWidth: 0
Flags: H
LayerCount: 2
Back
Fore
SplineSet
0 154 m 1
 0 410 l 1
 256 410 l 1
 512 410 l 1
 512 154 l 1
 512 -102 l 1
 256 -102 l 1
 0 -102 l 1
 0 154 l 1
436.906 307.6 m 1
 436.906 333.2 l 1
 256.854 333.2 l 1
 76.7998 333.2 l 1
 76.7998 307.6 l 1
 76.7998 282 l 1
 102.4 282 l 1
 128 282 l 1
 128 256.4 l 1
 128 230.8 l 1
 102.4 230.8 l 1
 76.7998 230.8 l 1
 76.7998 205.2 l 1
 76.7998 179.6 l 1
 102.4 179.6 l 1
 128 179.6 l 1
 128 154 l 1
 128 128.4 l 1
 102.4 128.4 l 1
 76.7998 128.4 l 1
 76.7998 102.8 l 1
 76.7998 77.2002 l 1
 128 77.2002 l 1
 179.2 77.2002 l 1
 179.2 25.1465 l 1
 179.2 -26.9062 l 1
 204.8 -26.9062 l 1
 230.4 -26.9062 l 1
 230.4 -0.453125 l 1
 230.4 26 l 1
 256 26 l 1
 281.6 26 l 1
 281.6 -0.453125 l 1
 281.6 -26.9062 l 1
 307.2 -26.9062 l 1
 332.8 -26.9062 l 1
 332.8 25.1465 l 1
 332.8 77.2002 l 1
 384.854 77.2002 l 1
 436.906 77.2002 l 1
 436.906 154 l 1
 436.906 230.8 l 1
 410.453 230.8 l 1
 384 230.8 l 1
 384 256.4 l 1
 384 282 l 1
 410.453 282 l 1
 436.906 282 l 1
 436.906 307.6 l 1
128 -0.453125 m 1
 128 26 l 1
 102.4 26 l 1
 76.7998 26 l 1
 76.7998 -0.453125 l 1
 76.7998 -26.9062 l 1
 102.4 -26.9062 l 1
 128 -26.9062 l 1
 128 -0.453125 l 1
436.906 -0.453125 m 1
 436.906 26 l 1
 410.453 26 l 1
 384 26 l 1
 384 -0.453125 l 1
 384 -26.9062 l 1
 410.453 -26.9062 l 1
 436.906 -26.9062 l 1
 436.906 -0.453125 l 1
EndSplineSet
EndChar

StartChar: uni3047
Encoding: 12359 12359 23
Width: 512
VWidth: 0
Flags: H
LayerCount: 2
Back
Fore
SplineSet
0 154 m 1
 0 410 l 1
 256 410 l 1
 512 410 l 1
 512 154 l 1
 512 -102 l 1
 256 -102 l 1
 0 -102 l 1
 0 154 l 1
436.906 282 m 1
 436.906 333.2 l 1
 256.854 333.2 l 1
 76.7998 333.2 l 1
 76.7998 307.6 l 1
 76.7998 282 l 1
 102.4 282 l 1
 128 282 l 1
 128 256.4 l 1
 128 230.8 l 1
 102.4 230.8 l 1
 76.7998 230.8 l 1
 76.7998 205.2 l 1
 76.7998 179.6 l 1
 102.4 179.6 l 1
 128 179.6 l 1
 128 154 l 1
 128 128.4 l 1
 102.4 128.4 l 1
 76.7998 128.4 l 1
 76.7998 102.8 l 1
 76.7998 77.2002 l 1
 102.4 77.2002 l 1
 128 77.2002 l 1
 128 51.5996 l 1
 128 26 l 1
 102.4 26 l 1
 76.7998 26 l 1
 76.7998 -0.453125 l 1
 76.7998 -26.9062 l 1
 102.4 -26.9062 l 1
 128 -26.9062 l 1
 128 -0.453125 l 1
 128 26 l 1
 153.6 26 l 1
 179.2 26 l 1
 179.2 -0.453125 l 1
 179.2 -26.9062 l 1
 204.8 -26.9062 l 1
 230.4 -26.9062 l 1
 230.4 25.1465 l 1
 230.4 77.2002 l 1
 281.6 77.2002 l 1
 332.8 77.2002 l 1
 332.8 51.5996 l 1
 332.8 26 l 1
 307.2 26 l 1
 281.6 26 l 1
 281.6 -0.453125 l 1
 281.6 -26.9062 l 1
 307.2 -26.9062 l 1
 332.8 -26.9062 l 1
 332.8 -0.453125 l 1
 332.8 26 l 1
 358.4 26 l 1
 384 26 l 1
 384 -0.453125 l 1
 384 -26.9062 l 1
 410.453 -26.9062 l 1
 436.906 -26.9062 l 1
 436.906 50.7471 l 1
 436.906 128.4 l 1
 410.453 128.4 l 1
 384 128.4 l 1
 384 179.6 l 1
 384 230.8 l 1
 410.453 230.8 l 1
 436.906 230.8 l 1
 436.906 282 l 1
EndSplineSet
EndChar

StartChar: uni30DA
Encoding: 12506 12506 24
Width: 512
VWidth: 0
Flags: H
LayerCount: 2
Back
Fore
SplineSet
128 205.2 m 1
 128 230.8 l 1
 153.6 230.8 l 1
 179.2 230.8 l 1
 179.2 205.2 l 1
 179.2 179.6 l 1
 153.6 179.6 l 1
 128 179.6 l 1
 128 205.2 l 1
0 154 m 1
 0 410 l 1
 256 410 l 1
 512 410 l 1
 512 154 l 1
 512 -102 l 1
 256 -102 l 1
 0 -102 l 1
 0 154 l 1
436.906 205.2 m 1
 436.906 333.2 l 1
 256.854 333.2 l 1
 76.7998 333.2 l 1
 76.7998 307.6 l 1
 76.7998 282 l 1
 102.4 282 l 1
 128 282 l 1
 128 256.4 l 1
 128 230.8 l 1
 102.4 230.8 l 1
 76.7998 230.8 l 1
 76.7998 205.2 l 1
 76.7998 179.6 l 1
 102.4 179.6 l 1
 128 179.6 l 1
 128 154 l 1
 128 128.4 l 1
 102.4 128.4 l 1
 76.7998 128.4 l 1
 76.7998 102.8 l 1
 76.7998 77.2002 l 1
 102.4 77.2002 l 1
 128 77.2002 l 1
 128 51.5996 l 1
 128 26 l 1
 102.4 26 l 1
 76.7998 26 l 1
 76.7998 -0.453125 l 1
 76.7998 -26.9062 l 1
 102.4 -26.9062 l 1
 128 -26.9062 l 1
 128 -0.453125 l 1
 128 26 l 1
 153.6 26 l 1
 179.2 26 l 1
 179.2 -0.453125 l 1
 179.2 -26.9062 l 1
 204.8 -26.9062 l 1
 230.4 -26.9062 l 1
 230.4 -0.453125 l 1
 230.4 26 l 1
 204.8 26 l 1
 179.2 26 l 1
 179.2 51.5996 l 1
 179.2 77.2002 l 1
 230.4 77.2002 l 1
 281.6 77.2002 l 1
 281.6 25.1465 l 1
 281.6 -26.9062 l 1
 307.2 -26.9062 l 1
 332.8 -26.9062 l 1
 332.8 -0.453125 l 1
 332.8 26 l 1
 358.4 26 l 1
 384 26 l 1
 384 -0.453125 l 1
 384 -26.9062 l 1
 410.453 -26.9062 l 1
 436.906 -26.9062 l 1
 436.906 -0.453125 l 1
 436.906 26 l 1
 410.453 26 l 1
 384 26 l 1
 384 51.5996 l 1
 384 77.2002 l 1
 410.453 77.2002 l 1
 436.906 77.2002 l 1
 436.906 205.2 l 1
EndSplineSet
EndChar

StartChar: uni30D6
Encoding: 12502 12502 25
Width: 512
VWidth: 0
Flags: H
LayerCount: 2
Back
Fore
SplineSet
179.2 51.5996 m 1
 179.2 77.2002 l 1
 204.8 77.2002 l 1
 230.4 77.2002 l 1
 230.4 51.5996 l 1
 230.4 26 l 1
 204.8 26 l 1
 179.2 26 l 1
 179.2 51.5996 l 1
128 205.2 m 1
 128 230.8 l 1
 153.6 230.8 l 1
 179.2 230.8 l 1
 179.2 205.2 l 1
 179.2 179.6 l 1
 153.6 179.6 l 1
 128 179.6 l 1
 128 205.2 l 1
0 154 m 1
 0 410 l 1
 256 410 l 1
 512 410 l 1
 512 154 l 1
 512 -102 l 1
 256 -102 l 1
 0 -102 l 1
 0 154 l 1
436.906 256.4 m 1
 436.906 333.2 l 1
 256.854 333.2 l 1
 76.7998 333.2 l 1
 76.7998 307.6 l 1
 76.7998 282 l 1
 102.4 282 l 1
 128 282 l 1
 128 256.4 l 1
 128 230.8 l 1
 102.4 230.8 l 1
 76.7998 230.8 l 1
 76.7998 205.2 l 1
 76.7998 179.6 l 1
 102.4 179.6 l 1
 128 179.6 l 1
 128 154 l 1
 128 128.4 l 1
 102.4 128.4 l 1
 76.7998 128.4 l 1
 76.7998 102.8 l 1
 76.7998 77.2002 l 1
 102.4 77.2002 l 1
 128 77.2002 l 1
 128 51.5996 l 1
 128 26 l 1
 102.4 26 l 1
 76.7998 26 l 1
 76.7998 -0.453125 l 1
 76.7998 -26.9062 l 1
 102.4 -26.9062 l 1
 128 -26.9062 l 1
 128 -0.453125 l 1
 128 26 l 1
 153.6 26 l 1
 179.2 26 l 1
 179.2 -0.453125 l 1
 179.2 -26.9062 l 1
 204.8 -26.9062 l 1
 230.4 -26.9062 l 1
 230.4 -0.453125 l 1
 230.4 26 l 1
 256 26 l 1
 281.6 26 l 1
 281.6 -0.453125 l 1
 281.6 -26.9062 l 1
 307.2 -26.9062 l 1
 332.8 -26.9062 l 1
 332.8 -0.453125 l 1
 332.8 26 l 1
 358.4 26 l 1
 384 26 l 1
 384 -0.453125 l 1
 384 -26.9062 l 1
 410.453 -26.9062 l 1
 436.906 -26.9062 l 1
 436.906 25.1465 l 1
 436.906 77.2002 l 1
 410.453 77.2002 l 1
 384 77.2002 l 1
 384 128.4 l 1
 384 179.6 l 1
 410.453 179.6 l 1
 436.906 179.6 l 1
 436.906 256.4 l 1
EndSplineSet
EndChar

StartChar: uni30A7
Encoding: 12455 12455 26
Width: 512
VWidth: 0
Flags: H
LayerCount: 2
Back
Fore
SplineSet
0 154 m 1
 0 410 l 1
 256 410 l 1
 512 410 l 1
 512 154 l 1
 512 -102 l 1
 256 -102 l 1
 0 -102 l 1
 0 154 l 1
436.906 256.4 m 1
 436.906 333.2 l 1
 256.854 333.2 l 1
 76.7998 333.2 l 1
 76.7998 307.6 l 1
 76.7998 282 l 1
 102.4 282 l 1
 128 282 l 1
 128 256.4 l 1
 128 230.8 l 1
 102.4 230.8 l 1
 76.7998 230.8 l 1
 76.7998 205.2 l 1
 76.7998 179.6 l 1
 128 179.6 l 1
 179.2 179.6 l 1
 179.2 154 l 1
 179.2 128.4 l 1
 128 128.4 l 1
 76.7998 128.4 l 1
 76.7998 102.8 l 1
 76.7998 77.2002 l 1
 153.6 77.2002 l 1
 230.4 77.2002 l 1
 230.4 51.5996 l 1
 230.4 26 l 1
 204.8 26 l 1
 179.2 26 l 1
 179.2 -0.453125 l 1
 179.2 -26.9062 l 1
 204.8 -26.9062 l 1
 230.4 -26.9062 l 1
 230.4 -0.453125 l 1
 230.4 26 l 1
 256 26 l 1
 281.6 26 l 1
 281.6 -0.453125 l 1
 281.6 -26.9062 l 1
 307.2 -26.9062 l 1
 332.8 -26.9062 l 1
 332.8 25.1465 l 1
 332.8 77.2002 l 1
 358.4 77.2002 l 1
 384 77.2002 l 1
 384 128.4 l 1
 384 179.6 l 1
 410.453 179.6 l 1
 436.906 179.6 l 1
 436.906 256.4 l 1
128 -0.453125 m 1
 128 26 l 1
 102.4 26 l 1
 76.7998 26 l 1
 76.7998 -0.453125 l 1
 76.7998 -26.9062 l 1
 102.4 -26.9062 l 1
 128 -26.9062 l 1
 128 -0.453125 l 1
436.906 -0.453125 m 1
 436.906 26 l 1
 410.453 26 l 1
 384 26 l 1
 384 -0.453125 l 1
 384 -26.9062 l 1
 410.453 -26.9062 l 1
 436.906 -26.9062 l 1
 436.906 -0.453125 l 1
EndSplineSet
EndChar

StartChar: uni3054
Encoding: 12372 12372 27
Width: 512
VWidth: 0
Flags: H
LayerCount: 2
Back
Fore
SplineSet
0 154 m 1
 0 410 l 1
 256 410 l 1
 512 410 l 1
 512 154 l 1
 512 -102 l 1
 256 -102 l 1
 0 -102 l 1
 0 154 l 1
436.906 307.6 m 1
 436.906 333.2 l 1
 256.854 333.2 l 1
 76.7998 333.2 l 1
 76.7998 307.6 l 1
 76.7998 282 l 1
 102.4 282 l 1
 128 282 l 1
 128 256.4 l 1
 128 230.8 l 1
 102.4 230.8 l 1
 76.7998 230.8 l 1
 76.7998 205.2 l 1
 76.7998 179.6 l 1
 102.4 179.6 l 1
 128 179.6 l 1
 128 154 l 1
 128 128.4 l 1
 102.4 128.4 l 1
 76.7998 128.4 l 1
 76.7998 102.8 l 1
 76.7998 77.2002 l 1
 128 77.2002 l 1
 179.2 77.2002 l 1
 179.2 25.1465 l 1
 179.2 -26.9062 l 1
 204.8 -26.9062 l 1
 230.4 -26.9062 l 1
 230.4 -0.453125 l 1
 230.4 26 l 1
 256 26 l 1
 281.6 26 l 1
 281.6 -0.453125 l 1
 281.6 -26.9062 l 1
 307.2 -26.9062 l 1
 332.8 -26.9062 l 1
 332.8 -0.453125 l 1
 332.8 26 l 1
 307.2 26 l 1
 281.6 26 l 1
 281.6 51.5996 l 1
 281.6 77.2002 l 1
 359.253 77.2002 l 1
 436.906 77.2002 l 1
 436.906 128.4 l 1
 436.906 179.6 l 1
 410.453 179.6 l 1
 384 179.6 l 1
 384 230.8 l 1
 384 282 l 1
 410.453 282 l 1
 436.906 282 l 1
 436.906 307.6 l 1
128 -0.453125 m 1
 128 26 l 1
 102.4 26 l 1
 76.7998 26 l 1
 76.7998 -0.453125 l 1
 76.7998 -26.9062 l 1
 102.4 -26.9062 l 1
 128 -26.9062 l 1
 128 -0.453125 l 1
436.906 -0.453125 m 1
 436.906 26 l 1
 410.453 26 l 1
 384 26 l 1
 384 -0.453125 l 1
 384 -26.9062 l 1
 410.453 -26.9062 l 1
 436.906 -26.9062 l 1
 436.906 -0.453125 l 1
EndSplineSet
EndChar

StartChar: uni304B
Encoding: 12363 12363 28
Width: 512
VWidth: 0
Flags: H
LayerCount: 2
Back
Fore
SplineSet
281.6 51.5996 m 1
 281.6 77.2002 l 1
 307.2 77.2002 l 1
 332.8 77.2002 l 1
 332.8 51.5996 l 1
 332.8 26 l 1
 307.2 26 l 1
 281.6 26 l 1
 281.6 51.5996 l 1
179.2 51.5996 m 1
 179.2 77.2002 l 1
 204.8 77.2002 l 1
 230.4 77.2002 l 1
 230.4 51.5996 l 1
 230.4 26 l 1
 204.8 26 l 1
 179.2 26 l 1
 179.2 51.5996 l 1
0 154 m 1
 0 410 l 1
 256 410 l 1
 512 410 l 1
 512 154 l 1
 512 -102 l 1
 256 -102 l 1
 0 -102 l 1
 0 154 l 1
436.906 282 m 1
 436.906 333.2 l 1
 256.854 333.2 l 1
 76.7998 333.2 l 1
 76.7998 307.6 l 1
 76.7998 282 l 1
 102.4 282 l 1
 128 282 l 1
 128 256.4 l 1
 128 230.8 l 1
 102.4 230.8 l 1
 76.7998 230.8 l 1
 76.7998 205.2 l 1
 76.7998 179.6 l 1
 102.4 179.6 l 1
 128 179.6 l 1
 128 154 l 1
 128 128.4 l 1
 102.4 128.4 l 1
 76.7998 128.4 l 1
 76.7998 102.8 l 1
 76.7998 77.2002 l 1
 102.4 77.2002 l 1
 128 77.2002 l 1
 128 51.5996 l 1
 128 26 l 1
 102.4 26 l 1
 76.7998 26 l 1
 76.7998 -0.453125 l 1
 76.7998 -26.9062 l 1
 102.4 -26.9062 l 1
 128 -26.9062 l 1
 128 -0.453125 l 1
 128 26 l 1
 153.6 26 l 1
 179.2 26 l 1
 179.2 -0.453125 l 1
 179.2 -26.9062 l 1
 204.8 -26.9062 l 1
 230.4 -26.9062 l 1
 230.4 -0.453125 l 1
 230.4 26 l 1
 256 26 l 1
 281.6 26 l 1
 281.6 -0.453125 l 1
 281.6 -26.9062 l 1
 307.2 -26.9062 l 1
 332.8 -26.9062 l 1
 332.8 -0.453125 l 1
 332.8 26 l 1
 358.4 26 l 1
 384 26 l 1
 384 -0.453125 l 1
 384 -26.9062 l 1
 410.453 -26.9062 l 1
 436.906 -26.9062 l 1
 436.906 25.1465 l 1
 436.906 77.2002 l 1
 410.453 77.2002 l 1
 384 77.2002 l 1
 384 102.8 l 1
 384 128.4 l 1
 410.453 128.4 l 1
 436.906 128.4 l 1
 436.906 154 l 1
 436.906 179.6 l 1
 410.453 179.6 l 1
 384 179.6 l 1
 384 205.2 l 1
 384 230.8 l 1
 410.453 230.8 l 1
 436.906 230.8 l 1
 436.906 282 l 1
EndSplineSet
EndChar

StartChar: uni3042
Encoding: 12354 12354 29
Width: 512
VWidth: 0
Flags: H
LayerCount: 2
Back
Fore
SplineSet
0 154 m 1
 0 410 l 1
 256 410 l 1
 512 410 l 1
 512 154 l 1
 512 -102 l 1
 256 -102 l 1
 0 -102 l 1
 0 154 l 1
436.906 307.6 m 1
 436.906 333.2 l 1
 256.854 333.2 l 1
 76.7998 333.2 l 1
 76.7998 307.6 l 1
 76.7998 282 l 1
 102.4 282 l 1
 128 282 l 1
 128 256.4 l 1
 128 230.8 l 1
 102.4 230.8 l 1
 76.7998 230.8 l 1
 76.7998 205.2 l 1
 76.7998 179.6 l 1
 102.4 179.6 l 1
 128 179.6 l 1
 128 154 l 1
 128 128.4 l 1
 102.4 128.4 l 1
 76.7998 128.4 l 1
 76.7998 102.8 l 1
 76.7998 77.2002 l 1
 102.4 77.2002 l 1
 128 77.2002 l 1
 128 51.5996 l 1
 128 26 l 1
 102.4 26 l 1
 76.7998 26 l 1
 76.7998 -0.453125 l 1
 76.7998 -26.9062 l 1
 102.4 -26.9062 l 1
 128 -26.9062 l 1
 128 -0.453125 l 1
 128 26 l 1
 153.6 26 l 1
 179.2 26 l 1
 179.2 -0.453125 l 1
 179.2 -26.9062 l 1
 204.8 -26.9062 l 1
 230.4 -26.9062 l 1
 230.4 -0.453125 l 1
 230.4 26 l 1
 256 26 l 1
 281.6 26 l 1
 281.6 -0.453125 l 1
 281.6 -26.9062 l 1
 307.2 -26.9062 l 1
 332.8 -26.9062 l 1
 332.8 25.1465 l 1
 332.8 77.2002 l 1
 358.4 77.2002 l 1
 384 77.2002 l 1
 384 25.1465 l 1
 384 -26.9062 l 1
 410.453 -26.9062 l 1
 436.906 -26.9062 l 1
 436.906 101.946 l 1
 436.906 230.8 l 1
 410.453 230.8 l 1
 384 230.8 l 1
 384 256.4 l 1
 384 282 l 1
 410.453 282 l 1
 436.906 282 l 1
 436.906 307.6 l 1
EndSplineSet
EndChar

StartChar: uni307E
Encoding: 12414 12414 30
Width: 512
VWidth: 0
Flags: H
LayerCount: 2
Back
Fore
SplineSet
0 154 m 1
 0 410 l 1
 256 410 l 1
 512 410 l 1
 512 154 l 1
 512 -102 l 1
 256 -102 l 1
 0 -102 l 1
 0 154 l 1
436.906 307.6 m 1
 436.906 333.2 l 1
 256.854 333.2 l 1
 76.7998 333.2 l 1
 76.7998 307.6 l 1
 76.7998 282 l 1
 102.4 282 l 1
 128 282 l 1
 128 256.4 l 1
 128 230.8 l 1
 102.4 230.8 l 1
 76.7998 230.8 l 1
 76.7998 205.2 l 1
 76.7998 179.6 l 1
 102.4 179.6 l 1
 128 179.6 l 1
 128 154 l 1
 128 128.4 l 1
 102.4 128.4 l 1
 76.7998 128.4 l 1
 76.7998 102.8 l 1
 76.7998 77.2002 l 1
 102.4 77.2002 l 1
 128 77.2002 l 1
 128 102.8 l 1
 128 128.4 l 1
 153.6 128.4 l 1
 179.2 128.4 l 1
 179.2 102.8 l 1
 179.2 77.2002 l 1
 230.4 77.2002 l 1
 281.6 77.2002 l 1
 281.6 25.1465 l 1
 281.6 -26.9062 l 1
 307.2 -26.9062 l 1
 332.8 -26.9062 l 1
 332.8 25.1465 l 1
 332.8 77.2002 l 1
 358.4 77.2002 l 1
 384 77.2002 l 1
 384 179.6 l 1
 384 282 l 1
 410.453 282 l 1
 436.906 282 l 1
 436.906 307.6 l 1
128 -0.453125 m 1
 128 26 l 1
 102.4 26 l 1
 76.7998 26 l 1
 76.7998 -0.453125 l 1
 76.7998 -26.9062 l 1
 102.4 -26.9062 l 1
 128 -26.9062 l 1
 128 -0.453125 l 1
230.4 -0.453125 m 1
 230.4 26 l 1
 204.8 26 l 1
 179.2 26 l 1
 179.2 -0.453125 l 1
 179.2 -26.9062 l 1
 204.8 -26.9062 l 1
 230.4 -26.9062 l 1
 230.4 -0.453125 l 1
436.906 -0.453125 m 1
 436.906 26 l 1
 410.453 26 l 1
 384 26 l 1
 384 -0.453125 l 1
 384 -26.9062 l 1
 410.453 -26.9062 l 1
 436.906 -26.9062 l 1
 436.906 -0.453125 l 1
EndSplineSet
EndChar

StartChar: uni30C9
Encoding: 12489 12489 31
Width: 512
VWidth: 0
Flags: H
LayerCount: 2
Back
Fore
SplineSet
0 154 m 1
 0 410 l 1
 256 410 l 1
 512 410 l 1
 512 154 l 1
 512 -102 l 1
 256 -102 l 1
 0 -102 l 1
 0 154 l 1
436.906 307.6 m 1
 436.906 333.2 l 1
 256.854 333.2 l 1
 76.7998 333.2 l 1
 76.7998 307.6 l 1
 76.7998 282 l 1
 102.4 282 l 1
 128 282 l 1
 128 256.4 l 1
 128 230.8 l 1
 102.4 230.8 l 1
 76.7998 230.8 l 1
 76.7998 205.2 l 1
 76.7998 179.6 l 1
 128 179.6 l 1
 179.2 179.6 l 1
 179.2 128.4 l 1
 179.2 77.2002 l 1
 204.8 77.2002 l 1
 230.4 77.2002 l 1
 230.4 51.5996 l 1
 230.4 26 l 1
 204.8 26 l 1
 179.2 26 l 1
 179.2 -0.453125 l 1
 179.2 -26.9062 l 1
 204.8 -26.9062 l 1
 230.4 -26.9062 l 1
 230.4 -0.453125 l 1
 230.4 26 l 1
 256 26 l 1
 281.6 26 l 1
 281.6 -0.453125 l 1
 281.6 -26.9062 l 1
 307.2 -26.9062 l 1
 332.8 -26.9062 l 1
 332.8 -0.453125 l 1
 332.8 26 l 1
 307.2 26 l 1
 281.6 26 l 1
 281.6 51.5996 l 1
 281.6 77.2002 l 1
 332.8 77.2002 l 1
 384 77.2002 l 1
 384 179.6 l 1
 384 282 l 1
 410.453 282 l 1
 436.906 282 l 1
 436.906 307.6 l 1
128 102.8 m 1
 128 128.4 l 1
 102.4 128.4 l 1
 76.7998 128.4 l 1
 76.7998 102.8 l 1
 76.7998 77.2002 l 1
 102.4 77.2002 l 1
 128 77.2002 l 1
 128 102.8 l 1
128 -0.453125 m 1
 128 26 l 1
 102.4 26 l 1
 76.7998 26 l 1
 76.7998 -0.453125 l 1
 76.7998 -26.9062 l 1
 102.4 -26.9062 l 1
 128 -26.9062 l 1
 128 -0.453125 l 1
436.906 -0.453125 m 1
 436.906 26 l 1
 410.453 26 l 1
 384 26 l 1
 384 -0.453125 l 1
 384 -26.9062 l 1
 410.453 -26.9062 l 1
 436.906 -26.9062 l 1
 436.906 -0.453125 l 1
EndSplineSet
EndChar

StartChar: uni305D
Encoding: 12381 12381 32
Width: 512
VWidth: 0
Flags: H
LayerCount: 2
Back
Fore
SplineSet
0 154 m 1
 0 410 l 1
 256 410 l 1
 512 410 l 1
 512 154 l 1
 512 -102 l 1
 256 -102 l 1
 0 -102 l 1
 0 154 l 1
436.906 307.6 m 1
 436.906 333.2 l 1
 256.854 333.2 l 1
 76.7998 333.2 l 1
 76.7998 307.6 l 1
 76.7998 282 l 1
 102.4 282 l 1
 128 282 l 1
 128 256.4 l 1
 128 230.8 l 1
 102.4 230.8 l 1
 76.7998 230.8 l 1
 76.7998 205.2 l 1
 76.7998 179.6 l 1
 102.4 179.6 l 1
 128 179.6 l 1
 128 154 l 1
 128 128.4 l 1
 102.4 128.4 l 1
 76.7998 128.4 l 1
 76.7998 102.8 l 1
 76.7998 77.2002 l 1
 179.2 77.2002 l 1
 281.6 77.2002 l 1
 281.6 25.1465 l 1
 281.6 -26.9062 l 1
 307.2 -26.9062 l 1
 332.8 -26.9062 l 1
 332.8 -0.453125 l 1
 332.8 26 l 1
 358.4 26 l 1
 384 26 l 1
 384 -0.453125 l 1
 384 -26.9062 l 1
 410.453 -26.9062 l 1
 436.906 -26.9062 l 1
 436.906 -0.453125 l 1
 436.906 26 l 1
 410.453 26 l 1
 384 26 l 1
 384 102.8 l 1
 384 179.6 l 1
 410.453 179.6 l 1
 436.906 179.6 l 1
 436.906 205.2 l 1
 436.906 230.8 l 1
 410.453 230.8 l 1
 384 230.8 l 1
 384 256.4 l 1
 384 282 l 1
 410.453 282 l 1
 436.906 282 l 1
 436.906 307.6 l 1
128 -0.453125 m 1
 128 26 l 1
 102.4 26 l 1
 76.7998 26 l 1
 76.7998 -0.453125 l 1
 76.7998 -26.9062 l 1
 102.4 -26.9062 l 1
 128 -26.9062 l 1
 128 -0.453125 l 1
230.4 -0.453125 m 1
 230.4 26 l 1
 204.8 26 l 1
 179.2 26 l 1
 179.2 -0.453125 l 1
 179.2 -26.9062 l 1
 204.8 -26.9062 l 1
 230.4 -26.9062 l 1
 230.4 -0.453125 l 1
EndSplineSet
EndChar

StartChar: uni30C1
Encoding: 12481 12481 33
Width: 512
VWidth: 0
Flags: H
LayerCount: 2
Back
Fore
SplineSet
0 154 m 1
 0 410 l 1
 256 410 l 1
 512 410 l 1
 512 154 l 1
 512 -102 l 1
 256 -102 l 1
 0 -102 l 1
 0 154 l 1
436.906 307.6 m 1
 436.906 333.2 l 1
 256.854 333.2 l 1
 76.7998 333.2 l 1
 76.7998 307.6 l 1
 76.7998 282 l 1
 102.4 282 l 1
 128 282 l 1
 128 256.4 l 1
 128 230.8 l 1
 102.4 230.8 l 1
 76.7998 230.8 l 1
 76.7998 205.2 l 1
 76.7998 179.6 l 1
 128 179.6 l 1
 179.2 179.6 l 1
 179.2 76.3467 l 1
 179.2 -26.9062 l 1
 204.8 -26.9062 l 1
 230.4 -26.9062 l 1
 230.4 -0.453125 l 1
 230.4 26 l 1
 256 26 l 1
 281.6 26 l 1
 281.6 -0.453125 l 1
 281.6 -26.9062 l 1
 307.2 -26.9062 l 1
 332.8 -26.9062 l 1
 332.8 -0.453125 l 1
 332.8 26 l 1
 307.2 26 l 1
 281.6 26 l 1
 281.6 51.5996 l 1
 281.6 77.2002 l 1
 359.253 77.2002 l 1
 436.906 77.2002 l 1
 436.906 102.8 l 1
 436.906 128.4 l 1
 410.453 128.4 l 1
 384 128.4 l 1
 384 205.2 l 1
 384 282 l 1
 410.453 282 l 1
 436.906 282 l 1
 436.906 307.6 l 1
128 102.8 m 1
 128 128.4 l 1
 102.4 128.4 l 1
 76.7998 128.4 l 1
 76.7998 102.8 l 1
 76.7998 77.2002 l 1
 102.4 77.2002 l 1
 128 77.2002 l 1
 128 102.8 l 1
128 -0.453125 m 1
 128 26 l 1
 102.4 26 l 1
 76.7998 26 l 1
 76.7998 -0.453125 l 1
 76.7998 -26.9062 l 1
 102.4 -26.9062 l 1
 128 -26.9062 l 1
 128 -0.453125 l 1
436.906 -0.453125 m 1
 436.906 26 l 1
 410.453 26 l 1
 384 26 l 1
 384 -0.453125 l 1
 384 -26.9062 l 1
 410.453 -26.9062 l 1
 436.906 -26.9062 l 1
 436.906 -0.453125 l 1
EndSplineSet
EndChar

StartChar: uni304C
Encoding: 12364 12364 34
Width: 512
VWidth: 0
Flags: H
LayerCount: 2
Back
Fore
SplineSet
179.2 51.5996 m 1
 179.2 77.2002 l 1
 204.8 77.2002 l 1
 230.4 77.2002 l 1
 230.4 51.5996 l 1
 230.4 26 l 1
 204.8 26 l 1
 179.2 26 l 1
 179.2 51.5996 l 1
0 154 m 1
 0 410 l 1
 256 410 l 1
 512 410 l 1
 512 154 l 1
 512 -102 l 1
 256 -102 l 1
 0 -102 l 1
 0 154 l 1
436.906 307.6 m 1
 436.906 333.2 l 1
 256.854 333.2 l 1
 76.7998 333.2 l 1
 76.7998 307.6 l 1
 76.7998 282 l 1
 102.4 282 l 1
 128 282 l 1
 128 256.4 l 1
 128 230.8 l 1
 102.4 230.8 l 1
 76.7998 230.8 l 1
 76.7998 205.2 l 1
 76.7998 179.6 l 1
 102.4 179.6 l 1
 128 179.6 l 1
 128 154 l 1
 128 128.4 l 1
 102.4 128.4 l 1
 76.7998 128.4 l 1
 76.7998 102.8 l 1
 76.7998 77.2002 l 1
 102.4 77.2002 l 1
 128 77.2002 l 1
 128 51.5996 l 1
 128 26 l 1
 102.4 26 l 1
 76.7998 26 l 1
 76.7998 -0.453125 l 1
 76.7998 -26.9062 l 1
 102.4 -26.9062 l 1
 128 -26.9062 l 1
 128 -0.453125 l 1
 128 26 l 1
 153.6 26 l 1
 179.2 26 l 1
 179.2 -0.453125 l 1
 179.2 -26.9062 l 1
 204.8 -26.9062 l 1
 230.4 -26.9062 l 1
 230.4 -0.453125 l 1
 230.4 26 l 1
 256 26 l 1
 281.6 26 l 1
 281.6 -0.453125 l 1
 281.6 -26.9062 l 1
 307.2 -26.9062 l 1
 332.8 -26.9062 l 1
 332.8 -0.453125 l 1
 332.8 26 l 1
 307.2 26 l 1
 281.6 26 l 1
 281.6 51.5996 l 1
 281.6 77.2002 l 1
 332.8 77.2002 l 1
 384 77.2002 l 1
 384 25.1465 l 1
 384 -26.9062 l 1
 410.453 -26.9062 l 1
 436.906 -26.9062 l 1
 436.906 25.1465 l 1
 436.906 77.2002 l 1
 410.453 77.2002 l 1
 384 77.2002 l 1
 384 102.8 l 1
 384 128.4 l 1
 410.453 128.4 l 1
 436.906 128.4 l 1
 436.906 154 l 1
 436.906 179.6 l 1
 410.453 179.6 l 1
 384 179.6 l 1
 384 230.8 l 1
 384 282 l 1
 410.453 282 l 1
 436.906 282 l 1
 436.906 307.6 l 1
EndSplineSet
EndChar

StartChar: uni307A
Encoding: 12410 12410 35
Width: 512
VWidth: 0
Flags: H
LayerCount: 2
Back
Fore
SplineSet
0 154 m 1
 0 410 l 1
 256 410 l 1
 512 410 l 1
 512 154 l 1
 512 -102 l 1
 256 -102 l 1
 0 -102 l 1
 0 154 l 1
436.906 307.6 m 1
 436.906 333.2 l 1
 256.854 333.2 l 1
 76.7998 333.2 l 1
 76.7998 307.6 l 1
 76.7998 282 l 1
 102.4 282 l 1
 128 282 l 1
 128 256.4 l 1
 128 230.8 l 1
 102.4 230.8 l 1
 76.7998 230.8 l 1
 76.7998 205.2 l 1
 76.7998 179.6 l 1
 102.4 179.6 l 1
 128 179.6 l 1
 128 154 l 1
 128 128.4 l 1
 102.4 128.4 l 1
 76.7998 128.4 l 1
 76.7998 102.8 l 1
 76.7998 77.2002 l 1
 102.4 77.2002 l 1
 128 77.2002 l 1
 128 102.8 l 1
 128 128.4 l 1
 153.6 128.4 l 1
 179.2 128.4 l 1
 179.2 102.8 l 1
 179.2 77.2002 l 1
 204.8 77.2002 l 1
 230.4 77.2002 l 1
 230.4 51.5996 l 1
 230.4 26 l 1
 204.8 26 l 1
 179.2 26 l 1
 179.2 -0.453125 l 1
 179.2 -26.9062 l 1
 204.8 -26.9062 l 1
 230.4 -26.9062 l 1
 230.4 -0.453125 l 1
 230.4 26 l 1
 256 26 l 1
 281.6 26 l 1
 281.6 -0.453125 l 1
 281.6 -26.9062 l 1
 307.2 -26.9062 l 1
 332.8 -26.9062 l 1
 332.8 25.1465 l 1
 332.8 77.2002 l 1
 358.4 77.2002 l 1
 384 77.2002 l 1
 384 102.8 l 1
 384 128.4 l 1
 410.453 128.4 l 1
 436.906 128.4 l 1
 436.906 154 l 1
 436.906 179.6 l 1
 410.453 179.6 l 1
 384 179.6 l 1
 384 230.8 l 1
 384 282 l 1
 410.453 282 l 1
 436.906 282 l 1
 436.906 307.6 l 1
128 -0.453125 m 1
 128 26 l 1
 102.4 26 l 1
 76.7998 26 l 1
 76.7998 -0.453125 l 1
 76.7998 -26.9062 l 1
 102.4 -26.9062 l 1
 128 -26.9062 l 1
 128 -0.453125 l 1
436.906 -0.453125 m 1
 436.906 26 l 1
 410.453 26 l 1
 384 26 l 1
 384 -0.453125 l 1
 384 -26.9062 l 1
 410.453 -26.9062 l 1
 436.906 -26.9062 l 1
 436.906 -0.453125 l 1
EndSplineSet
EndChar

StartChar: uni3048
Encoding: 12360 12360 36
Width: 512
VWidth: 0
Flags: H
LayerCount: 2
Back
Fore
SplineSet
0 154 m 1
 0 410 l 1
 256 410 l 1
 512 410 l 1
 512 154 l 1
 512 -102 l 1
 256 -102 l 1
 0 -102 l 1
 0 154 l 1
436.906 307.6 m 1
 436.906 333.2 l 1
 256.854 333.2 l 1
 76.7998 333.2 l 1
 76.7998 307.6 l 1
 76.7998 282 l 1
 102.4 282 l 1
 128 282 l 1
 128 256.4 l 1
 128 230.8 l 1
 102.4 230.8 l 1
 76.7998 230.8 l 1
 76.7998 205.2 l 1
 76.7998 179.6 l 1
 102.4 179.6 l 1
 128 179.6 l 1
 128 154 l 1
 128 128.4 l 1
 102.4 128.4 l 1
 76.7998 128.4 l 1
 76.7998 102.8 l 1
 76.7998 77.2002 l 1
 102.4 77.2002 l 1
 128 77.2002 l 1
 128 51.5996 l 1
 128 26 l 1
 102.4 26 l 1
 76.7998 26 l 1
 76.7998 -0.453125 l 1
 76.7998 -26.9062 l 1
 102.4 -26.9062 l 1
 128 -26.9062 l 1
 128 -0.453125 l 1
 128 26 l 1
 153.6 26 l 1
 179.2 26 l 1
 179.2 -0.453125 l 1
 179.2 -26.9062 l 1
 204.8 -26.9062 l 1
 230.4 -26.9062 l 1
 230.4 25.1465 l 1
 230.4 77.2002 l 1
 307.2 77.2002 l 1
 384 77.2002 l 1
 384 25.1465 l 1
 384 -26.9062 l 1
 410.453 -26.9062 l 1
 436.906 -26.9062 l 1
 436.906 50.7471 l 1
 436.906 128.4 l 1
 410.453 128.4 l 1
 384 128.4 l 1
 384 205.2 l 1
 384 282 l 1
 410.453 282 l 1
 436.906 282 l 1
 436.906 307.6 l 1
332.8 -0.453125 m 1
 332.8 26 l 1
 307.2 26 l 1
 281.6 26 l 1
 281.6 -0.453125 l 1
 281.6 -26.9062 l 1
 307.2 -26.9062 l 1
 332.8 -26.9062 l 1
 332.8 -0.453125 l 1
EndSplineSet
EndChar

StartChar: uni30CD
Encoding: 12493 12493 37
Width: 512
VWidth: 0
Flags: H
LayerCount: 2
Back
Fore
SplineSet
0 154 m 1
 0 410 l 1
 256 410 l 1
 512 410 l 1
 512 154 l 1
 512 -102 l 1
 256 -102 l 1
 0 -102 l 1
 0 154 l 1
436.906 307.6 m 1
 436.906 333.2 l 1
 256.854 333.2 l 1
 76.7998 333.2 l 1
 76.7998 307.6 l 1
 76.7998 282 l 1
 102.4 282 l 1
 128 282 l 1
 128 256.4 l 1
 128 230.8 l 1
 102.4 230.8 l 1
 76.7998 230.8 l 1
 76.7998 205.2 l 1
 76.7998 179.6 l 1
 128 179.6 l 1
 179.2 179.6 l 1
 179.2 128.4 l 1
 179.2 77.2002 l 1
 281.6 77.2002 l 1
 384 77.2002 l 1
 384 25.1465 l 1
 384 -26.9062 l 1
 410.453 -26.9062 l 1
 436.906 -26.9062 l 1
 436.906 76.3467 l 1
 436.906 179.6 l 1
 410.453 179.6 l 1
 384 179.6 l 1
 384 230.8 l 1
 384 282 l 1
 410.453 282 l 1
 436.906 282 l 1
 436.906 307.6 l 1
128 102.8 m 1
 128 128.4 l 1
 102.4 128.4 l 1
 76.7998 128.4 l 1
 76.7998 102.8 l 1
 76.7998 77.2002 l 1
 102.4 77.2002 l 1
 128 77.2002 l 1
 128 102.8 l 1
128 -0.453125 m 1
 128 26 l 1
 102.4 26 l 1
 76.7998 26 l 1
 76.7998 -0.453125 l 1
 76.7998 -26.9062 l 1
 102.4 -26.9062 l 1
 128 -26.9062 l 1
 128 -0.453125 l 1
230.4 -0.453125 m 1
 230.4 26 l 1
 204.8 26 l 1
 179.2 26 l 1
 179.2 -0.453125 l 1
 179.2 -26.9062 l 1
 204.8 -26.9062 l 1
 230.4 -26.9062 l 1
 230.4 -0.453125 l 1
332.8 -0.453125 m 1
 332.8 26 l 1
 307.2 26 l 1
 281.6 26 l 1
 281.6 -0.453125 l 1
 281.6 -26.9062 l 1
 307.2 -26.9062 l 1
 332.8 -26.9062 l 1
 332.8 -0.453125 l 1
EndSplineSet
EndChar

StartChar: uni30F3
Encoding: 12531 12531 38
Width: 512
VWidth: 0
Flags: H
LayerCount: 2
Back
Fore
SplineSet
128 102.8 m 1
 128 128.4 l 1
 153.6 128.4 l 1
 179.2 128.4 l 1
 179.2 102.8 l 1
 179.2 77.2002 l 1
 153.6 77.2002 l 1
 128 77.2002 l 1
 128 102.8 l 1
128 205.2 m 1
 128 230.8 l 1
 153.6 230.8 l 1
 179.2 230.8 l 1
 179.2 205.2 l 1
 179.2 179.6 l 1
 153.6 179.6 l 1
 128 179.6 l 1
 128 205.2 l 1
0 154 m 1
 0 410 l 1
 256 410 l 1
 512 410 l 1
 512 154 l 1
 512 -102 l 1
 256 -102 l 1
 0 -102 l 1
 0 154 l 1
436.906 282 m 1
 436.906 333.2 l 1
 256.854 333.2 l 1
 76.7998 333.2 l 1
 76.7998 307.6 l 1
 76.7998 282 l 1
 102.4 282 l 1
 128 282 l 1
 128 256.4 l 1
 128 230.8 l 1
 102.4 230.8 l 1
 76.7998 230.8 l 1
 76.7998 205.2 l 1
 76.7998 179.6 l 1
 102.4 179.6 l 1
 128 179.6 l 1
 128 154 l 1
 128 128.4 l 1
 102.4 128.4 l 1
 76.7998 128.4 l 1
 76.7998 102.8 l 1
 76.7998 77.2002 l 1
 102.4 77.2002 l 1
 128 77.2002 l 1
 128 51.5996 l 1
 128 26 l 1
 102.4 26 l 1
 76.7998 26 l 1
 76.7998 -0.453125 l 1
 76.7998 -26.9062 l 1
 102.4 -26.9062 l 1
 128 -26.9062 l 1
 128 -0.453125 l 1
 128 26 l 1
 153.6 26 l 1
 179.2 26 l 1
 179.2 -0.453125 l 1
 179.2 -26.9062 l 1
 204.8 -26.9062 l 1
 230.4 -26.9062 l 1
 230.4 25.1465 l 1
 230.4 77.2002 l 1
 256 77.2002 l 1
 281.6 77.2002 l 1
 281.6 25.1465 l 1
 281.6 -26.9062 l 1
 307.2 -26.9062 l 1
 332.8 -26.9062 l 1
 332.8 25.1465 l 1
 332.8 77.2002 l 1
 358.4 77.2002 l 1
 384 77.2002 l 1
 384 25.1465 l 1
 384 -26.9062 l 1
 410.453 -26.9062 l 1
 436.906 -26.9062 l 1
 436.906 25.1465 l 1
 436.906 77.2002 l 1
 410.453 77.2002 l 1
 384 77.2002 l 1
 384 102.8 l 1
 384 128.4 l 1
 410.453 128.4 l 1
 436.906 128.4 l 1
 436.906 154 l 1
 436.906 179.6 l 1
 410.453 179.6 l 1
 384 179.6 l 1
 384 205.2 l 1
 384 230.8 l 1
 410.453 230.8 l 1
 436.906 230.8 l 1
 436.906 282 l 1
EndSplineSet
EndChar

StartChar: uni306D
Encoding: 12397 12397 39
Width: 512
VWidth: 0
Flags: H
LayerCount: 2
Back
Fore
SplineSet
128 102.8 m 1
 128 128.4 l 1
 153.6 128.4 l 1
 179.2 128.4 l 1
 179.2 102.8 l 1
 179.2 77.2002 l 1
 153.6 77.2002 l 1
 128 77.2002 l 1
 128 102.8 l 1
0 154 m 1
 0 410 l 1
 256 410 l 1
 512 410 l 1
 512 154 l 1
 512 -102 l 1
 256 -102 l 1
 0 -102 l 1
 0 154 l 1
436.906 307.6 m 1
 436.906 333.2 l 1
 256.854 333.2 l 1
 76.7998 333.2 l 1
 76.7998 307.6 l 1
 76.7998 282 l 1
 102.4 282 l 1
 128 282 l 1
 128 256.4 l 1
 128 230.8 l 1
 102.4 230.8 l 1
 76.7998 230.8 l 1
 76.7998 205.2 l 1
 76.7998 179.6 l 1
 102.4 179.6 l 1
 128 179.6 l 1
 128 154 l 1
 128 128.4 l 1
 102.4 128.4 l 1
 76.7998 128.4 l 1
 76.7998 102.8 l 1
 76.7998 77.2002 l 1
 102.4 77.2002 l 1
 128 77.2002 l 1
 128 51.5996 l 1
 128 26 l 1
 102.4 26 l 1
 76.7998 26 l 1
 76.7998 -0.453125 l 1
 76.7998 -26.9062 l 1
 102.4 -26.9062 l 1
 128 -26.9062 l 1
 128 -0.453125 l 1
 128 26 l 1
 153.6 26 l 1
 179.2 26 l 1
 179.2 -0.453125 l 1
 179.2 -26.9062 l 1
 204.8 -26.9062 l 1
 230.4 -26.9062 l 1
 230.4 -0.453125 l 1
 230.4 26 l 1
 204.8 26 l 1
 179.2 26 l 1
 179.2 51.5996 l 1
 179.2 77.2002 l 1
 230.4 77.2002 l 1
 281.6 77.2002 l 1
 281.6 25.1465 l 1
 281.6 -26.9062 l 1
 307.2 -26.9062 l 1
 332.8 -26.9062 l 1
 332.8 -0.453125 l 1
 332.8 26 l 1
 358.4 26 l 1
 384 26 l 1
 384 -0.453125 l 1
 384 -26.9062 l 1
 410.453 -26.9062 l 1
 436.906 -26.9062 l 1
 436.906 25.1465 l 1
 436.906 77.2002 l 1
 410.453 77.2002 l 1
 384 77.2002 l 1
 384 128.4 l 1
 384 179.6 l 1
 410.453 179.6 l 1
 436.906 179.6 l 1
 436.906 205.2 l 1
 436.906 230.8 l 1
 410.453 230.8 l 1
 384 230.8 l 1
 384 256.4 l 1
 384 282 l 1
 410.453 282 l 1
 436.906 282 l 1
 436.906 307.6 l 1
EndSplineSet
EndChar

StartChar: uni3051
Encoding: 12369 12369 40
Width: 512
VWidth: 0
Flags: H
LayerCount: 2
Back
Fore
SplineSet
0 154 m 1
 0 410 l 1
 256 410 l 1
 512 410 l 1
 512 154 l 1
 512 -102 l 1
 256 -102 l 1
 0 -102 l 1
 0 154 l 1
436.906 205.2 m 1
 436.906 333.2 l 1
 256.854 333.2 l 1
 76.7998 333.2 l 1
 76.7998 307.6 l 1
 76.7998 282 l 1
 102.4 282 l 1
 128 282 l 1
 128 256.4 l 1
 128 230.8 l 1
 102.4 230.8 l 1
 76.7998 230.8 l 1
 76.7998 205.2 l 1
 76.7998 179.6 l 1
 102.4 179.6 l 1
 128 179.6 l 1
 128 154 l 1
 128 128.4 l 1
 102.4 128.4 l 1
 76.7998 128.4 l 1
 76.7998 102.8 l 1
 76.7998 77.2002 l 1
 128 77.2002 l 1
 179.2 77.2002 l 1
 179.2 25.1465 l 1
 179.2 -26.9062 l 1
 204.8 -26.9062 l 1
 230.4 -26.9062 l 1
 230.4 -0.453125 l 1
 230.4 26 l 1
 256 26 l 1
 281.6 26 l 1
 281.6 -0.453125 l 1
 281.6 -26.9062 l 1
 307.2 -26.9062 l 1
 332.8 -26.9062 l 1
 332.8 -0.453125 l 1
 332.8 26 l 1
 358.4 26 l 1
 384 26 l 1
 384 -0.453125 l 1
 384 -26.9062 l 1
 410.453 -26.9062 l 1
 436.906 -26.9062 l 1
 436.906 -0.453125 l 1
 436.906 26 l 1
 410.453 26 l 1
 384 26 l 1
 384 51.5996 l 1
 384 77.2002 l 1
 410.453 77.2002 l 1
 436.906 77.2002 l 1
 436.906 205.2 l 1
128 -0.453125 m 1
 128 26 l 1
 102.4 26 l 1
 76.7998 26 l 1
 76.7998 -0.453125 l 1
 76.7998 -26.9062 l 1
 102.4 -26.9062 l 1
 128 -26.9062 l 1
 128 -0.453125 l 1
EndSplineSet
EndChar

StartChar: uni3044
Encoding: 12356 12356 41
Width: 512
VWidth: 0
Flags: H
LayerCount: 2
Back
Fore
SplineSet
0 154 m 1
 0 410 l 1
 256 410 l 1
 512 410 l 1
 512 154 l 1
 512 -102 l 1
 256 -102 l 1
 0 -102 l 1
 0 154 l 1
436.906 307.6 m 1
 436.906 333.2 l 1
 256.854 333.2 l 1
 76.7998 333.2 l 1
 76.7998 307.6 l 1
 76.7998 282 l 1
 102.4 282 l 1
 128 282 l 1
 128 256.4 l 1
 128 230.8 l 1
 102.4 230.8 l 1
 76.7998 230.8 l 1
 76.7998 205.2 l 1
 76.7998 179.6 l 1
 102.4 179.6 l 1
 128 179.6 l 1
 128 154 l 1
 128 128.4 l 1
 102.4 128.4 l 1
 76.7998 128.4 l 1
 76.7998 102.8 l 1
 76.7998 77.2002 l 1
 102.4 77.2002 l 1
 128 77.2002 l 1
 128 51.5996 l 1
 128 26 l 1
 102.4 26 l 1
 76.7998 26 l 1
 76.7998 -0.453125 l 1
 76.7998 -26.9062 l 1
 102.4 -26.9062 l 1
 128 -26.9062 l 1
 128 -0.453125 l 1
 128 26 l 1
 153.6 26 l 1
 179.2 26 l 1
 179.2 -0.453125 l 1
 179.2 -26.9062 l 1
 204.8 -26.9062 l 1
 230.4 -26.9062 l 1
 230.4 -0.453125 l 1
 230.4 26 l 1
 256 26 l 1
 281.6 26 l 1
 281.6 -0.453125 l 1
 281.6 -26.9062 l 1
 307.2 -26.9062 l 1
 332.8 -26.9062 l 1
 332.8 -0.453125 l 1
 332.8 26 l 1
 307.2 26 l 1
 281.6 26 l 1
 281.6 51.5996 l 1
 281.6 77.2002 l 1
 332.8 77.2002 l 1
 384 77.2002 l 1
 384 25.1465 l 1
 384 -26.9062 l 1
 410.453 -26.9062 l 1
 436.906 -26.9062 l 1
 436.906 76.3467 l 1
 436.906 179.6 l 1
 410.453 179.6 l 1
 384 179.6 l 1
 384 230.8 l 1
 384 282 l 1
 410.453 282 l 1
 436.906 282 l 1
 436.906 307.6 l 1
EndSplineSet
EndChar

StartChar: uni308B
Encoding: 12427 12427 42
Width: 512
VWidth: 0
Flags: H
LayerCount: 2
Back
Fore
SplineSet
281.6 51.5996 m 1
 281.6 77.2002 l 1
 307.2 77.2002 l 1
 332.8 77.2002 l 1
 332.8 51.5996 l 1
 332.8 26 l 1
 307.2 26 l 1
 281.6 26 l 1
 281.6 51.5996 l 1
179.2 51.5996 m 1
 179.2 77.2002 l 1
 204.8 77.2002 l 1
 230.4 77.2002 l 1
 230.4 51.5996 l 1
 230.4 26 l 1
 204.8 26 l 1
 179.2 26 l 1
 179.2 51.5996 l 1
0 154 m 1
 0 410 l 1
 256 410 l 1
 512 410 l 1
 512 154 l 1
 512 -102 l 1
 256 -102 l 1
 0 -102 l 1
 0 154 l 1
436.906 256.4 m 1
 436.906 333.2 l 1
 256.854 333.2 l 1
 76.7998 333.2 l 1
 76.7998 307.6 l 1
 76.7998 282 l 1
 102.4 282 l 1
 128 282 l 1
 128 256.4 l 1
 128 230.8 l 1
 102.4 230.8 l 1
 76.7998 230.8 l 1
 76.7998 205.2 l 1
 76.7998 179.6 l 1
 128 179.6 l 1
 179.2 179.6 l 1
 179.2 154 l 1
 179.2 128.4 l 1
 128 128.4 l 1
 76.7998 128.4 l 1
 76.7998 102.8 l 1
 76.7998 77.2002 l 1
 102.4 77.2002 l 1
 128 77.2002 l 1
 128 51.5996 l 1
 128 26 l 1
 102.4 26 l 1
 76.7998 26 l 1
 76.7998 -0.453125 l 1
 76.7998 -26.9062 l 1
 102.4 -26.9062 l 1
 128 -26.9062 l 1
 128 -0.453125 l 1
 128 26 l 1
 153.6 26 l 1
 179.2 26 l 1
 179.2 -0.453125 l 1
 179.2 -26.9062 l 1
 204.8 -26.9062 l 1
 230.4 -26.9062 l 1
 230.4 -0.453125 l 1
 230.4 26 l 1
 256 26 l 1
 281.6 26 l 1
 281.6 -0.453125 l 1
 281.6 -26.9062 l 1
 307.2 -26.9062 l 1
 332.8 -26.9062 l 1
 332.8 -0.453125 l 1
 332.8 26 l 1
 358.4 26 l 1
 384 26 l 1
 384 -0.453125 l 1
 384 -26.9062 l 1
 410.453 -26.9062 l 1
 436.906 -26.9062 l 1
 436.906 25.1465 l 1
 436.906 77.2002 l 1
 410.453 77.2002 l 1
 384 77.2002 l 1
 384 128.4 l 1
 384 179.6 l 1
 410.453 179.6 l 1
 436.906 179.6 l 1
 436.906 256.4 l 1
EndSplineSet
EndChar

StartChar: uni30F5
Encoding: 12533 12533 43
Width: 512
VWidth: 0
Flags: H
LayerCount: 2
Back
Fore
SplineSet
128 102.8 m 1
 128 128.4 l 1
 153.6 128.4 l 1
 179.2 128.4 l 1
 179.2 102.8 l 1
 179.2 77.2002 l 1
 153.6 77.2002 l 1
 128 77.2002 l 1
 128 102.8 l 1
128 205.2 m 1
 128 230.8 l 1
 153.6 230.8 l 1
 179.2 230.8 l 1
 179.2 205.2 l 1
 179.2 179.6 l 1
 153.6 179.6 l 1
 128 179.6 l 1
 128 205.2 l 1
0 154 m 1
 0 410 l 1
 256 410 l 1
 512 410 l 1
 512 154 l 1
 512 -102 l 1
 256 -102 l 1
 0 -102 l 1
 0 154 l 1
436.906 256.4 m 1
 436.906 333.2 l 1
 256.854 333.2 l 1
 76.7998 333.2 l 1
 76.7998 307.6 l 1
 76.7998 282 l 1
 102.4 282 l 1
 128 282 l 1
 128 256.4 l 1
 128 230.8 l 1
 102.4 230.8 l 1
 76.7998 230.8 l 1
 76.7998 205.2 l 1
 76.7998 179.6 l 1
 102.4 179.6 l 1
 128 179.6 l 1
 128 154 l 1
 128 128.4 l 1
 102.4 128.4 l 1
 76.7998 128.4 l 1
 76.7998 102.8 l 1
 76.7998 77.2002 l 1
 102.4 77.2002 l 1
 128 77.2002 l 1
 128 51.5996 l 1
 128 26 l 1
 102.4 26 l 1
 76.7998 26 l 1
 76.7998 -0.453125 l 1
 76.7998 -26.9062 l 1
 102.4 -26.9062 l 1
 128 -26.9062 l 1
 128 -0.453125 l 1
 128 26 l 1
 153.6 26 l 1
 179.2 26 l 1
 179.2 -0.453125 l 1
 179.2 -26.9062 l 1
 204.8 -26.9062 l 1
 230.4 -26.9062 l 1
 230.4 25.1465 l 1
 230.4 77.2002 l 1
 307.2 77.2002 l 1
 384 77.2002 l 1
 384 25.1465 l 1
 384 -26.9062 l 1
 410.453 -26.9062 l 1
 436.906 -26.9062 l 1
 436.906 25.1465 l 1
 436.906 77.2002 l 1
 410.453 77.2002 l 1
 384 77.2002 l 1
 384 128.4 l 1
 384 179.6 l 1
 410.453 179.6 l 1
 436.906 179.6 l 1
 436.906 256.4 l 1
332.8 -0.453125 m 1
 332.8 26 l 1
 307.2 26 l 1
 281.6 26 l 1
 281.6 -0.453125 l 1
 281.6 -26.9062 l 1
 307.2 -26.9062 l 1
 332.8 -26.9062 l 1
 332.8 -0.453125 l 1
EndSplineSet
EndChar

StartChar: uni30C6
Encoding: 12486 12486 44
Width: 512
VWidth: 0
Flags: H
LayerCount: 2
Back
Fore
SplineSet
0 154 m 1
 0 410 l 1
 256 410 l 1
 512 410 l 1
 512 154 l 1
 512 -102 l 1
 256 -102 l 1
 0 -102 l 1
 0 154 l 1
436.906 256.4 m 1
 436.906 333.2 l 1
 256.854 333.2 l 1
 76.7998 333.2 l 1
 76.7998 307.6 l 1
 76.7998 282 l 1
 102.4 282 l 1
 128 282 l 1
 128 256.4 l 1
 128 230.8 l 1
 102.4 230.8 l 1
 76.7998 230.8 l 1
 76.7998 205.2 l 1
 76.7998 179.6 l 1
 128 179.6 l 1
 179.2 179.6 l 1
 179.2 128.4 l 1
 179.2 77.2002 l 1
 204.8 77.2002 l 1
 230.4 77.2002 l 1
 230.4 51.5996 l 1
 230.4 26 l 1
 204.8 26 l 1
 179.2 26 l 1
 179.2 -0.453125 l 1
 179.2 -26.9062 l 1
 204.8 -26.9062 l 1
 230.4 -26.9062 l 1
 230.4 -0.453125 l 1
 230.4 26 l 1
 256 26 l 1
 281.6 26 l 1
 281.6 -0.453125 l 1
 281.6 -26.9062 l 1
 307.2 -26.9062 l 1
 332.8 -26.9062 l 1
 332.8 -0.453125 l 1
 332.8 26 l 1
 358.4 26 l 1
 384 26 l 1
 384 -0.453125 l 1
 384 -26.9062 l 1
 410.453 -26.9062 l 1
 436.906 -26.9062 l 1
 436.906 -0.453125 l 1
 436.906 26 l 1
 410.453 26 l 1
 384 26 l 1
 384 102.8 l 1
 384 179.6 l 1
 410.453 179.6 l 1
 436.906 179.6 l 1
 436.906 256.4 l 1
128 102.8 m 1
 128 128.4 l 1
 102.4 128.4 l 1
 76.7998 128.4 l 1
 76.7998 102.8 l 1
 76.7998 77.2002 l 1
 102.4 77.2002 l 1
 128 77.2002 l 1
 128 102.8 l 1
128 -0.453125 m 1
 128 26 l 1
 102.4 26 l 1
 76.7998 26 l 1
 76.7998 -0.453125 l 1
 76.7998 -26.9062 l 1
 102.4 -26.9062 l 1
 128 -26.9062 l 1
 128 -0.453125 l 1
EndSplineSet
EndChar

StartChar: uni3075
Encoding: 12405 12405 45
Width: 512
VWidth: 0
Flags: H
LayerCount: 2
Back
Fore
SplineSet
0 154 m 1
 0 410 l 1
 256 410 l 1
 512 410 l 1
 512 154 l 1
 512 -102 l 1
 256 -102 l 1
 0 -102 l 1
 0 154 l 1
436.906 282 m 1
 436.906 333.2 l 1
 256.854 333.2 l 1
 76.7998 333.2 l 1
 76.7998 307.6 l 1
 76.7998 282 l 1
 102.4 282 l 1
 128 282 l 1
 128 256.4 l 1
 128 230.8 l 1
 102.4 230.8 l 1
 76.7998 230.8 l 1
 76.7998 205.2 l 1
 76.7998 179.6 l 1
 102.4 179.6 l 1
 128 179.6 l 1
 128 154 l 1
 128 128.4 l 1
 102.4 128.4 l 1
 76.7998 128.4 l 1
 76.7998 102.8 l 1
 76.7998 77.2002 l 1
 102.4 77.2002 l 1
 128 77.2002 l 1
 128 102.8 l 1
 128 128.4 l 1
 153.6 128.4 l 1
 179.2 128.4 l 1
 179.2 50.7471 l 1
 179.2 -26.9062 l 1
 204.8 -26.9062 l 1
 230.4 -26.9062 l 1
 230.4 25.1465 l 1
 230.4 77.2002 l 1
 256 77.2002 l 1
 281.6 77.2002 l 1
 281.6 25.1465 l 1
 281.6 -26.9062 l 1
 307.2 -26.9062 l 1
 332.8 -26.9062 l 1
 332.8 -0.453125 l 1
 332.8 26 l 1
 358.4 26 l 1
 384 26 l 1
 384 -0.453125 l 1
 384 -26.9062 l 1
 410.453 -26.9062 l 1
 436.906 -26.9062 l 1
 436.906 -0.453125 l 1
 436.906 26 l 1
 410.453 26 l 1
 384 26 l 1
 384 51.5996 l 1
 384 77.2002 l 1
 410.453 77.2002 l 1
 436.906 77.2002 l 1
 436.906 102.8 l 1
 436.906 128.4 l 1
 410.453 128.4 l 1
 384 128.4 l 1
 384 179.6 l 1
 384 230.8 l 1
 410.453 230.8 l 1
 436.906 230.8 l 1
 436.906 282 l 1
128 -0.453125 m 1
 128 26 l 1
 102.4 26 l 1
 76.7998 26 l 1
 76.7998 -0.453125 l 1
 76.7998 -26.9062 l 1
 102.4 -26.9062 l 1
 128 -26.9062 l 1
 128 -0.453125 l 1
EndSplineSet
EndChar

StartChar: uni30B4
Encoding: 12468 12468 46
Width: 512
VWidth: 0
Flags: H
LayerCount: 2
Back
Fore
SplineSet
0 154 m 1
 0 410 l 1
 256 410 l 1
 512 410 l 1
 512 154 l 1
 512 -102 l 1
 256 -102 l 1
 0 -102 l 1
 0 154 l 1
436.906 307.6 m 1
 436.906 333.2 l 1
 256.854 333.2 l 1
 76.7998 333.2 l 1
 76.7998 307.6 l 1
 76.7998 282 l 1
 102.4 282 l 1
 128 282 l 1
 128 256.4 l 1
 128 230.8 l 1
 102.4 230.8 l 1
 76.7998 230.8 l 1
 76.7998 205.2 l 1
 76.7998 179.6 l 1
 128 179.6 l 1
 179.2 179.6 l 1
 179.2 128.4 l 1
 179.2 77.2002 l 1
 153.6 77.2002 l 1
 128 77.2002 l 1
 128 102.8 l 1
 128 128.4 l 1
 102.4 128.4 l 1
 76.7998 128.4 l 1
 76.7998 102.8 l 1
 76.7998 77.2002 l 1
 102.4 77.2002 l 1
 128 77.2002 l 1
 128 51.5996 l 1
 128 26 l 1
 102.4 26 l 1
 76.7998 26 l 1
 76.7998 -0.453125 l 1
 76.7998 -26.9062 l 1
 102.4 -26.9062 l 1
 128 -26.9062 l 1
 128 -0.453125 l 1
 128 26 l 1
 153.6 26 l 1
 179.2 26 l 1
 179.2 -0.453125 l 1
 179.2 -26.9062 l 1
 204.8 -26.9062 l 1
 230.4 -26.9062 l 1
 230.4 25.1465 l 1
 230.4 77.2002 l 1
 281.6 77.2002 l 1
 332.8 77.2002 l 1
 332.8 51.5996 l 1
 332.8 26 l 1
 307.2 26 l 1
 281.6 26 l 1
 281.6 -0.453125 l 1
 281.6 -26.9062 l 1
 307.2 -26.9062 l 1
 332.8 -26.9062 l 1
 332.8 -0.453125 l 1
 332.8 26 l 1
 358.4 26 l 1
 384 26 l 1
 384 -0.453125 l 1
 384 -26.9062 l 1
 410.453 -26.9062 l 1
 436.906 -26.9062 l 1
 436.906 25.1465 l 1
 436.906 77.2002 l 1
 410.453 77.2002 l 1
 384 77.2002 l 1
 384 102.8 l 1
 384 128.4 l 1
 410.453 128.4 l 1
 436.906 128.4 l 1
 436.906 179.6 l 1
 436.906 230.8 l 1
 410.453 230.8 l 1
 384 230.8 l 1
 384 256.4 l 1
 384 282 l 1
 410.453 282 l 1
 436.906 282 l 1
 436.906 307.6 l 1
EndSplineSet
EndChar

StartChar: uni305E
Encoding: 12382 12382 47
Width: 512
VWidth: 0
Flags: H
LayerCount: 2
Back
Fore
SplineSet
0 154 m 1
 0 410 l 1
 256 410 l 1
 512 410 l 1
 512 154 l 1
 512 -102 l 1
 256 -102 l 1
 0 -102 l 1
 0 154 l 1
436.906 282 m 1
 436.906 333.2 l 1
 256.854 333.2 l 1
 76.7998 333.2 l 1
 76.7998 307.6 l 1
 76.7998 282 l 1
 102.4 282 l 1
 128 282 l 1
 128 256.4 l 1
 128 230.8 l 1
 102.4 230.8 l 1
 76.7998 230.8 l 1
 76.7998 205.2 l 1
 76.7998 179.6 l 1
 102.4 179.6 l 1
 128 179.6 l 1
 128 154 l 1
 128 128.4 l 1
 102.4 128.4 l 1
 76.7998 128.4 l 1
 76.7998 102.8 l 1
 76.7998 77.2002 l 1
 179.2 77.2002 l 1
 281.6 77.2002 l 1
 281.6 25.1465 l 1
 281.6 -26.9062 l 1
 307.2 -26.9062 l 1
 332.8 -26.9062 l 1
 332.8 25.1465 l 1
 332.8 77.2002 l 1
 358.4 77.2002 l 1
 384 77.2002 l 1
 384 154 l 1
 384 230.8 l 1
 410.453 230.8 l 1
 436.906 230.8 l 1
 436.906 282 l 1
128 -0.453125 m 1
 128 26 l 1
 102.4 26 l 1
 76.7998 26 l 1
 76.7998 -0.453125 l 1
 76.7998 -26.9062 l 1
 102.4 -26.9062 l 1
 128 -26.9062 l 1
 128 -0.453125 l 1
230.4 -0.453125 m 1
 230.4 26 l 1
 204.8 26 l 1
 179.2 26 l 1
 179.2 -0.453125 l 1
 179.2 -26.9062 l 1
 204.8 -26.9062 l 1
 230.4 -26.9062 l 1
 230.4 -0.453125 l 1
436.906 -0.453125 m 1
 436.906 26 l 1
 410.453 26 l 1
 384 26 l 1
 384 -0.453125 l 1
 384 -26.9062 l 1
 410.453 -26.9062 l 1
 436.906 -26.9062 l 1
 436.906 -0.453125 l 1
EndSplineSet
EndChar

StartChar: uni30C8
Encoding: 12488 12488 48
Width: 512
VWidth: 0
Flags: H
LayerCount: 2
Back
Fore
SplineSet
281.6 51.5996 m 1
 281.6 77.2002 l 1
 307.2 77.2002 l 1
 332.8 77.2002 l 1
 332.8 51.5996 l 1
 332.8 26 l 1
 307.2 26 l 1
 281.6 26 l 1
 281.6 51.5996 l 1
0 154 m 1
 0 410 l 1
 256 410 l 1
 512 410 l 1
 512 154 l 1
 512 -102 l 1
 256 -102 l 1
 0 -102 l 1
 0 154 l 1
436.906 282 m 1
 436.906 333.2 l 1
 256.854 333.2 l 1
 76.7998 333.2 l 1
 76.7998 307.6 l 1
 76.7998 282 l 1
 102.4 282 l 1
 128 282 l 1
 128 256.4 l 1
 128 230.8 l 1
 102.4 230.8 l 1
 76.7998 230.8 l 1
 76.7998 205.2 l 1
 76.7998 179.6 l 1
 128 179.6 l 1
 179.2 179.6 l 1
 179.2 128.4 l 1
 179.2 77.2002 l 1
 204.8 77.2002 l 1
 230.4 77.2002 l 1
 230.4 51.5996 l 1
 230.4 26 l 1
 204.8 26 l 1
 179.2 26 l 1
 179.2 -0.453125 l 1
 179.2 -26.9062 l 1
 204.8 -26.9062 l 1
 230.4 -26.9062 l 1
 230.4 -0.453125 l 1
 230.4 26 l 1
 256 26 l 1
 281.6 26 l 1
 281.6 -0.453125 l 1
 281.6 -26.9062 l 1
 307.2 -26.9062 l 1
 332.8 -26.9062 l 1
 332.8 -0.453125 l 1
 332.8 26 l 1
 358.4 26 l 1
 384 26 l 1
 384 -0.453125 l 1
 384 -26.9062 l 1
 410.453 -26.9062 l 1
 436.906 -26.9062 l 1
 436.906 -0.453125 l 1
 436.906 26 l 1
 410.453 26 l 1
 384 26 l 1
 384 128.4 l 1
 384 230.8 l 1
 410.453 230.8 l 1
 436.906 230.8 l 1
 436.906 282 l 1
128 102.8 m 1
 128 128.4 l 1
 102.4 128.4 l 1
 76.7998 128.4 l 1
 76.7998 102.8 l 1
 76.7998 77.2002 l 1
 102.4 77.2002 l 1
 128 77.2002 l 1
 128 102.8 l 1
128 -0.453125 m 1
 128 26 l 1
 102.4 26 l 1
 76.7998 26 l 1
 76.7998 -0.453125 l 1
 76.7998 -26.9062 l 1
 102.4 -26.9062 l 1
 128 -26.9062 l 1
 128 -0.453125 l 1
EndSplineSet
EndChar

StartChar: uni3092
Encoding: 12434 12434 49
Width: 512
VWidth: 0
Flags: H
LayerCount: 2
Back
Fore
SplineSet
0 154 m 1
 0 410 l 1
 256 410 l 1
 512 410 l 1
 512 154 l 1
 512 -102 l 1
 256 -102 l 1
 0 -102 l 1
 0 154 l 1
436.906 307.6 m 1
 436.906 333.2 l 1
 256.854 333.2 l 1
 76.7998 333.2 l 1
 76.7998 307.6 l 1
 76.7998 282 l 1
 102.4 282 l 1
 128 282 l 1
 128 256.4 l 1
 128 230.8 l 1
 102.4 230.8 l 1
 76.7998 230.8 l 1
 76.7998 205.2 l 1
 76.7998 179.6 l 1
 128 179.6 l 1
 179.2 179.6 l 1
 179.2 154 l 1
 179.2 128.4 l 1
 128 128.4 l 1
 76.7998 128.4 l 1
 76.7998 102.8 l 1
 76.7998 77.2002 l 1
 128 77.2002 l 1
 179.2 77.2002 l 1
 179.2 25.1465 l 1
 179.2 -26.9062 l 1
 204.8 -26.9062 l 1
 230.4 -26.9062 l 1
 230.4 -0.453125 l 1
 230.4 26 l 1
 256 26 l 1
 281.6 26 l 1
 281.6 -0.453125 l 1
 281.6 -26.9062 l 1
 307.2 -26.9062 l 1
 332.8 -26.9062 l 1
 332.8 25.1465 l 1
 332.8 77.2002 l 1
 384.854 77.2002 l 1
 436.906 77.2002 l 1
 436.906 128.4 l 1
 436.906 179.6 l 1
 410.453 179.6 l 1
 384 179.6 l 1
 384 230.8 l 1
 384 282 l 1
 410.453 282 l 1
 436.906 282 l 1
 436.906 307.6 l 1
128 -0.453125 m 1
 128 26 l 1
 102.4 26 l 1
 76.7998 26 l 1
 76.7998 -0.453125 l 1
 76.7998 -26.9062 l 1
 102.4 -26.9062 l 1
 128 -26.9062 l 1
 128 -0.453125 l 1
436.906 -0.453125 m 1
 436.906 26 l 1
 410.453 26 l 1
 384 26 l 1
 384 -0.453125 l 1
 384 -26.9062 l 1
 410.453 -26.9062 l 1
 436.906 -26.9062 l 1
 436.906 -0.453125 l 1
EndSplineSet
EndChar

StartChar: uni30E5
Encoding: 12517 12517 50
Width: 512
VWidth: 0
Flags: H
LayerCount: 2
Back
Fore
SplineSet
128 205.2 m 1
 128 230.8 l 1
 153.6 230.8 l 1
 179.2 230.8 l 1
 179.2 205.2 l 1
 179.2 179.6 l 1
 153.6 179.6 l 1
 128 179.6 l 1
 128 205.2 l 1
0 154 m 1
 0 410 l 1
 256 410 l 1
 512 410 l 1
 512 154 l 1
 512 -102 l 1
 256 -102 l 1
 0 -102 l 1
 0 154 l 1
436.906 256.4 m 1
 436.906 333.2 l 1
 256.854 333.2 l 1
 76.7998 333.2 l 1
 76.7998 307.6 l 1
 76.7998 282 l 1
 102.4 282 l 1
 128 282 l 1
 128 256.4 l 1
 128 230.8 l 1
 102.4 230.8 l 1
 76.7998 230.8 l 1
 76.7998 205.2 l 1
 76.7998 179.6 l 1
 102.4 179.6 l 1
 128 179.6 l 1
 128 154 l 1
 128 128.4 l 1
 102.4 128.4 l 1
 76.7998 128.4 l 1
 76.7998 102.8 l 1
 76.7998 77.2002 l 1
 128 77.2002 l 1
 179.2 77.2002 l 1
 179.2 25.1465 l 1
 179.2 -26.9062 l 1
 204.8 -26.9062 l 1
 230.4 -26.9062 l 1
 230.4 25.1465 l 1
 230.4 77.2002 l 1
 307.2 77.2002 l 1
 384 77.2002 l 1
 384 128.4 l 1
 384 179.6 l 1
 410.453 179.6 l 1
 436.906 179.6 l 1
 436.906 256.4 l 1
128 -0.453125 m 1
 128 26 l 1
 102.4 26 l 1
 76.7998 26 l 1
 76.7998 -0.453125 l 1
 76.7998 -26.9062 l 1
 102.4 -26.9062 l 1
 128 -26.9062 l 1
 128 -0.453125 l 1
332.8 -0.453125 m 1
 332.8 26 l 1
 307.2 26 l 1
 281.6 26 l 1
 281.6 -0.453125 l 1
 281.6 -26.9062 l 1
 307.2 -26.9062 l 1
 332.8 -26.9062 l 1
 332.8 -0.453125 l 1
436.906 -0.453125 m 1
 436.906 26 l 1
 410.453 26 l 1
 384 26 l 1
 384 -0.453125 l 1
 384 -26.9062 l 1
 410.453 -26.9062 l 1
 436.906 -26.9062 l 1
 436.906 -0.453125 l 1
EndSplineSet
EndChar

StartChar: uni30D7
Encoding: 12503 12503 51
Width: 512
VWidth: 0
Flags: H
LayerCount: 2
Back
Fore
SplineSet
179.2 51.5996 m 1
 179.2 77.2002 l 1
 204.8 77.2002 l 1
 230.4 77.2002 l 1
 230.4 51.5996 l 1
 230.4 26 l 1
 204.8 26 l 1
 179.2 26 l 1
 179.2 51.5996 l 1
128 205.2 m 1
 128 230.8 l 1
 153.6 230.8 l 1
 179.2 230.8 l 1
 179.2 205.2 l 1
 179.2 179.6 l 1
 153.6 179.6 l 1
 128 179.6 l 1
 128 205.2 l 1
0 154 m 1
 0 410 l 1
 256 410 l 1
 512 410 l 1
 512 154 l 1
 512 -102 l 1
 256 -102 l 1
 0 -102 l 1
 0 154 l 1
436.906 307.6 m 1
 436.906 333.2 l 1
 256.854 333.2 l 1
 76.7998 333.2 l 1
 76.7998 307.6 l 1
 76.7998 282 l 1
 102.4 282 l 1
 128 282 l 1
 128 256.4 l 1
 128 230.8 l 1
 102.4 230.8 l 1
 76.7998 230.8 l 1
 76.7998 205.2 l 1
 76.7998 179.6 l 1
 102.4 179.6 l 1
 128 179.6 l 1
 128 154 l 1
 128 128.4 l 1
 102.4 128.4 l 1
 76.7998 128.4 l 1
 76.7998 102.8 l 1
 76.7998 77.2002 l 1
 102.4 77.2002 l 1
 128 77.2002 l 1
 128 51.5996 l 1
 128 26 l 1
 102.4 26 l 1
 76.7998 26 l 1
 76.7998 -0.453125 l 1
 76.7998 -26.9062 l 1
 102.4 -26.9062 l 1
 128 -26.9062 l 1
 128 -0.453125 l 1
 128 26 l 1
 153.6 26 l 1
 179.2 26 l 1
 179.2 -0.453125 l 1
 179.2 -26.9062 l 1
 204.8 -26.9062 l 1
 230.4 -26.9062 l 1
 230.4 -0.453125 l 1
 230.4 26 l 1
 256 26 l 1
 281.6 26 l 1
 281.6 -0.453125 l 1
 281.6 -26.9062 l 1
 307.2 -26.9062 l 1
 332.8 -26.9062 l 1
 332.8 25.1465 l 1
 332.8 77.2002 l 1
 358.4 77.2002 l 1
 384 77.2002 l 1
 384 25.1465 l 1
 384 -26.9062 l 1
 410.453 -26.9062 l 1
 436.906 -26.9062 l 1
 436.906 25.1465 l 1
 436.906 77.2002 l 1
 410.453 77.2002 l 1
 384 77.2002 l 1
 384 128.4 l 1
 384 179.6 l 1
 410.453 179.6 l 1
 436.906 179.6 l 1
 436.906 205.2 l 1
 436.906 230.8 l 1
 410.453 230.8 l 1
 384 230.8 l 1
 384 256.4 l 1
 384 282 l 1
 410.453 282 l 1
 436.906 282 l 1
 436.906 307.6 l 1
EndSplineSet
EndChar

StartChar: uni3056
Encoding: 12374 12374 52
Width: 512
VWidth: 0
Flags: H
LayerCount: 2
Back
Fore
SplineSet
0 154 m 1
 0 410 l 1
 256 410 l 1
 512 410 l 1
 512 154 l 1
 512 -102 l 1
 256 -102 l 1
 0 -102 l 1
 0 154 l 1
436.906 282 m 1
 436.906 333.2 l 1
 256.854 333.2 l 1
 76.7998 333.2 l 1
 76.7998 307.6 l 1
 76.7998 282 l 1
 102.4 282 l 1
 128 282 l 1
 128 256.4 l 1
 128 230.8 l 1
 102.4 230.8 l 1
 76.7998 230.8 l 1
 76.7998 205.2 l 1
 76.7998 179.6 l 1
 102.4 179.6 l 1
 128 179.6 l 1
 128 154 l 1
 128 128.4 l 1
 102.4 128.4 l 1
 76.7998 128.4 l 1
 76.7998 102.8 l 1
 76.7998 77.2002 l 1
 128 77.2002 l 1
 179.2 77.2002 l 1
 179.2 25.1465 l 1
 179.2 -26.9062 l 1
 204.8 -26.9062 l 1
 230.4 -26.9062 l 1
 230.4 25.1465 l 1
 230.4 77.2002 l 1
 256 77.2002 l 1
 281.6 77.2002 l 1
 281.6 25.1465 l 1
 281.6 -26.9062 l 1
 307.2 -26.9062 l 1
 332.8 -26.9062 l 1
 332.8 25.1465 l 1
 332.8 77.2002 l 1
 384.854 77.2002 l 1
 436.906 77.2002 l 1
 436.906 102.8 l 1
 436.906 128.4 l 1
 410.453 128.4 l 1
 384 128.4 l 1
 384 179.6 l 1
 384 230.8 l 1
 410.453 230.8 l 1
 436.906 230.8 l 1
 436.906 282 l 1
128 -0.453125 m 1
 128 26 l 1
 102.4 26 l 1
 76.7998 26 l 1
 76.7998 -0.453125 l 1
 76.7998 -26.9062 l 1
 102.4 -26.9062 l 1
 128 -26.9062 l 1
 128 -0.453125 l 1
436.906 -0.453125 m 1
 436.906 26 l 1
 410.453 26 l 1
 384 26 l 1
 384 -0.453125 l 1
 384 -26.9062 l 1
 410.453 -26.9062 l 1
 436.906 -26.9062 l 1
 436.906 -0.453125 l 1
EndSplineSet
EndChar

StartChar: uni3055
Encoding: 12373 12373 53
Width: 512
VWidth: 0
Flags: H
LayerCount: 2
Back
Fore
SplineSet
0 154 m 1
 0 410 l 1
 256 410 l 1
 512 410 l 1
 512 154 l 1
 512 -102 l 1
 256 -102 l 1
 0 -102 l 1
 0 154 l 1
436.906 256.4 m 1
 436.906 333.2 l 1
 256.854 333.2 l 1
 76.7998 333.2 l 1
 76.7998 307.6 l 1
 76.7998 282 l 1
 102.4 282 l 1
 128 282 l 1
 128 256.4 l 1
 128 230.8 l 1
 102.4 230.8 l 1
 76.7998 230.8 l 1
 76.7998 205.2 l 1
 76.7998 179.6 l 1
 102.4 179.6 l 1
 128 179.6 l 1
 128 154 l 1
 128 128.4 l 1
 102.4 128.4 l 1
 76.7998 128.4 l 1
 76.7998 102.8 l 1
 76.7998 77.2002 l 1
 128 77.2002 l 1
 179.2 77.2002 l 1
 179.2 25.1465 l 1
 179.2 -26.9062 l 1
 204.8 -26.9062 l 1
 230.4 -26.9062 l 1
 230.4 25.1465 l 1
 230.4 77.2002 l 1
 256 77.2002 l 1
 281.6 77.2002 l 1
 281.6 25.1465 l 1
 281.6 -26.9062 l 1
 307.2 -26.9062 l 1
 332.8 -26.9062 l 1
 332.8 -0.453125 l 1
 332.8 26 l 1
 358.4 26 l 1
 384 26 l 1
 384 -0.453125 l 1
 384 -26.9062 l 1
 410.453 -26.9062 l 1
 436.906 -26.9062 l 1
 436.906 -0.453125 l 1
 436.906 26 l 1
 410.453 26 l 1
 384 26 l 1
 384 51.5996 l 1
 384 77.2002 l 1
 410.453 77.2002 l 1
 436.906 77.2002 l 1
 436.906 102.8 l 1
 436.906 128.4 l 1
 410.453 128.4 l 1
 384 128.4 l 1
 384 154 l 1
 384 179.6 l 1
 410.453 179.6 l 1
 436.906 179.6 l 1
 436.906 256.4 l 1
128 -0.453125 m 1
 128 26 l 1
 102.4 26 l 1
 76.7998 26 l 1
 76.7998 -0.453125 l 1
 76.7998 -26.9062 l 1
 102.4 -26.9062 l 1
 128 -26.9062 l 1
 128 -0.453125 l 1
EndSplineSet
EndChar

StartChar: uni30DE
Encoding: 12510 12510 54
Width: 512
VWidth: 0
Flags: H
LayerCount: 2
Back
Fore
SplineSet
128 205.2 m 1
 128 230.8 l 1
 153.6 230.8 l 1
 179.2 230.8 l 1
 179.2 205.2 l 1
 179.2 179.6 l 1
 153.6 179.6 l 1
 128 179.6 l 1
 128 205.2 l 1
0 154 m 1
 0 410 l 1
 256 410 l 1
 512 410 l 1
 512 154 l 1
 512 -102 l 1
 256 -102 l 1
 0 -102 l 1
 0 154 l 1
436.906 256.4 m 1
 436.906 333.2 l 1
 256.854 333.2 l 1
 76.7998 333.2 l 1
 76.7998 307.6 l 1
 76.7998 282 l 1
 102.4 282 l 1
 128 282 l 1
 128 256.4 l 1
 128 230.8 l 1
 102.4 230.8 l 1
 76.7998 230.8 l 1
 76.7998 205.2 l 1
 76.7998 179.6 l 1
 102.4 179.6 l 1
 128 179.6 l 1
 128 154 l 1
 128 128.4 l 1
 102.4 128.4 l 1
 76.7998 128.4 l 1
 76.7998 102.8 l 1
 76.7998 77.2002 l 1
 128 77.2002 l 1
 179.2 77.2002 l 1
 179.2 25.1465 l 1
 179.2 -26.9062 l 1
 204.8 -26.9062 l 1
 230.4 -26.9062 l 1
 230.4 -0.453125 l 1
 230.4 26 l 1
 256 26 l 1
 281.6 26 l 1
 281.6 -0.453125 l 1
 281.6 -26.9062 l 1
 307.2 -26.9062 l 1
 332.8 -26.9062 l 1
 332.8 -0.453125 l 1
 332.8 26 l 1
 358.4 26 l 1
 384 26 l 1
 384 -0.453125 l 1
 384 -26.9062 l 1
 410.453 -26.9062 l 1
 436.906 -26.9062 l 1
 436.906 -0.453125 l 1
 436.906 26 l 1
 410.453 26 l 1
 384 26 l 1
 384 51.5996 l 1
 384 77.2002 l 1
 410.453 77.2002 l 1
 436.906 77.2002 l 1
 436.906 102.8 l 1
 436.906 128.4 l 1
 410.453 128.4 l 1
 384 128.4 l 1
 384 154 l 1
 384 179.6 l 1
 410.453 179.6 l 1
 436.906 179.6 l 1
 436.906 256.4 l 1
128 -0.453125 m 1
 128 26 l 1
 102.4 26 l 1
 76.7998 26 l 1
 76.7998 -0.453125 l 1
 76.7998 -26.9062 l 1
 102.4 -26.9062 l 1
 128 -26.9062 l 1
 128 -0.453125 l 1
EndSplineSet
EndChar

StartChar: uni306A
Encoding: 12394 12394 55
Width: 512
VWidth: 0
Flags: H
LayerCount: 2
Back
Fore
SplineSet
128 102.8 m 1
 128 128.4 l 1
 153.6 128.4 l 1
 179.2 128.4 l 1
 179.2 102.8 l 1
 179.2 77.2002 l 1
 204.8 77.2002 l 1
 230.4 77.2002 l 1
 230.4 51.5996 l 1
 230.4 26 l 1
 204.8 26 l 1
 179.2 26 l 1
 179.2 51.5996 l 1
 179.2 77.2002 l 1
 153.6 77.2002 l 1
 128 77.2002 l 1
 128 102.8 l 1
0 154 m 1
 0 410 l 1
 256 410 l 1
 512 410 l 1
 512 154 l 1
 512 -102 l 1
 256 -102 l 1
 0 -102 l 1
 0 154 l 1
436.906 282 m 1
 436.906 333.2 l 1
 256.854 333.2 l 1
 76.7998 333.2 l 1
 76.7998 307.6 l 1
 76.7998 282 l 1
 102.4 282 l 1
 128 282 l 1
 128 256.4 l 1
 128 230.8 l 1
 102.4 230.8 l 1
 76.7998 230.8 l 1
 76.7998 205.2 l 1
 76.7998 179.6 l 1
 102.4 179.6 l 1
 128 179.6 l 1
 128 154 l 1
 128 128.4 l 1
 102.4 128.4 l 1
 76.7998 128.4 l 1
 76.7998 102.8 l 1
 76.7998 77.2002 l 1
 102.4 77.2002 l 1
 128 77.2002 l 1
 128 51.5996 l 1
 128 26 l 1
 102.4 26 l 1
 76.7998 26 l 1
 76.7998 -0.453125 l 1
 76.7998 -26.9062 l 1
 102.4 -26.9062 l 1
 128 -26.9062 l 1
 128 -0.453125 l 1
 128 26 l 1
 153.6 26 l 1
 179.2 26 l 1
 179.2 -0.453125 l 1
 179.2 -26.9062 l 1
 204.8 -26.9062 l 1
 230.4 -26.9062 l 1
 230.4 -0.453125 l 1
 230.4 26 l 1
 256 26 l 1
 281.6 26 l 1
 281.6 -0.453125 l 1
 281.6 -26.9062 l 1
 307.2 -26.9062 l 1
 332.8 -26.9062 l 1
 332.8 25.1465 l 1
 332.8 77.2002 l 1
 358.4 77.2002 l 1
 384 77.2002 l 1
 384 25.1465 l 1
 384 -26.9062 l 1
 410.453 -26.9062 l 1
 436.906 -26.9062 l 1
 436.906 25.1465 l 1
 436.906 77.2002 l 1
 410.453 77.2002 l 1
 384 77.2002 l 1
 384 102.8 l 1
 384 128.4 l 1
 410.453 128.4 l 1
 436.906 128.4 l 1
 436.906 154 l 1
 436.906 179.6 l 1
 410.453 179.6 l 1
 384 179.6 l 1
 384 205.2 l 1
 384 230.8 l 1
 410.453 230.8 l 1
 436.906 230.8 l 1
 436.906 282 l 1
EndSplineSet
EndChar

StartChar: uni30A3
Encoding: 12451 12451 56
Width: 512
VWidth: 0
Flags: H
LayerCount: 2
Back
Fore
SplineSet
0 154 m 1
 0 410 l 1
 256 410 l 1
 512 410 l 1
 512 154 l 1
 512 -102 l 1
 256 -102 l 1
 0 -102 l 1
 0 154 l 1
436.906 230.8 m 1
 436.906 333.2 l 1
 256.854 333.2 l 1
 76.7998 333.2 l 1
 76.7998 307.6 l 1
 76.7998 282 l 1
 102.4 282 l 1
 128 282 l 1
 128 256.4 l 1
 128 230.8 l 1
 102.4 230.8 l 1
 76.7998 230.8 l 1
 76.7998 205.2 l 1
 76.7998 179.6 l 1
 128 179.6 l 1
 179.2 179.6 l 1
 179.2 154 l 1
 179.2 128.4 l 1
 128 128.4 l 1
 76.7998 128.4 l 1
 76.7998 102.8 l 1
 76.7998 77.2002 l 1
 128 77.2002 l 1
 179.2 77.2002 l 1
 179.2 25.1465 l 1
 179.2 -26.9062 l 1
 204.8 -26.9062 l 1
 230.4 -26.9062 l 1
 230.4 25.1465 l 1
 230.4 77.2002 l 1
 256 77.2002 l 1
 281.6 77.2002 l 1
 281.6 25.1465 l 1
 281.6 -26.9062 l 1
 307.2 -26.9062 l 1
 332.8 -26.9062 l 1
 332.8 25.1465 l 1
 332.8 77.2002 l 1
 358.4 77.2002 l 1
 384 77.2002 l 1
 384 102.8 l 1
 384 128.4 l 1
 410.453 128.4 l 1
 436.906 128.4 l 1
 436.906 230.8 l 1
128 -0.453125 m 1
 128 26 l 1
 102.4 26 l 1
 76.7998 26 l 1
 76.7998 -0.453125 l 1
 76.7998 -26.9062 l 1
 102.4 -26.9062 l 1
 128 -26.9062 l 1
 128 -0.453125 l 1
436.906 -0.453125 m 1
 436.906 26 l 1
 410.453 26 l 1
 384 26 l 1
 384 -0.453125 l 1
 384 -26.9062 l 1
 410.453 -26.9062 l 1
 436.906 -26.9062 l 1
 436.906 -0.453125 l 1
EndSplineSet
EndChar

StartChar: uni30F2
Encoding: 12530 12530 57
Width: 512
VWidth: 0
Flags: H
LayerCount: 2
Back
Fore
SplineSet
128 102.8 m 1
 128 128.4 l 1
 153.6 128.4 l 1
 179.2 128.4 l 1
 179.2 102.8 l 1
 179.2 77.2002 l 1
 153.6 77.2002 l 1
 128 77.2002 l 1
 128 102.8 l 1
128 205.2 m 1
 128 230.8 l 1
 153.6 230.8 l 1
 179.2 230.8 l 1
 179.2 205.2 l 1
 179.2 179.6 l 1
 153.6 179.6 l 1
 128 179.6 l 1
 128 205.2 l 1
0 154 m 1
 0 410 l 1
 256 410 l 1
 512 410 l 1
 512 154 l 1
 512 -102 l 1
 256 -102 l 1
 0 -102 l 1
 0 154 l 1
436.906 307.6 m 1
 436.906 333.2 l 1
 256.854 333.2 l 1
 76.7998 333.2 l 1
 76.7998 307.6 l 1
 76.7998 282 l 1
 102.4 282 l 1
 128 282 l 1
 128 256.4 l 1
 128 230.8 l 1
 102.4 230.8 l 1
 76.7998 230.8 l 1
 76.7998 205.2 l 1
 76.7998 179.6 l 1
 102.4 179.6 l 1
 128 179.6 l 1
 128 154 l 1
 128 128.4 l 1
 102.4 128.4 l 1
 76.7998 128.4 l 1
 76.7998 102.8 l 1
 76.7998 77.2002 l 1
 102.4 77.2002 l 1
 128 77.2002 l 1
 128 51.5996 l 1
 128 26 l 1
 102.4 26 l 1
 76.7998 26 l 1
 76.7998 -0.453125 l 1
 76.7998 -26.9062 l 1
 102.4 -26.9062 l 1
 128 -26.9062 l 1
 128 -0.453125 l 1
 128 26 l 1
 153.6 26 l 1
 179.2 26 l 1
 179.2 -0.453125 l 1
 179.2 -26.9062 l 1
 204.8 -26.9062 l 1
 230.4 -26.9062 l 1
 230.4 25.1465 l 1
 230.4 77.2002 l 1
 256 77.2002 l 1
 281.6 77.2002 l 1
 281.6 25.1465 l 1
 281.6 -26.9062 l 1
 307.2 -26.9062 l 1
 332.8 -26.9062 l 1
 332.8 -0.453125 l 1
 332.8 26 l 1
 358.4 26 l 1
 384 26 l 1
 384 -0.453125 l 1
 384 -26.9062 l 1
 410.453 -26.9062 l 1
 436.906 -26.9062 l 1
 436.906 25.1465 l 1
 436.906 77.2002 l 1
 410.453 77.2002 l 1
 384 77.2002 l 1
 384 102.8 l 1
 384 128.4 l 1
 410.453 128.4 l 1
 436.906 128.4 l 1
 436.906 179.6 l 1
 436.906 230.8 l 1
 410.453 230.8 l 1
 384 230.8 l 1
 384 256.4 l 1
 384 282 l 1
 410.453 282 l 1
 436.906 282 l 1
 436.906 307.6 l 1
EndSplineSet
EndChar

StartChar: uni30AB
Encoding: 12459 12459 58
Width: 512
VWidth: 0
Flags: H
LayerCount: 2
Back
Fore
SplineSet
0 154 m 1
 0 410 l 1
 256 410 l 1
 512 410 l 1
 512 154 l 1
 512 -102 l 1
 256 -102 l 1
 0 -102 l 1
 0 154 l 1
436.906 153.146 m 1
 436.906 333.2 l 1
 256.854 333.2 l 1
 76.7998 333.2 l 1
 76.7998 307.6 l 1
 76.7998 282 l 1
 102.4 282 l 1
 128 282 l 1
 128 256.4 l 1
 128 230.8 l 1
 102.4 230.8 l 1
 76.7998 230.8 l 1
 76.7998 205.2 l 1
 76.7998 179.6 l 1
 128 179.6 l 1
 179.2 179.6 l 1
 179.2 154 l 1
 179.2 128.4 l 1
 128 128.4 l 1
 76.7998 128.4 l 1
 76.7998 102.8 l 1
 76.7998 77.2002 l 1
 179.2 77.2002 l 1
 281.6 77.2002 l 1
 281.6 25.1465 l 1
 281.6 -26.9062 l 1
 307.2 -26.9062 l 1
 332.8 -26.9062 l 1
 332.8 25.1465 l 1
 332.8 77.2002 l 1
 358.4 77.2002 l 1
 384 77.2002 l 1
 384 25.1465 l 1
 384 -26.9062 l 1
 410.453 -26.9062 l 1
 436.906 -26.9062 l 1
 436.906 153.146 l 1
128 -0.453125 m 1
 128 26 l 1
 102.4 26 l 1
 76.7998 26 l 1
 76.7998 -0.453125 l 1
 76.7998 -26.9062 l 1
 102.4 -26.9062 l 1
 128 -26.9062 l 1
 128 -0.453125 l 1
230.4 -0.453125 m 1
 230.4 26 l 1
 204.8 26 l 1
 179.2 26 l 1
 179.2 -0.453125 l 1
 179.2 -26.9062 l 1
 204.8 -26.9062 l 1
 230.4 -26.9062 l 1
 230.4 -0.453125 l 1
EndSplineSet
EndChar

StartChar: uni3091
Encoding: 12433 12433 59
Width: 512
VWidth: 0
Flags: H
LayerCount: 2
Back
Fore
SplineSet
0 154 m 1
 0 410 l 1
 256 410 l 1
 512 410 l 1
 512 154 l 1
 512 -102 l 1
 256 -102 l 1
 0 -102 l 1
 0 154 l 1
436.906 282 m 1
 436.906 333.2 l 1
 256.854 333.2 l 1
 76.7998 333.2 l 1
 76.7998 307.6 l 1
 76.7998 282 l 1
 102.4 282 l 1
 128 282 l 1
 128 256.4 l 1
 128 230.8 l 1
 102.4 230.8 l 1
 76.7998 230.8 l 1
 76.7998 205.2 l 1
 76.7998 179.6 l 1
 128 179.6 l 1
 179.2 179.6 l 1
 179.2 154 l 1
 179.2 128.4 l 1
 128 128.4 l 1
 76.7998 128.4 l 1
 76.7998 102.8 l 1
 76.7998 77.2002 l 1
 128 77.2002 l 1
 179.2 77.2002 l 1
 179.2 25.1465 l 1
 179.2 -26.9062 l 1
 204.8 -26.9062 l 1
 230.4 -26.9062 l 1
 230.4 -0.453125 l 1
 230.4 26 l 1
 256 26 l 1
 281.6 26 l 1
 281.6 -0.453125 l 1
 281.6 -26.9062 l 1
 307.2 -26.9062 l 1
 332.8 -26.9062 l 1
 332.8 -0.453125 l 1
 332.8 26 l 1
 358.4 26 l 1
 384 26 l 1
 384 -0.453125 l 1
 384 -26.9062 l 1
 410.453 -26.9062 l 1
 436.906 -26.9062 l 1
 436.906 -0.453125 l 1
 436.906 26 l 1
 410.453 26 l 1
 384 26 l 1
 384 51.5996 l 1
 384 77.2002 l 1
 410.453 77.2002 l 1
 436.906 77.2002 l 1
 436.906 128.4 l 1
 436.906 179.6 l 1
 410.453 179.6 l 1
 384 179.6 l 1
 384 205.2 l 1
 384 230.8 l 1
 410.453 230.8 l 1
 436.906 230.8 l 1
 436.906 282 l 1
128 -0.453125 m 1
 128 26 l 1
 102.4 26 l 1
 76.7998 26 l 1
 76.7998 -0.453125 l 1
 76.7998 -26.9062 l 1
 102.4 -26.9062 l 1
 128 -26.9062 l 1
 128 -0.453125 l 1
EndSplineSet
EndChar

StartChar: uni30CB
Encoding: 12491 12491 60
Width: 512
VWidth: 0
Flags: H
LayerCount: 2
Back
Fore
SplineSet
0 154 m 1
 0 410 l 1
 256 410 l 1
 512 410 l 1
 512 154 l 1
 512 -102 l 1
 256 -102 l 1
 0 -102 l 1
 0 154 l 1
436.906 307.6 m 1
 436.906 333.2 l 1
 256.854 333.2 l 1
 76.7998 333.2 l 1
 76.7998 307.6 l 1
 76.7998 282 l 1
 102.4 282 l 1
 128 282 l 1
 128 256.4 l 1
 128 230.8 l 1
 102.4 230.8 l 1
 76.7998 230.8 l 1
 76.7998 205.2 l 1
 76.7998 179.6 l 1
 128 179.6 l 1
 179.2 179.6 l 1
 179.2 128.4 l 1
 179.2 77.2002 l 1
 230.4 77.2002 l 1
 281.6 77.2002 l 1
 281.6 25.1465 l 1
 281.6 -26.9062 l 1
 307.2 -26.9062 l 1
 332.8 -26.9062 l 1
 332.8 25.1465 l 1
 332.8 77.2002 l 1
 358.4 77.2002 l 1
 384 77.2002 l 1
 384 25.1465 l 1
 384 -26.9062 l 1
 410.453 -26.9062 l 1
 436.906 -26.9062 l 1
 436.906 101.946 l 1
 436.906 230.8 l 1
 410.453 230.8 l 1
 384 230.8 l 1
 384 256.4 l 1
 384 282 l 1
 410.453 282 l 1
 436.906 282 l 1
 436.906 307.6 l 1
128 102.8 m 1
 128 128.4 l 1
 102.4 128.4 l 1
 76.7998 128.4 l 1
 76.7998 102.8 l 1
 76.7998 77.2002 l 1
 102.4 77.2002 l 1
 128 77.2002 l 1
 128 102.8 l 1
128 -0.453125 m 1
 128 26 l 1
 102.4 26 l 1
 76.7998 26 l 1
 76.7998 -0.453125 l 1
 76.7998 -26.9062 l 1
 102.4 -26.9062 l 1
 128 -26.9062 l 1
 128 -0.453125 l 1
230.4 -0.453125 m 1
 230.4 26 l 1
 204.8 26 l 1
 179.2 26 l 1
 179.2 -0.453125 l 1
 179.2 -26.9062 l 1
 204.8 -26.9062 l 1
 230.4 -26.9062 l 1
 230.4 -0.453125 l 1
EndSplineSet
EndChar

StartChar: uni30AC
Encoding: 12460 12460 61
Width: 512
VWidth: 0
Flags: H
LayerCount: 2
Back
Fore
SplineSet
0 154 m 1
 0 410 l 1
 256 410 l 1
 512 410 l 1
 512 154 l 1
 512 -102 l 1
 256 -102 l 1
 0 -102 l 1
 0 154 l 1
436.906 307.6 m 1
 436.906 333.2 l 1
 256.854 333.2 l 1
 76.7998 333.2 l 1
 76.7998 307.6 l 1
 76.7998 282 l 1
 102.4 282 l 1
 128 282 l 1
 128 256.4 l 1
 128 230.8 l 1
 102.4 230.8 l 1
 76.7998 230.8 l 1
 76.7998 205.2 l 1
 76.7998 179.6 l 1
 128 179.6 l 1
 179.2 179.6 l 1
 179.2 154 l 1
 179.2 128.4 l 1
 128 128.4 l 1
 76.7998 128.4 l 1
 76.7998 102.8 l 1
 76.7998 77.2002 l 1
 204.8 77.2002 l 1
 332.8 77.2002 l 1
 332.8 51.5996 l 1
 332.8 26 l 1
 307.2 26 l 1
 281.6 26 l 1
 281.6 -0.453125 l 1
 281.6 -26.9062 l 1
 307.2 -26.9062 l 1
 332.8 -26.9062 l 1
 332.8 -0.453125 l 1
 332.8 26 l 1
 358.4 26 l 1
 384 26 l 1
 384 -0.453125 l 1
 384 -26.9062 l 1
 410.453 -26.9062 l 1
 436.906 -26.9062 l 1
 436.906 101.946 l 1
 436.906 230.8 l 1
 410.453 230.8 l 1
 384 230.8 l 1
 384 256.4 l 1
 384 282 l 1
 410.453 282 l 1
 436.906 282 l 1
 436.906 307.6 l 1
128 -0.453125 m 1
 128 26 l 1
 102.4 26 l 1
 76.7998 26 l 1
 76.7998 -0.453125 l 1
 76.7998 -26.9062 l 1
 102.4 -26.9062 l 1
 128 -26.9062 l 1
 128 -0.453125 l 1
230.4 -0.453125 m 1
 230.4 26 l 1
 204.8 26 l 1
 179.2 26 l 1
 179.2 -0.453125 l 1
 179.2 -26.9062 l 1
 204.8 -26.9062 l 1
 230.4 -26.9062 l 1
 230.4 -0.453125 l 1
EndSplineSet
EndChar

StartChar: uni3086
Encoding: 12422 12422 62
Width: 512
VWidth: 0
Flags: H
LayerCount: 2
Back
Fore
SplineSet
0 154 m 1
 0 410 l 1
 256 410 l 1
 512 410 l 1
 512 154 l 1
 512 -102 l 1
 256 -102 l 1
 0 -102 l 1
 0 154 l 1
436.906 307.6 m 1
 436.906 333.2 l 1
 256.854 333.2 l 1
 76.7998 333.2 l 1
 76.7998 307.6 l 1
 76.7998 282 l 1
 102.4 282 l 1
 128 282 l 1
 128 256.4 l 1
 128 230.8 l 1
 102.4 230.8 l 1
 76.7998 230.8 l 1
 76.7998 205.2 l 1
 76.7998 179.6 l 1
 128 179.6 l 1
 179.2 179.6 l 1
 179.2 154 l 1
 179.2 128.4 l 1
 128 128.4 l 1
 76.7998 128.4 l 1
 76.7998 102.8 l 1
 76.7998 77.2002 l 1
 102.4 77.2002 l 1
 128 77.2002 l 1
 128 51.5996 l 1
 128 26 l 1
 102.4 26 l 1
 76.7998 26 l 1
 76.7998 -0.453125 l 1
 76.7998 -26.9062 l 1
 102.4 -26.9062 l 1
 128 -26.9062 l 1
 128 -0.453125 l 1
 128 26 l 1
 153.6 26 l 1
 179.2 26 l 1
 179.2 -0.453125 l 1
 179.2 -26.9062 l 1
 204.8 -26.9062 l 1
 230.4 -26.9062 l 1
 230.4 25.1465 l 1
 230.4 77.2002 l 1
 256 77.2002 l 1
 281.6 77.2002 l 1
 281.6 25.1465 l 1
 281.6 -26.9062 l 1
 307.2 -26.9062 l 1
 332.8 -26.9062 l 1
 332.8 25.1465 l 1
 332.8 77.2002 l 1
 358.4 77.2002 l 1
 384 77.2002 l 1
 384 25.1465 l 1
 384 -26.9062 l 1
 410.453 -26.9062 l 1
 436.906 -26.9062 l 1
 436.906 50.7471 l 1
 436.906 128.4 l 1
 410.453 128.4 l 1
 384 128.4 l 1
 384 205.2 l 1
 384 282 l 1
 410.453 282 l 1
 436.906 282 l 1
 436.906 307.6 l 1
EndSplineSet
EndChar

StartChar: uni3064
Encoding: 12388 12388 63
Width: 512
VWidth: 0
Flags: H
LayerCount: 2
Back
Fore
SplineSet
128 102.8 m 1
 128 128.4 l 1
 153.6 128.4 l 1
 179.2 128.4 l 1
 179.2 102.8 l 1
 179.2 77.2002 l 1
 153.6 77.2002 l 1
 128 77.2002 l 1
 128 102.8 l 1
0 154 m 1
 0 410 l 1
 256 410 l 1
 512 410 l 1
 512 154 l 1
 512 -102 l 1
 256 -102 l 1
 0 -102 l 1
 0 154 l 1
436.906 256.4 m 1
 436.906 333.2 l 1
 256.854 333.2 l 1
 76.7998 333.2 l 1
 76.7998 307.6 l 1
 76.7998 282 l 1
 102.4 282 l 1
 128 282 l 1
 128 256.4 l 1
 128 230.8 l 1
 102.4 230.8 l 1
 76.7998 230.8 l 1
 76.7998 205.2 l 1
 76.7998 179.6 l 1
 102.4 179.6 l 1
 128 179.6 l 1
 128 154 l 1
 128 128.4 l 1
 102.4 128.4 l 1
 76.7998 128.4 l 1
 76.7998 102.8 l 1
 76.7998 77.2002 l 1
 102.4 77.2002 l 1
 128 77.2002 l 1
 128 51.5996 l 1
 128 26 l 1
 102.4 26 l 1
 76.7998 26 l 1
 76.7998 -0.453125 l 1
 76.7998 -26.9062 l 1
 102.4 -26.9062 l 1
 128 -26.9062 l 1
 128 -0.453125 l 1
 128 26 l 1
 153.6 26 l 1
 179.2 26 l 1
 179.2 -0.453125 l 1
 179.2 -26.9062 l 1
 204.8 -26.9062 l 1
 230.4 -26.9062 l 1
 230.4 -0.453125 l 1
 230.4 26 l 1
 256 26 l 1
 281.6 26 l 1
 281.6 -0.453125 l 1
 281.6 -26.9062 l 1
 307.2 -26.9062 l 1
 332.8 -26.9062 l 1
 332.8 -0.453125 l 1
 332.8 26 l 1
 307.2 26 l 1
 281.6 26 l 1
 281.6 51.5996 l 1
 281.6 77.2002 l 1
 332.8 77.2002 l 1
 384 77.2002 l 1
 384 25.1465 l 1
 384 -26.9062 l 1
 410.453 -26.9062 l 1
 436.906 -26.9062 l 1
 436.906 50.7471 l 1
 436.906 128.4 l 1
 410.453 128.4 l 1
 384 128.4 l 1
 384 154 l 1
 384 179.6 l 1
 410.453 179.6 l 1
 436.906 179.6 l 1
 436.906 256.4 l 1
EndSplineSet
EndChar

StartChar: uni3061
Encoding: 12385 12385 64
Width: 512
VWidth: 0
Flags: H
LayerCount: 2
Back
Fore
SplineSet
128 102.8 m 1
 128 128.4 l 1
 153.6 128.4 l 1
 179.2 128.4 l 1
 179.2 102.8 l 1
 179.2 77.2002 l 1
 153.6 77.2002 l 1
 128 77.2002 l 1
 128 102.8 l 1
0 154 m 1
 0 410 l 1
 256 410 l 1
 512 410 l 1
 512 154 l 1
 512 -102 l 1
 256 -102 l 1
 0 -102 l 1
 0 154 l 1
436.906 307.6 m 1
 436.906 333.2 l 1
 256.854 333.2 l 1
 76.7998 333.2 l 1
 76.7998 307.6 l 1
 76.7998 282 l 1
 102.4 282 l 1
 128 282 l 1
 128 256.4 l 1
 128 230.8 l 1
 102.4 230.8 l 1
 76.7998 230.8 l 1
 76.7998 205.2 l 1
 76.7998 179.6 l 1
 102.4 179.6 l 1
 128 179.6 l 1
 128 154 l 1
 128 128.4 l 1
 102.4 128.4 l 1
 76.7998 128.4 l 1
 76.7998 102.8 l 1
 76.7998 77.2002 l 1
 102.4 77.2002 l 1
 128 77.2002 l 1
 128 51.5996 l 1
 128 26 l 1
 102.4 26 l 1
 76.7998 26 l 1
 76.7998 -0.453125 l 1
 76.7998 -26.9062 l 1
 102.4 -26.9062 l 1
 128 -26.9062 l 1
 128 -0.453125 l 1
 128 26 l 1
 153.6 26 l 1
 179.2 26 l 1
 179.2 -0.453125 l 1
 179.2 -26.9062 l 1
 204.8 -26.9062 l 1
 230.4 -26.9062 l 1
 230.4 -0.453125 l 1
 230.4 26 l 1
 256 26 l 1
 281.6 26 l 1
 281.6 -0.453125 l 1
 281.6 -26.9062 l 1
 307.2 -26.9062 l 1
 332.8 -26.9062 l 1
 332.8 -0.453125 l 1
 332.8 26 l 1
 358.4 26 l 1
 384 26 l 1
 384 -0.453125 l 1
 384 -26.9062 l 1
 410.453 -26.9062 l 1
 436.906 -26.9062 l 1
 436.906 101.946 l 1
 436.906 230.8 l 1
 410.453 230.8 l 1
 384 230.8 l 1
 384 256.4 l 1
 384 282 l 1
 410.453 282 l 1
 436.906 282 l 1
 436.906 307.6 l 1
EndSplineSet
EndChar

StartChar: uni3060
Encoding: 12384 12384 65
Width: 512
VWidth: 0
Flags: H
LayerCount: 2
Back
Fore
SplineSet
0 154 m 1
 0 410 l 1
 256 410 l 1
 512 410 l 1
 512 154 l 1
 512 -102 l 1
 256 -102 l 1
 0 -102 l 1
 0 154 l 1
436.906 153.146 m 1
 436.906 333.2 l 1
 256.854 333.2 l 1
 76.7998 333.2 l 1
 76.7998 307.6 l 1
 76.7998 282 l 1
 102.4 282 l 1
 128 282 l 1
 128 256.4 l 1
 128 230.8 l 1
 102.4 230.8 l 1
 76.7998 230.8 l 1
 76.7998 205.2 l 1
 76.7998 179.6 l 1
 102.4 179.6 l 1
 128 179.6 l 1
 128 154 l 1
 128 128.4 l 1
 102.4 128.4 l 1
 76.7998 128.4 l 1
 76.7998 102.8 l 1
 76.7998 77.2002 l 1
 230.4 77.2002 l 1
 384 77.2002 l 1
 384 25.1465 l 1
 384 -26.9062 l 1
 410.453 -26.9062 l 1
 436.906 -26.9062 l 1
 436.906 153.146 l 1
128 -0.453125 m 1
 128 26 l 1
 102.4 26 l 1
 76.7998 26 l 1
 76.7998 -0.453125 l 1
 76.7998 -26.9062 l 1
 102.4 -26.9062 l 1
 128 -26.9062 l 1
 128 -0.453125 l 1
230.4 -0.453125 m 1
 230.4 26 l 1
 204.8 26 l 1
 179.2 26 l 1
 179.2 -0.453125 l 1
 179.2 -26.9062 l 1
 204.8 -26.9062 l 1
 230.4 -26.9062 l 1
 230.4 -0.453125 l 1
332.8 -0.453125 m 1
 332.8 26 l 1
 307.2 26 l 1
 281.6 26 l 1
 281.6 -0.453125 l 1
 281.6 -26.9062 l 1
 307.2 -26.9062 l 1
 332.8 -26.9062 l 1
 332.8 -0.453125 l 1
EndSplineSet
EndChar

StartChar: uni30C2
Encoding: 12482 12482 66
Width: 512
VWidth: 0
Flags: H
LayerCount: 2
Back
Fore
SplineSet
0 154 m 1
 0 410 l 1
 256 410 l 1
 512 410 l 1
 512 154 l 1
 512 -102 l 1
 256 -102 l 1
 0 -102 l 1
 0 154 l 1
436.906 230.8 m 1
 436.906 333.2 l 1
 256.854 333.2 l 1
 76.7998 333.2 l 1
 76.7998 307.6 l 1
 76.7998 282 l 1
 102.4 282 l 1
 128 282 l 1
 128 256.4 l 1
 128 230.8 l 1
 102.4 230.8 l 1
 76.7998 230.8 l 1
 76.7998 205.2 l 1
 76.7998 179.6 l 1
 128 179.6 l 1
 179.2 179.6 l 1
 179.2 76.3467 l 1
 179.2 -26.9062 l 1
 204.8 -26.9062 l 1
 230.4 -26.9062 l 1
 230.4 25.1465 l 1
 230.4 77.2002 l 1
 256 77.2002 l 1
 281.6 77.2002 l 1
 281.6 25.1465 l 1
 281.6 -26.9062 l 1
 307.2 -26.9062 l 1
 332.8 -26.9062 l 1
 332.8 -0.453125 l 1
 332.8 26 l 1
 358.4 26 l 1
 384 26 l 1
 384 -0.453125 l 1
 384 -26.9062 l 1
 410.453 -26.9062 l 1
 436.906 -26.9062 l 1
 436.906 -0.453125 l 1
 436.906 26 l 1
 410.453 26 l 1
 384 26 l 1
 384 77.2002 l 1
 384 128.4 l 1
 410.453 128.4 l 1
 436.906 128.4 l 1
 436.906 230.8 l 1
128 102.8 m 1
 128 128.4 l 1
 102.4 128.4 l 1
 76.7998 128.4 l 1
 76.7998 102.8 l 1
 76.7998 77.2002 l 1
 102.4 77.2002 l 1
 128 77.2002 l 1
 128 102.8 l 1
128 -0.453125 m 1
 128 26 l 1
 102.4 26 l 1
 76.7998 26 l 1
 76.7998 -0.453125 l 1
 76.7998 -26.9062 l 1
 102.4 -26.9062 l 1
 128 -26.9062 l 1
 128 -0.453125 l 1
EndSplineSet
EndChar

StartChar: uni308A
Encoding: 12426 12426 67
Width: 512
VWidth: 0
Flags: H
LayerCount: 2
Back
Fore
SplineSet
179.2 51.5996 m 1
 179.2 77.2002 l 1
 204.8 77.2002 l 1
 230.4 77.2002 l 1
 230.4 51.5996 l 1
 230.4 26 l 1
 204.8 26 l 1
 179.2 26 l 1
 179.2 51.5996 l 1
0 154 m 1
 0 410 l 1
 256 410 l 1
 512 410 l 1
 512 154 l 1
 512 -102 l 1
 256 -102 l 1
 0 -102 l 1
 0 154 l 1
436.906 307.6 m 1
 436.906 333.2 l 1
 256.854 333.2 l 1
 76.7998 333.2 l 1
 76.7998 307.6 l 1
 76.7998 282 l 1
 102.4 282 l 1
 128 282 l 1
 128 256.4 l 1
 128 230.8 l 1
 102.4 230.8 l 1
 76.7998 230.8 l 1
 76.7998 205.2 l 1
 76.7998 179.6 l 1
 128 179.6 l 1
 179.2 179.6 l 1
 179.2 154 l 1
 179.2 128.4 l 1
 128 128.4 l 1
 76.7998 128.4 l 1
 76.7998 102.8 l 1
 76.7998 77.2002 l 1
 102.4 77.2002 l 1
 128 77.2002 l 1
 128 51.5996 l 1
 128 26 l 1
 102.4 26 l 1
 76.7998 26 l 1
 76.7998 -0.453125 l 1
 76.7998 -26.9062 l 1
 102.4 -26.9062 l 1
 128 -26.9062 l 1
 128 -0.453125 l 1
 128 26 l 1
 153.6 26 l 1
 179.2 26 l 1
 179.2 -0.453125 l 1
 179.2 -26.9062 l 1
 204.8 -26.9062 l 1
 230.4 -26.9062 l 1
 230.4 -0.453125 l 1
 230.4 26 l 1
 256 26 l 1
 281.6 26 l 1
 281.6 -0.453125 l 1
 281.6 -26.9062 l 1
 307.2 -26.9062 l 1
 332.8 -26.9062 l 1
 332.8 25.1465 l 1
 332.8 77.2002 l 1
 358.4 77.2002 l 1
 384 77.2002 l 1
 384 25.1465 l 1
 384 -26.9062 l 1
 410.453 -26.9062 l 1
 436.906 -26.9062 l 1
 436.906 25.1465 l 1
 436.906 77.2002 l 1
 410.453 77.2002 l 1
 384 77.2002 l 1
 384 102.8 l 1
 384 128.4 l 1
 410.453 128.4 l 1
 436.906 128.4 l 1
 436.906 154 l 1
 436.906 179.6 l 1
 410.453 179.6 l 1
 384 179.6 l 1
 384 230.8 l 1
 384 282 l 1
 410.453 282 l 1
 436.906 282 l 1
 436.906 307.6 l 1
EndSplineSet
EndChar

StartChar: uni3084
Encoding: 12420 12420 68
Width: 512
VWidth: 0
Flags: H
LayerCount: 2
Back
Fore
SplineSet
0 154 m 1
 0 410 l 1
 256 410 l 1
 512 410 l 1
 512 154 l 1
 512 -102 l 1
 256 -102 l 1
 0 -102 l 1
 0 154 l 1
436.906 307.6 m 1
 436.906 333.2 l 1
 256.854 333.2 l 1
 76.7998 333.2 l 1
 76.7998 307.6 l 1
 76.7998 282 l 1
 102.4 282 l 1
 128 282 l 1
 128 256.4 l 1
 128 230.8 l 1
 102.4 230.8 l 1
 76.7998 230.8 l 1
 76.7998 205.2 l 1
 76.7998 179.6 l 1
 128 179.6 l 1
 179.2 179.6 l 1
 179.2 154 l 1
 179.2 128.4 l 1
 128 128.4 l 1
 76.7998 128.4 l 1
 76.7998 102.8 l 1
 76.7998 77.2002 l 1
 102.4 77.2002 l 1
 128 77.2002 l 1
 128 51.5996 l 1
 128 26 l 1
 102.4 26 l 1
 76.7998 26 l 1
 76.7998 -0.453125 l 1
 76.7998 -26.9062 l 1
 102.4 -26.9062 l 1
 128 -26.9062 l 1
 128 -0.453125 l 1
 128 26 l 1
 153.6 26 l 1
 179.2 26 l 1
 179.2 -0.453125 l 1
 179.2 -26.9062 l 1
 204.8 -26.9062 l 1
 230.4 -26.9062 l 1
 230.4 -0.453125 l 1
 230.4 26 l 1
 256 26 l 1
 281.6 26 l 1
 281.6 -0.453125 l 1
 281.6 -26.9062 l 1
 307.2 -26.9062 l 1
 332.8 -26.9062 l 1
 332.8 -0.453125 l 1
 332.8 26 l 1
 307.2 26 l 1
 281.6 26 l 1
 281.6 51.5996 l 1
 281.6 77.2002 l 1
 332.8 77.2002 l 1
 384 77.2002 l 1
 384 25.1465 l 1
 384 -26.9062 l 1
 410.453 -26.9062 l 1
 436.906 -26.9062 l 1
 436.906 50.7471 l 1
 436.906 128.4 l 1
 410.453 128.4 l 1
 384 128.4 l 1
 384 154 l 1
 384 179.6 l 1
 410.453 179.6 l 1
 436.906 179.6 l 1
 436.906 205.2 l 1
 436.906 230.8 l 1
 410.453 230.8 l 1
 384 230.8 l 1
 384 256.4 l 1
 384 282 l 1
 410.453 282 l 1
 436.906 282 l 1
 436.906 307.6 l 1
EndSplineSet
EndChar

StartChar: uni3078
Encoding: 12408 12408 69
Width: 512
VWidth: 0
Flags: H
LayerCount: 2
Back
Fore
SplineSet
0 154 m 1
 0 410 l 1
 256 410 l 1
 512 410 l 1
 512 154 l 1
 512 -102 l 1
 256 -102 l 1
 0 -102 l 1
 0 154 l 1
436.906 307.6 m 1
 436.906 333.2 l 1
 256.854 333.2 l 1
 76.7998 333.2 l 1
 76.7998 307.6 l 1
 76.7998 282 l 1
 102.4 282 l 1
 128 282 l 1
 128 256.4 l 1
 128 230.8 l 1
 102.4 230.8 l 1
 76.7998 230.8 l 1
 76.7998 205.2 l 1
 76.7998 179.6 l 1
 102.4 179.6 l 1
 128 179.6 l 1
 128 154 l 1
 128 128.4 l 1
 102.4 128.4 l 1
 76.7998 128.4 l 1
 76.7998 102.8 l 1
 76.7998 77.2002 l 1
 102.4 77.2002 l 1
 128 77.2002 l 1
 128 102.8 l 1
 128 128.4 l 1
 153.6 128.4 l 1
 179.2 128.4 l 1
 179.2 50.7471 l 1
 179.2 -26.9062 l 1
 204.8 -26.9062 l 1
 230.4 -26.9062 l 1
 230.4 25.1465 l 1
 230.4 77.2002 l 1
 307.2 77.2002 l 1
 384 77.2002 l 1
 384 102.8 l 1
 384 128.4 l 1
 410.453 128.4 l 1
 436.906 128.4 l 1
 436.906 179.6 l 1
 436.906 230.8 l 1
 410.453 230.8 l 1
 384 230.8 l 1
 384 256.4 l 1
 384 282 l 1
 410.453 282 l 1
 436.906 282 l 1
 436.906 307.6 l 1
128 -0.453125 m 1
 128 26 l 1
 102.4 26 l 1
 76.7998 26 l 1
 76.7998 -0.453125 l 1
 76.7998 -26.9062 l 1
 102.4 -26.9062 l 1
 128 -26.9062 l 1
 128 -0.453125 l 1
332.8 -0.453125 m 1
 332.8 26 l 1
 307.2 26 l 1
 281.6 26 l 1
 281.6 -0.453125 l 1
 281.6 -26.9062 l 1
 307.2 -26.9062 l 1
 332.8 -26.9062 l 1
 332.8 -0.453125 l 1
436.906 -0.453125 m 1
 436.906 26 l 1
 410.453 26 l 1
 384 26 l 1
 384 -0.453125 l 1
 384 -26.9062 l 1
 410.453 -26.9062 l 1
 436.906 -26.9062 l 1
 436.906 -0.453125 l 1
EndSplineSet
EndChar

StartChar: uni30A4
Encoding: 12452 12452 70
Width: 512
VWidth: 0
Flags: H
LayerCount: 2
Back
Fore
SplineSet
0 154 m 1
 0 410 l 1
 256 410 l 1
 512 410 l 1
 512 154 l 1
 512 -102 l 1
 256 -102 l 1
 0 -102 l 1
 0 154 l 1
436.906 307.6 m 1
 436.906 333.2 l 1
 256.854 333.2 l 1
 76.7998 333.2 l 1
 76.7998 307.6 l 1
 76.7998 282 l 1
 102.4 282 l 1
 128 282 l 1
 128 256.4 l 1
 128 230.8 l 1
 102.4 230.8 l 1
 76.7998 230.8 l 1
 76.7998 205.2 l 1
 76.7998 179.6 l 1
 128 179.6 l 1
 179.2 179.6 l 1
 179.2 154 l 1
 179.2 128.4 l 1
 128 128.4 l 1
 76.7998 128.4 l 1
 76.7998 102.8 l 1
 76.7998 77.2002 l 1
 128 77.2002 l 1
 179.2 77.2002 l 1
 179.2 25.1465 l 1
 179.2 -26.9062 l 1
 204.8 -26.9062 l 1
 230.4 -26.9062 l 1
 230.4 25.1465 l 1
 230.4 77.2002 l 1
 281.6 77.2002 l 1
 332.8 77.2002 l 1
 332.8 51.5996 l 1
 332.8 26 l 1
 307.2 26 l 1
 281.6 26 l 1
 281.6 -0.453125 l 1
 281.6 -26.9062 l 1
 307.2 -26.9062 l 1
 332.8 -26.9062 l 1
 332.8 -0.453125 l 1
 332.8 26 l 1
 358.4 26 l 1
 384 26 l 1
 384 -0.453125 l 1
 384 -26.9062 l 1
 410.453 -26.9062 l 1
 436.906 -26.9062 l 1
 436.906 -0.453125 l 1
 436.906 26 l 1
 410.453 26 l 1
 384 26 l 1
 384 77.2002 l 1
 384 128.4 l 1
 410.453 128.4 l 1
 436.906 128.4 l 1
 436.906 179.6 l 1
 436.906 230.8 l 1
 410.453 230.8 l 1
 384 230.8 l 1
 384 256.4 l 1
 384 282 l 1
 410.453 282 l 1
 436.906 282 l 1
 436.906 307.6 l 1
128 -0.453125 m 1
 128 26 l 1
 102.4 26 l 1
 76.7998 26 l 1
 76.7998 -0.453125 l 1
 76.7998 -26.9062 l 1
 102.4 -26.9062 l 1
 128 -26.9062 l 1
 128 -0.453125 l 1
EndSplineSet
EndChar

StartChar: uni30CA
Encoding: 12490 12490 71
Width: 512
VWidth: 0
Flags: H
LayerCount: 2
Back
Fore
SplineSet
0 154 m 1
 0 410 l 1
 256 410 l 1
 512 410 l 1
 512 154 l 1
 512 -102 l 1
 256 -102 l 1
 0 -102 l 1
 0 154 l 1
436.906 153.146 m 1
 436.906 333.2 l 1
 256.854 333.2 l 1
 76.7998 333.2 l 1
 76.7998 307.6 l 1
 76.7998 282 l 1
 102.4 282 l 1
 128 282 l 1
 128 256.4 l 1
 128 230.8 l 1
 102.4 230.8 l 1
 76.7998 230.8 l 1
 76.7998 205.2 l 1
 76.7998 179.6 l 1
 128 179.6 l 1
 179.2 179.6 l 1
 179.2 128.4 l 1
 179.2 77.2002 l 1
 230.4 77.2002 l 1
 281.6 77.2002 l 1
 281.6 25.1465 l 1
 281.6 -26.9062 l 1
 307.2 -26.9062 l 1
 332.8 -26.9062 l 1
 332.8 -0.453125 l 1
 332.8 26 l 1
 358.4 26 l 1
 384 26 l 1
 384 -0.453125 l 1
 384 -26.9062 l 1
 410.453 -26.9062 l 1
 436.906 -26.9062 l 1
 436.906 153.146 l 1
128 102.8 m 1
 128 128.4 l 1
 102.4 128.4 l 1
 76.7998 128.4 l 1
 76.7998 102.8 l 1
 76.7998 77.2002 l 1
 102.4 77.2002 l 1
 128 77.2002 l 1
 128 102.8 l 1
128 -0.453125 m 1
 128 26 l 1
 102.4 26 l 1
 76.7998 26 l 1
 76.7998 -0.453125 l 1
 76.7998 -26.9062 l 1
 102.4 -26.9062 l 1
 128 -26.9062 l 1
 128 -0.453125 l 1
230.4 -0.453125 m 1
 230.4 26 l 1
 204.8 26 l 1
 179.2 26 l 1
 179.2 -0.453125 l 1
 179.2 -26.9062 l 1
 204.8 -26.9062 l 1
 230.4 -26.9062 l 1
 230.4 -0.453125 l 1
EndSplineSet
EndChar

StartChar: uni3067
Encoding: 12391 12391 72
Width: 512
VWidth: 0
Flags: H
LayerCount: 2
Back
Fore
SplineSet
128 102.8 m 1
 128 128.4 l 1
 153.6 128.4 l 1
 179.2 128.4 l 1
 179.2 102.8 l 1
 179.2 77.2002 l 1
 153.6 77.2002 l 1
 128 77.2002 l 1
 128 102.8 l 1
0 154 m 1
 0 410 l 1
 256 410 l 1
 512 410 l 1
 512 154 l 1
 512 -102 l 1
 256 -102 l 1
 0 -102 l 1
 0 154 l 1
436.906 307.6 m 1
 436.906 333.2 l 1
 256.854 333.2 l 1
 76.7998 333.2 l 1
 76.7998 307.6 l 1
 76.7998 282 l 1
 102.4 282 l 1
 128 282 l 1
 128 256.4 l 1
 128 230.8 l 1
 102.4 230.8 l 1
 76.7998 230.8 l 1
 76.7998 205.2 l 1
 76.7998 179.6 l 1
 102.4 179.6 l 1
 128 179.6 l 1
 128 154 l 1
 128 128.4 l 1
 102.4 128.4 l 1
 76.7998 128.4 l 1
 76.7998 102.8 l 1
 76.7998 77.2002 l 1
 102.4 77.2002 l 1
 128 77.2002 l 1
 128 51.5996 l 1
 128 26 l 1
 102.4 26 l 1
 76.7998 26 l 1
 76.7998 -0.453125 l 1
 76.7998 -26.9062 l 1
 102.4 -26.9062 l 1
 128 -26.9062 l 1
 128 -0.453125 l 1
 128 26 l 1
 153.6 26 l 1
 179.2 26 l 1
 179.2 -0.453125 l 1
 179.2 -26.9062 l 1
 204.8 -26.9062 l 1
 230.4 -26.9062 l 1
 230.4 25.1465 l 1
 230.4 77.2002 l 1
 281.6 77.2002 l 1
 332.8 77.2002 l 1
 332.8 51.5996 l 1
 332.8 26 l 1
 307.2 26 l 1
 281.6 26 l 1
 281.6 -0.453125 l 1
 281.6 -26.9062 l 1
 307.2 -26.9062 l 1
 332.8 -26.9062 l 1
 332.8 -0.453125 l 1
 332.8 26 l 1
 358.4 26 l 1
 384 26 l 1
 384 -0.453125 l 1
 384 -26.9062 l 1
 410.453 -26.9062 l 1
 436.906 -26.9062 l 1
 436.906 50.7471 l 1
 436.906 128.4 l 1
 410.453 128.4 l 1
 384 128.4 l 1
 384 205.2 l 1
 384 282 l 1
 410.453 282 l 1
 436.906 282 l 1
 436.906 307.6 l 1
EndSplineSet
EndChar

StartChar: uni307D
Encoding: 12413 12413 73
Width: 512
VWidth: 0
Flags: H
LayerCount: 2
Back
Fore
SplineSet
0 154 m 1
 0 410 l 1
 256 410 l 1
 512 410 l 1
 512 154 l 1
 512 -102 l 1
 256 -102 l 1
 0 -102 l 1
 0 154 l 1
436.906 282 m 1
 436.906 333.2 l 1
 256.854 333.2 l 1
 76.7998 333.2 l 1
 76.7998 307.6 l 1
 76.7998 282 l 1
 102.4 282 l 1
 128 282 l 1
 128 256.4 l 1
 128 230.8 l 1
 102.4 230.8 l 1
 76.7998 230.8 l 1
 76.7998 205.2 l 1
 76.7998 179.6 l 1
 102.4 179.6 l 1
 128 179.6 l 1
 128 154 l 1
 128 128.4 l 1
 102.4 128.4 l 1
 76.7998 128.4 l 1
 76.7998 102.8 l 1
 76.7998 77.2002 l 1
 102.4 77.2002 l 1
 128 77.2002 l 1
 128 102.8 l 1
 128 128.4 l 1
 153.6 128.4 l 1
 179.2 128.4 l 1
 179.2 102.8 l 1
 179.2 77.2002 l 1
 230.4 77.2002 l 1
 281.6 77.2002 l 1
 281.6 25.1465 l 1
 281.6 -26.9062 l 1
 307.2 -26.9062 l 1
 332.8 -26.9062 l 1
 332.8 -0.453125 l 1
 332.8 26 l 1
 358.4 26 l 1
 384 26 l 1
 384 -0.453125 l 1
 384 -26.9062 l 1
 410.453 -26.9062 l 1
 436.906 -26.9062 l 1
 436.906 -0.453125 l 1
 436.906 26 l 1
 410.453 26 l 1
 384 26 l 1
 384 128.4 l 1
 384 230.8 l 1
 410.453 230.8 l 1
 436.906 230.8 l 1
 436.906 282 l 1
128 -0.453125 m 1
 128 26 l 1
 102.4 26 l 1
 76.7998 26 l 1
 76.7998 -0.453125 l 1
 76.7998 -26.9062 l 1
 102.4 -26.9062 l 1
 128 -26.9062 l 1
 128 -0.453125 l 1
230.4 -0.453125 m 1
 230.4 26 l 1
 204.8 26 l 1
 179.2 26 l 1
 179.2 -0.453125 l 1
 179.2 -26.9062 l 1
 204.8 -26.9062 l 1
 230.4 -26.9062 l 1
 230.4 -0.453125 l 1
EndSplineSet
EndChar

StartChar: uni3041
Encoding: 12353 12353 74
Width: 512
VWidth: 0
Flags: H
LayerCount: 2
Back
Fore
SplineSet
0 154 m 1
 0 410 l 1
 256 410 l 1
 512 410 l 1
 512 154 l 1
 512 -102 l 1
 256 -102 l 1
 0 -102 l 1
 0 154 l 1
436.906 153.146 m 1
 436.906 333.2 l 1
 256.854 333.2 l 1
 76.7998 333.2 l 1
 76.7998 307.6 l 1
 76.7998 282 l 1
 102.4 282 l 1
 128 282 l 1
 128 256.4 l 1
 128 230.8 l 1
 102.4 230.8 l 1
 76.7998 230.8 l 1
 76.7998 205.2 l 1
 76.7998 179.6 l 1
 102.4 179.6 l 1
 128 179.6 l 1
 128 154 l 1
 128 128.4 l 1
 102.4 128.4 l 1
 76.7998 128.4 l 1
 76.7998 102.8 l 1
 76.7998 77.2002 l 1
 102.4 77.2002 l 1
 128 77.2002 l 1
 128 51.5996 l 1
 128 26 l 1
 102.4 26 l 1
 76.7998 26 l 1
 76.7998 -0.453125 l 1
 76.7998 -26.9062 l 1
 102.4 -26.9062 l 1
 128 -26.9062 l 1
 128 -0.453125 l 1
 128 26 l 1
 153.6 26 l 1
 179.2 26 l 1
 179.2 -0.453125 l 1
 179.2 -26.9062 l 1
 204.8 -26.9062 l 1
 230.4 -26.9062 l 1
 230.4 -0.453125 l 1
 230.4 26 l 1
 256 26 l 1
 281.6 26 l 1
 281.6 -0.453125 l 1
 281.6 -26.9062 l 1
 307.2 -26.9062 l 1
 332.8 -26.9062 l 1
 332.8 -0.453125 l 1
 332.8 26 l 1
 358.4 26 l 1
 384 26 l 1
 384 -0.453125 l 1
 384 -26.9062 l 1
 410.453 -26.9062 l 1
 436.906 -26.9062 l 1
 436.906 153.146 l 1
EndSplineSet
EndChar

StartChar: uni30B7
Encoding: 12471 12471 75
Width: 512
VWidth: 0
Flags: H
LayerCount: 2
Back
Fore
SplineSet
179.2 51.5996 m 1
 179.2 77.2002 l 1
 204.8 77.2002 l 1
 230.4 77.2002 l 1
 230.4 51.5996 l 1
 230.4 26 l 1
 204.8 26 l 1
 179.2 26 l 1
 179.2 51.5996 l 1
0 154 m 1
 0 410 l 1
 256 410 l 1
 512 410 l 1
 512 154 l 1
 512 -102 l 1
 256 -102 l 1
 0 -102 l 1
 0 154 l 1
436.906 256.4 m 1
 436.906 333.2 l 1
 256.854 333.2 l 1
 76.7998 333.2 l 1
 76.7998 307.6 l 1
 76.7998 282 l 1
 102.4 282 l 1
 128 282 l 1
 128 256.4 l 1
 128 230.8 l 1
 102.4 230.8 l 1
 76.7998 230.8 l 1
 76.7998 205.2 l 1
 76.7998 179.6 l 1
 128 179.6 l 1
 179.2 179.6 l 1
 179.2 128.4 l 1
 179.2 77.2002 l 1
 153.6 77.2002 l 1
 128 77.2002 l 1
 128 102.8 l 1
 128 128.4 l 1
 102.4 128.4 l 1
 76.7998 128.4 l 1
 76.7998 102.8 l 1
 76.7998 77.2002 l 1
 102.4 77.2002 l 1
 128 77.2002 l 1
 128 51.5996 l 1
 128 26 l 1
 102.4 26 l 1
 76.7998 26 l 1
 76.7998 -0.453125 l 1
 76.7998 -26.9062 l 1
 102.4 -26.9062 l 1
 128 -26.9062 l 1
 128 -0.453125 l 1
 128 26 l 1
 153.6 26 l 1
 179.2 26 l 1
 179.2 -0.453125 l 1
 179.2 -26.9062 l 1
 204.8 -26.9062 l 1
 230.4 -26.9062 l 1
 230.4 -0.453125 l 1
 230.4 26 l 1
 256 26 l 1
 281.6 26 l 1
 281.6 -0.453125 l 1
 281.6 -26.9062 l 1
 307.2 -26.9062 l 1
 332.8 -26.9062 l 1
 332.8 25.1465 l 1
 332.8 77.2002 l 1
 358.4 77.2002 l 1
 384 77.2002 l 1
 384 25.1465 l 1
 384 -26.9062 l 1
 410.453 -26.9062 l 1
 436.906 -26.9062 l 1
 436.906 25.1465 l 1
 436.906 77.2002 l 1
 410.453 77.2002 l 1
 384 77.2002 l 1
 384 128.4 l 1
 384 179.6 l 1
 410.453 179.6 l 1
 436.906 179.6 l 1
 436.906 256.4 l 1
EndSplineSet
EndChar

StartChar: uni30B6
Encoding: 12470 12470 76
Width: 512
VWidth: 0
Flags: H
LayerCount: 2
Back
Fore
SplineSet
179.2 51.5996 m 1
 179.2 77.2002 l 1
 204.8 77.2002 l 1
 230.4 77.2002 l 1
 230.4 51.5996 l 1
 230.4 26 l 1
 204.8 26 l 1
 179.2 26 l 1
 179.2 51.5996 l 1
0 154 m 1
 0 410 l 1
 256 410 l 1
 512 410 l 1
 512 154 l 1
 512 -102 l 1
 256 -102 l 1
 0 -102 l 1
 0 154 l 1
436.906 307.6 m 1
 436.906 333.2 l 1
 256.854 333.2 l 1
 76.7998 333.2 l 1
 76.7998 307.6 l 1
 76.7998 282 l 1
 102.4 282 l 1
 128 282 l 1
 128 256.4 l 1
 128 230.8 l 1
 102.4 230.8 l 1
 76.7998 230.8 l 1
 76.7998 205.2 l 1
 76.7998 179.6 l 1
 128 179.6 l 1
 179.2 179.6 l 1
 179.2 128.4 l 1
 179.2 77.2002 l 1
 153.6 77.2002 l 1
 128 77.2002 l 1
 128 102.8 l 1
 128 128.4 l 1
 102.4 128.4 l 1
 76.7998 128.4 l 1
 76.7998 102.8 l 1
 76.7998 77.2002 l 1
 102.4 77.2002 l 1
 128 77.2002 l 1
 128 51.5996 l 1
 128 26 l 1
 102.4 26 l 1
 76.7998 26 l 1
 76.7998 -0.453125 l 1
 76.7998 -26.9062 l 1
 102.4 -26.9062 l 1
 128 -26.9062 l 1
 128 -0.453125 l 1
 128 26 l 1
 153.6 26 l 1
 179.2 26 l 1
 179.2 -0.453125 l 1
 179.2 -26.9062 l 1
 204.8 -26.9062 l 1
 230.4 -26.9062 l 1
 230.4 -0.453125 l 1
 230.4 26 l 1
 256 26 l 1
 281.6 26 l 1
 281.6 -0.453125 l 1
 281.6 -26.9062 l 1
 307.2 -26.9062 l 1
 332.8 -26.9062 l 1
 332.8 -0.453125 l 1
 332.8 26 l 1
 358.4 26 l 1
 384 26 l 1
 384 -0.453125 l 1
 384 -26.9062 l 1
 410.453 -26.9062 l 1
 436.906 -26.9062 l 1
 436.906 25.1465 l 1
 436.906 77.2002 l 1
 410.453 77.2002 l 1
 384 77.2002 l 1
 384 102.8 l 1
 384 128.4 l 1
 410.453 128.4 l 1
 436.906 128.4 l 1
 436.906 154 l 1
 436.906 179.6 l 1
 410.453 179.6 l 1
 384 179.6 l 1
 384 230.8 l 1
 384 282 l 1
 410.453 282 l 1
 436.906 282 l 1
 436.906 307.6 l 1
EndSplineSet
EndChar

StartChar: uni306B
Encoding: 12395 12395 77
Width: 512
VWidth: 0
Flags: H
LayerCount: 2
Back
Fore
SplineSet
281.6 51.5996 m 1
 281.6 77.2002 l 1
 307.2 77.2002 l 1
 332.8 77.2002 l 1
 332.8 51.5996 l 1
 332.8 26 l 1
 307.2 26 l 1
 281.6 26 l 1
 281.6 51.5996 l 1
128 102.8 m 1
 128 128.4 l 1
 153.6 128.4 l 1
 179.2 128.4 l 1
 179.2 102.8 l 1
 179.2 77.2002 l 1
 204.8 77.2002 l 1
 230.4 77.2002 l 1
 230.4 51.5996 l 1
 230.4 26 l 1
 204.8 26 l 1
 179.2 26 l 1
 179.2 51.5996 l 1
 179.2 77.2002 l 1
 153.6 77.2002 l 1
 128 77.2002 l 1
 128 102.8 l 1
0 154 m 1
 0 410 l 1
 256 410 l 1
 512 410 l 1
 512 154 l 1
 512 -102 l 1
 256 -102 l 1
 0 -102 l 1
 0 154 l 1
436.906 307.6 m 1
 436.906 333.2 l 1
 256.854 333.2 l 1
 76.7998 333.2 l 1
 76.7998 307.6 l 1
 76.7998 282 l 1
 102.4 282 l 1
 128 282 l 1
 128 256.4 l 1
 128 230.8 l 1
 102.4 230.8 l 1
 76.7998 230.8 l 1
 76.7998 205.2 l 1
 76.7998 179.6 l 1
 102.4 179.6 l 1
 128 179.6 l 1
 128 154 l 1
 128 128.4 l 1
 102.4 128.4 l 1
 76.7998 128.4 l 1
 76.7998 102.8 l 1
 76.7998 77.2002 l 1
 102.4 77.2002 l 1
 128 77.2002 l 1
 128 51.5996 l 1
 128 26 l 1
 102.4 26 l 1
 76.7998 26 l 1
 76.7998 -0.453125 l 1
 76.7998 -26.9062 l 1
 102.4 -26.9062 l 1
 128 -26.9062 l 1
 128 -0.453125 l 1
 128 26 l 1
 153.6 26 l 1
 179.2 26 l 1
 179.2 -0.453125 l 1
 179.2 -26.9062 l 1
 204.8 -26.9062 l 1
 230.4 -26.9062 l 1
 230.4 -0.453125 l 1
 230.4 26 l 1
 256 26 l 1
 281.6 26 l 1
 281.6 -0.453125 l 1
 281.6 -26.9062 l 1
 307.2 -26.9062 l 1
 332.8 -26.9062 l 1
 332.8 -0.453125 l 1
 332.8 26 l 1
 358.4 26 l 1
 384 26 l 1
 384 -0.453125 l 1
 384 -26.9062 l 1
 410.453 -26.9062 l 1
 436.906 -26.9062 l 1
 436.906 25.1465 l 1
 436.906 77.2002 l 1
 410.453 77.2002 l 1
 384 77.2002 l 1
 384 102.8 l 1
 384 128.4 l 1
 410.453 128.4 l 1
 436.906 128.4 l 1
 436.906 154 l 1
 436.906 179.6 l 1
 410.453 179.6 l 1
 384 179.6 l 1
 384 230.8 l 1
 384 282 l 1
 410.453 282 l 1
 436.906 282 l 1
 436.906 307.6 l 1
EndSplineSet
EndChar

StartChar: uni3069
Encoding: 12393 12393 78
Width: 512
VWidth: 0
Flags: H
LayerCount: 2
Back
Fore
SplineSet
128 102.8 m 1
 128 128.4 l 1
 153.6 128.4 l 1
 179.2 128.4 l 1
 179.2 102.8 l 1
 179.2 77.2002 l 1
 204.8 77.2002 l 1
 230.4 77.2002 l 1
 230.4 51.5996 l 1
 230.4 26 l 1
 204.8 26 l 1
 179.2 26 l 1
 179.2 51.5996 l 1
 179.2 77.2002 l 1
 153.6 77.2002 l 1
 128 77.2002 l 1
 128 102.8 l 1
0 154 m 1
 0 410 l 1
 256 410 l 1
 512 410 l 1
 512 154 l 1
 512 -102 l 1
 256 -102 l 1
 0 -102 l 1
 0 154 l 1
436.906 307.6 m 1
 436.906 333.2 l 1
 256.854 333.2 l 1
 76.7998 333.2 l 1
 76.7998 307.6 l 1
 76.7998 282 l 1
 102.4 282 l 1
 128 282 l 1
 128 256.4 l 1
 128 230.8 l 1
 102.4 230.8 l 1
 76.7998 230.8 l 1
 76.7998 205.2 l 1
 76.7998 179.6 l 1
 102.4 179.6 l 1
 128 179.6 l 1
 128 154 l 1
 128 128.4 l 1
 102.4 128.4 l 1
 76.7998 128.4 l 1
 76.7998 102.8 l 1
 76.7998 77.2002 l 1
 102.4 77.2002 l 1
 128 77.2002 l 1
 128 51.5996 l 1
 128 26 l 1
 102.4 26 l 1
 76.7998 26 l 1
 76.7998 -0.453125 l 1
 76.7998 -26.9062 l 1
 102.4 -26.9062 l 1
 128 -26.9062 l 1
 128 -0.453125 l 1
 128 26 l 1
 153.6 26 l 1
 179.2 26 l 1
 179.2 -0.453125 l 1
 179.2 -26.9062 l 1
 204.8 -26.9062 l 1
 230.4 -26.9062 l 1
 230.4 -0.453125 l 1
 230.4 26 l 1
 256 26 l 1
 281.6 26 l 1
 281.6 -0.453125 l 1
 281.6 -26.9062 l 1
 307.2 -26.9062 l 1
 332.8 -26.9062 l 1
 332.8 -0.453125 l 1
 332.8 26 l 1
 358.4 26 l 1
 384 26 l 1
 384 -0.453125 l 1
 384 -26.9062 l 1
 410.453 -26.9062 l 1
 436.906 -26.9062 l 1
 436.906 25.1465 l 1
 436.906 77.2002 l 1
 410.453 77.2002 l 1
 384 77.2002 l 1
 384 102.8 l 1
 384 128.4 l 1
 410.453 128.4 l 1
 436.906 128.4 l 1
 436.906 179.6 l 1
 436.906 230.8 l 1
 410.453 230.8 l 1
 384 230.8 l 1
 384 256.4 l 1
 384 282 l 1
 410.453 282 l 1
 436.906 282 l 1
 436.906 307.6 l 1
EndSplineSet
EndChar

StartChar: uni305A
Encoding: 12378 12378 79
Width: 512
VWidth: 0
Flags: H
LayerCount: 2
Back
Fore
SplineSet
0 154 m 1
 0 410 l 1
 256 410 l 1
 512 410 l 1
 512 154 l 1
 512 -102 l 1
 256 -102 l 1
 0 -102 l 1
 0 154 l 1
436.906 282 m 1
 436.906 333.2 l 1
 256.854 333.2 l 1
 76.7998 333.2 l 1
 76.7998 307.6 l 1
 76.7998 282 l 1
 102.4 282 l 1
 128 282 l 1
 128 256.4 l 1
 128 230.8 l 1
 102.4 230.8 l 1
 76.7998 230.8 l 1
 76.7998 205.2 l 1
 76.7998 179.6 l 1
 102.4 179.6 l 1
 128 179.6 l 1
 128 154 l 1
 128 128.4 l 1
 102.4 128.4 l 1
 76.7998 128.4 l 1
 76.7998 102.8 l 1
 76.7998 77.2002 l 1
 153.6 77.2002 l 1
 230.4 77.2002 l 1
 230.4 51.5996 l 1
 230.4 26 l 1
 204.8 26 l 1
 179.2 26 l 1
 179.2 -0.453125 l 1
 179.2 -26.9062 l 1
 204.8 -26.9062 l 1
 230.4 -26.9062 l 1
 230.4 -0.453125 l 1
 230.4 26 l 1
 256 26 l 1
 281.6 26 l 1
 281.6 -0.453125 l 1
 281.6 -26.9062 l 1
 307.2 -26.9062 l 1
 332.8 -26.9062 l 1
 332.8 25.1465 l 1
 332.8 77.2002 l 1
 358.4 77.2002 l 1
 384 77.2002 l 1
 384 102.8 l 1
 384 128.4 l 1
 410.453 128.4 l 1
 436.906 128.4 l 1
 436.906 154 l 1
 436.906 179.6 l 1
 410.453 179.6 l 1
 384 179.6 l 1
 384 205.2 l 1
 384 230.8 l 1
 410.453 230.8 l 1
 436.906 230.8 l 1
 436.906 282 l 1
128 -0.453125 m 1
 128 26 l 1
 102.4 26 l 1
 76.7998 26 l 1
 76.7998 -0.453125 l 1
 76.7998 -26.9062 l 1
 102.4 -26.9062 l 1
 128 -26.9062 l 1
 128 -0.453125 l 1
436.906 -0.453125 m 1
 436.906 26 l 1
 410.453 26 l 1
 384 26 l 1
 384 -0.453125 l 1
 384 -26.9062 l 1
 410.453 -26.9062 l 1
 436.906 -26.9062 l 1
 436.906 -0.453125 l 1
EndSplineSet
EndChar

StartChar: uni30C7
Encoding: 12487 12487 80
Width: 512
VWidth: 0
Flags: H
LayerCount: 2
Back
Fore
SplineSet
0 154 m 1
 0 410 l 1
 256 410 l 1
 512 410 l 1
 512 154 l 1
 512 -102 l 1
 256 -102 l 1
 0 -102 l 1
 0 154 l 1
436.906 307.6 m 1
 436.906 333.2 l 1
 256.854 333.2 l 1
 76.7998 333.2 l 1
 76.7998 307.6 l 1
 76.7998 282 l 1
 102.4 282 l 1
 128 282 l 1
 128 256.4 l 1
 128 230.8 l 1
 102.4 230.8 l 1
 76.7998 230.8 l 1
 76.7998 205.2 l 1
 76.7998 179.6 l 1
 128 179.6 l 1
 179.2 179.6 l 1
 179.2 128.4 l 1
 179.2 77.2002 l 1
 204.8 77.2002 l 1
 230.4 77.2002 l 1
 230.4 51.5996 l 1
 230.4 26 l 1
 204.8 26 l 1
 179.2 26 l 1
 179.2 -0.453125 l 1
 179.2 -26.9062 l 1
 204.8 -26.9062 l 1
 230.4 -26.9062 l 1
 230.4 -0.453125 l 1
 230.4 26 l 1
 256 26 l 1
 281.6 26 l 1
 281.6 -0.453125 l 1
 281.6 -26.9062 l 1
 307.2 -26.9062 l 1
 332.8 -26.9062 l 1
 332.8 25.1465 l 1
 332.8 77.2002 l 1
 358.4 77.2002 l 1
 384 77.2002 l 1
 384 128.4 l 1
 384 179.6 l 1
 410.453 179.6 l 1
 436.906 179.6 l 1
 436.906 205.2 l 1
 436.906 230.8 l 1
 410.453 230.8 l 1
 384 230.8 l 1
 384 256.4 l 1
 384 282 l 1
 410.453 282 l 1
 436.906 282 l 1
 436.906 307.6 l 1
128 102.8 m 1
 128 128.4 l 1
 102.4 128.4 l 1
 76.7998 128.4 l 1
 76.7998 102.8 l 1
 76.7998 77.2002 l 1
 102.4 77.2002 l 1
 128 77.2002 l 1
 128 102.8 l 1
128 -0.453125 m 1
 128 26 l 1
 102.4 26 l 1
 76.7998 26 l 1
 76.7998 -0.453125 l 1
 76.7998 -26.9062 l 1
 102.4 -26.9062 l 1
 128 -26.9062 l 1
 128 -0.453125 l 1
436.906 -0.453125 m 1
 436.906 26 l 1
 410.453 26 l 1
 384 26 l 1
 384 -0.453125 l 1
 384 -26.9062 l 1
 410.453 -26.9062 l 1
 436.906 -26.9062 l 1
 436.906 -0.453125 l 1
EndSplineSet
EndChar

StartChar: uni30BC
Encoding: 12476 12476 81
Width: 512
VWidth: 0
Flags: H
LayerCount: 2
Back
Fore
SplineSet
0 154 m 1
 0 410 l 1
 256 410 l 1
 512 410 l 1
 512 154 l 1
 512 -102 l 1
 256 -102 l 1
 0 -102 l 1
 0 154 l 1
436.906 307.6 m 1
 436.906 333.2 l 1
 256.854 333.2 l 1
 76.7998 333.2 l 1
 76.7998 307.6 l 1
 76.7998 282 l 1
 102.4 282 l 1
 128 282 l 1
 128 256.4 l 1
 128 230.8 l 1
 102.4 230.8 l 1
 76.7998 230.8 l 1
 76.7998 205.2 l 1
 76.7998 179.6 l 1
 128 179.6 l 1
 179.2 179.6 l 1
 179.2 128.4 l 1
 179.2 77.2002 l 1
 153.6 77.2002 l 1
 128 77.2002 l 1
 128 102.8 l 1
 128 128.4 l 1
 102.4 128.4 l 1
 76.7998 128.4 l 1
 76.7998 102.8 l 1
 76.7998 77.2002 l 1
 102.4 77.2002 l 1
 128 77.2002 l 1
 128 51.5996 l 1
 128 26 l 1
 102.4 26 l 1
 76.7998 26 l 1
 76.7998 -0.453125 l 1
 76.7998 -26.9062 l 1
 102.4 -26.9062 l 1
 128 -26.9062 l 1
 128 -0.453125 l 1
 128 26 l 1
 153.6 26 l 1
 179.2 26 l 1
 179.2 -0.453125 l 1
 179.2 -26.9062 l 1
 204.8 -26.9062 l 1
 230.4 -26.9062 l 1
 230.4 -0.453125 l 1
 230.4 26 l 1
 204.8 26 l 1
 179.2 26 l 1
 179.2 51.5996 l 1
 179.2 77.2002 l 1
 256 77.2002 l 1
 332.8 77.2002 l 1
 332.8 51.5996 l 1
 332.8 26 l 1
 307.2 26 l 1
 281.6 26 l 1
 281.6 -0.453125 l 1
 281.6 -26.9062 l 1
 307.2 -26.9062 l 1
 332.8 -26.9062 l 1
 332.8 -0.453125 l 1
 332.8 26 l 1
 358.4 26 l 1
 384 26 l 1
 384 -0.453125 l 1
 384 -26.9062 l 1
 410.453 -26.9062 l 1
 436.906 -26.9062 l 1
 436.906 -0.453125 l 1
 436.906 26 l 1
 410.453 26 l 1
 384 26 l 1
 384 51.5996 l 1
 384 77.2002 l 1
 410.453 77.2002 l 1
 436.906 77.2002 l 1
 436.906 154 l 1
 436.906 230.8 l 1
 410.453 230.8 l 1
 384 230.8 l 1
 384 256.4 l 1
 384 282 l 1
 410.453 282 l 1
 436.906 282 l 1
 436.906 307.6 l 1
EndSplineSet
EndChar

StartChar: uni307C
Encoding: 12412 12412 82
Width: 512
VWidth: 0
Flags: H
LayerCount: 2
Back
Fore
SplineSet
0 154 m 1
 0 410 l 1
 256 410 l 1
 512 410 l 1
 512 154 l 1
 512 -102 l 1
 256 -102 l 1
 0 -102 l 1
 0 154 l 1
436.906 307.6 m 1
 436.906 333.2 l 1
 256.854 333.2 l 1
 76.7998 333.2 l 1
 76.7998 307.6 l 1
 76.7998 282 l 1
 102.4 282 l 1
 128 282 l 1
 128 256.4 l 1
 128 230.8 l 1
 102.4 230.8 l 1
 76.7998 230.8 l 1
 76.7998 205.2 l 1
 76.7998 179.6 l 1
 102.4 179.6 l 1
 128 179.6 l 1
 128 154 l 1
 128 128.4 l 1
 102.4 128.4 l 1
 76.7998 128.4 l 1
 76.7998 102.8 l 1
 76.7998 77.2002 l 1
 102.4 77.2002 l 1
 128 77.2002 l 1
 128 102.8 l 1
 128 128.4 l 1
 153.6 128.4 l 1
 179.2 128.4 l 1
 179.2 102.8 l 1
 179.2 77.2002 l 1
 204.8 77.2002 l 1
 230.4 77.2002 l 1
 230.4 51.5996 l 1
 230.4 26 l 1
 204.8 26 l 1
 179.2 26 l 1
 179.2 -0.453125 l 1
 179.2 -26.9062 l 1
 204.8 -26.9062 l 1
 230.4 -26.9062 l 1
 230.4 -0.453125 l 1
 230.4 26 l 1
 256 26 l 1
 281.6 26 l 1
 281.6 -0.453125 l 1
 281.6 -26.9062 l 1
 307.2 -26.9062 l 1
 332.8 -26.9062 l 1
 332.8 -0.453125 l 1
 332.8 26 l 1
 307.2 26 l 1
 281.6 26 l 1
 281.6 51.5996 l 1
 281.6 77.2002 l 1
 332.8 77.2002 l 1
 384 77.2002 l 1
 384 128.4 l 1
 384 179.6 l 1
 410.453 179.6 l 1
 436.906 179.6 l 1
 436.906 205.2 l 1
 436.906 230.8 l 1
 410.453 230.8 l 1
 384 230.8 l 1
 384 256.4 l 1
 384 282 l 1
 410.453 282 l 1
 436.906 282 l 1
 436.906 307.6 l 1
128 -0.453125 m 1
 128 26 l 1
 102.4 26 l 1
 76.7998 26 l 1
 76.7998 -0.453125 l 1
 76.7998 -26.9062 l 1
 102.4 -26.9062 l 1
 128 -26.9062 l 1
 128 -0.453125 l 1
436.906 -0.453125 m 1
 436.906 26 l 1
 410.453 26 l 1
 384 26 l 1
 384 -0.453125 l 1
 384 -26.9062 l 1
 410.453 -26.9062 l 1
 436.906 -26.9062 l 1
 436.906 -0.453125 l 1
EndSplineSet
EndChar

StartChar: uni3066
Encoding: 12390 12390 83
Width: 512
VWidth: 0
Flags: H
LayerCount: 2
Back
Fore
SplineSet
128 102.8 m 1
 128 128.4 l 1
 153.6 128.4 l 1
 179.2 128.4 l 1
 179.2 102.8 l 1
 179.2 77.2002 l 1
 153.6 77.2002 l 1
 128 77.2002 l 1
 128 102.8 l 1
0 154 m 1
 0 410 l 1
 256 410 l 1
 512 410 l 1
 512 154 l 1
 512 -102 l 1
 256 -102 l 1
 0 -102 l 1
 0 154 l 1
436.906 282 m 1
 436.906 333.2 l 1
 256.854 333.2 l 1
 76.7998 333.2 l 1
 76.7998 307.6 l 1
 76.7998 282 l 1
 102.4 282 l 1
 128 282 l 1
 128 256.4 l 1
 128 230.8 l 1
 102.4 230.8 l 1
 76.7998 230.8 l 1
 76.7998 205.2 l 1
 76.7998 179.6 l 1
 102.4 179.6 l 1
 128 179.6 l 1
 128 154 l 1
 128 128.4 l 1
 102.4 128.4 l 1
 76.7998 128.4 l 1
 76.7998 102.8 l 1
 76.7998 77.2002 l 1
 102.4 77.2002 l 1
 128 77.2002 l 1
 128 51.5996 l 1
 128 26 l 1
 102.4 26 l 1
 76.7998 26 l 1
 76.7998 -0.453125 l 1
 76.7998 -26.9062 l 1
 102.4 -26.9062 l 1
 128 -26.9062 l 1
 128 -0.453125 l 1
 128 26 l 1
 153.6 26 l 1
 179.2 26 l 1
 179.2 -0.453125 l 1
 179.2 -26.9062 l 1
 204.8 -26.9062 l 1
 230.4 -26.9062 l 1
 230.4 25.1465 l 1
 230.4 77.2002 l 1
 256 77.2002 l 1
 281.6 77.2002 l 1
 281.6 25.1465 l 1
 281.6 -26.9062 l 1
 307.2 -26.9062 l 1
 332.8 -26.9062 l 1
 332.8 25.1465 l 1
 332.8 77.2002 l 1
 358.4 77.2002 l 1
 384 77.2002 l 1
 384 25.1465 l 1
 384 -26.9062 l 1
 410.453 -26.9062 l 1
 436.906 -26.9062 l 1
 436.906 50.7471 l 1
 436.906 128.4 l 1
 410.453 128.4 l 1
 384 128.4 l 1
 384 179.6 l 1
 384 230.8 l 1
 410.453 230.8 l 1
 436.906 230.8 l 1
 436.906 282 l 1
EndSplineSet
EndChar

StartChar: uni3093
Encoding: 12435 12435 84
Width: 512
VWidth: 0
Flags: H
LayerCount: 2
Back
Fore
SplineSet
281.6 51.5996 m 1
 281.6 77.2002 l 1
 307.2 77.2002 l 1
 332.8 77.2002 l 1
 332.8 51.5996 l 1
 332.8 26 l 1
 307.2 26 l 1
 281.6 26 l 1
 281.6 51.5996 l 1
0 154 m 1
 0 410 l 1
 256 410 l 1
 512 410 l 1
 512 154 l 1
 512 -102 l 1
 256 -102 l 1
 0 -102 l 1
 0 154 l 1
436.906 256.4 m 1
 436.906 333.2 l 1
 256.854 333.2 l 1
 76.7998 333.2 l 1
 76.7998 307.6 l 1
 76.7998 282 l 1
 102.4 282 l 1
 128 282 l 1
 128 256.4 l 1
 128 230.8 l 1
 102.4 230.8 l 1
 76.7998 230.8 l 1
 76.7998 205.2 l 1
 76.7998 179.6 l 1
 128 179.6 l 1
 179.2 179.6 l 1
 179.2 154 l 1
 179.2 128.4 l 1
 128 128.4 l 1
 76.7998 128.4 l 1
 76.7998 102.8 l 1
 76.7998 77.2002 l 1
 128 77.2002 l 1
 179.2 77.2002 l 1
 179.2 25.1465 l 1
 179.2 -26.9062 l 1
 204.8 -26.9062 l 1
 230.4 -26.9062 l 1
 230.4 -0.453125 l 1
 230.4 26 l 1
 256 26 l 1
 281.6 26 l 1
 281.6 -0.453125 l 1
 281.6 -26.9062 l 1
 307.2 -26.9062 l 1
 332.8 -26.9062 l 1
 332.8 -0.453125 l 1
 332.8 26 l 1
 358.4 26 l 1
 384 26 l 1
 384 -0.453125 l 1
 384 -26.9062 l 1
 410.453 -26.9062 l 1
 436.906 -26.9062 l 1
 436.906 -0.453125 l 1
 436.906 26 l 1
 410.453 26 l 1
 384 26 l 1
 384 51.5996 l 1
 384 77.2002 l 1
 410.453 77.2002 l 1
 436.906 77.2002 l 1
 436.906 102.8 l 1
 436.906 128.4 l 1
 410.453 128.4 l 1
 384 128.4 l 1
 384 154 l 1
 384 179.6 l 1
 410.453 179.6 l 1
 436.906 179.6 l 1
 436.906 256.4 l 1
128 -0.453125 m 1
 128 26 l 1
 102.4 26 l 1
 76.7998 26 l 1
 76.7998 -0.453125 l 1
 76.7998 -26.9062 l 1
 102.4 -26.9062 l 1
 128 -26.9062 l 1
 128 -0.453125 l 1
EndSplineSet
EndChar

StartChar: uni307B
Encoding: 12411 12411 85
Width: 512
VWidth: 0
Flags: H
LayerCount: 2
Back
Fore
SplineSet
281.6 51.5996 m 1
 281.6 77.2002 l 1
 307.2 77.2002 l 1
 332.8 77.2002 l 1
 332.8 51.5996 l 1
 332.8 26 l 1
 307.2 26 l 1
 281.6 26 l 1
 281.6 51.5996 l 1
0 154 m 1
 0 410 l 1
 256 410 l 1
 512 410 l 1
 512 154 l 1
 512 -102 l 1
 256 -102 l 1
 0 -102 l 1
 0 154 l 1
436.906 256.4 m 1
 436.906 333.2 l 1
 256.854 333.2 l 1
 76.7998 333.2 l 1
 76.7998 307.6 l 1
 76.7998 282 l 1
 102.4 282 l 1
 128 282 l 1
 128 256.4 l 1
 128 230.8 l 1
 102.4 230.8 l 1
 76.7998 230.8 l 1
 76.7998 205.2 l 1
 76.7998 179.6 l 1
 102.4 179.6 l 1
 128 179.6 l 1
 128 154 l 1
 128 128.4 l 1
 102.4 128.4 l 1
 76.7998 128.4 l 1
 76.7998 102.8 l 1
 76.7998 77.2002 l 1
 102.4 77.2002 l 1
 128 77.2002 l 1
 128 102.8 l 1
 128 128.4 l 1
 153.6 128.4 l 1
 179.2 128.4 l 1
 179.2 102.8 l 1
 179.2 77.2002 l 1
 204.8 77.2002 l 1
 230.4 77.2002 l 1
 230.4 51.5996 l 1
 230.4 26 l 1
 204.8 26 l 1
 179.2 26 l 1
 179.2 -0.453125 l 1
 179.2 -26.9062 l 1
 204.8 -26.9062 l 1
 230.4 -26.9062 l 1
 230.4 -0.453125 l 1
 230.4 26 l 1
 256 26 l 1
 281.6 26 l 1
 281.6 -0.453125 l 1
 281.6 -26.9062 l 1
 307.2 -26.9062 l 1
 332.8 -26.9062 l 1
 332.8 -0.453125 l 1
 332.8 26 l 1
 358.4 26 l 1
 384 26 l 1
 384 -0.453125 l 1
 384 -26.9062 l 1
 410.453 -26.9062 l 1
 436.906 -26.9062 l 1
 436.906 -0.453125 l 1
 436.906 26 l 1
 410.453 26 l 1
 384 26 l 1
 384 102.8 l 1
 384 179.6 l 1
 410.453 179.6 l 1
 436.906 179.6 l 1
 436.906 256.4 l 1
128 -0.453125 m 1
 128 26 l 1
 102.4 26 l 1
 76.7998 26 l 1
 76.7998 -0.453125 l 1
 76.7998 -26.9062 l 1
 102.4 -26.9062 l 1
 128 -26.9062 l 1
 128 -0.453125 l 1
EndSplineSet
EndChar

StartChar: uni30C4
Encoding: 12484 12484 86
Width: 512
VWidth: 0
Flags: H
LayerCount: 2
Back
Fore
SplineSet
0 154 m 1
 0 410 l 1
 256 410 l 1
 512 410 l 1
 512 154 l 1
 512 -102 l 1
 256 -102 l 1
 0 -102 l 1
 0 154 l 1
436.906 282 m 1
 436.906 333.2 l 1
 256.854 333.2 l 1
 76.7998 333.2 l 1
 76.7998 307.6 l 1
 76.7998 282 l 1
 102.4 282 l 1
 128 282 l 1
 128 256.4 l 1
 128 230.8 l 1
 102.4 230.8 l 1
 76.7998 230.8 l 1
 76.7998 205.2 l 1
 76.7998 179.6 l 1
 128 179.6 l 1
 179.2 179.6 l 1
 179.2 76.3467 l 1
 179.2 -26.9062 l 1
 204.8 -26.9062 l 1
 230.4 -26.9062 l 1
 230.4 25.1465 l 1
 230.4 77.2002 l 1
 281.6 77.2002 l 1
 332.8 77.2002 l 1
 332.8 51.5996 l 1
 332.8 26 l 1
 307.2 26 l 1
 281.6 26 l 1
 281.6 -0.453125 l 1
 281.6 -26.9062 l 1
 307.2 -26.9062 l 1
 332.8 -26.9062 l 1
 332.8 -0.453125 l 1
 332.8 26 l 1
 358.4 26 l 1
 384 26 l 1
 384 -0.453125 l 1
 384 -26.9062 l 1
 410.453 -26.9062 l 1
 436.906 -26.9062 l 1
 436.906 -0.453125 l 1
 436.906 26 l 1
 410.453 26 l 1
 384 26 l 1
 384 77.2002 l 1
 384 128.4 l 1
 410.453 128.4 l 1
 436.906 128.4 l 1
 436.906 154 l 1
 436.906 179.6 l 1
 410.453 179.6 l 1
 384 179.6 l 1
 384 205.2 l 1
 384 230.8 l 1
 410.453 230.8 l 1
 436.906 230.8 l 1
 436.906 282 l 1
128 102.8 m 1
 128 128.4 l 1
 102.4 128.4 l 1
 76.7998 128.4 l 1
 76.7998 102.8 l 1
 76.7998 77.2002 l 1
 102.4 77.2002 l 1
 128 77.2002 l 1
 128 102.8 l 1
128 -0.453125 m 1
 128 26 l 1
 102.4 26 l 1
 76.7998 26 l 1
 76.7998 -0.453125 l 1
 76.7998 -26.9062 l 1
 102.4 -26.9062 l 1
 128 -26.9062 l 1
 128 -0.453125 l 1
EndSplineSet
EndChar

StartChar: uni3062
Encoding: 12386 12386 87
Width: 512
VWidth: 0
Flags: H
LayerCount: 2
Back
Fore
SplineSet
128 102.8 m 1
 128 128.4 l 1
 153.6 128.4 l 1
 179.2 128.4 l 1
 179.2 102.8 l 1
 179.2 77.2002 l 1
 153.6 77.2002 l 1
 128 77.2002 l 1
 128 102.8 l 1
0 154 m 1
 0 410 l 1
 256 410 l 1
 512 410 l 1
 512 154 l 1
 512 -102 l 1
 256 -102 l 1
 0 -102 l 1
 0 154 l 1
436.906 282 m 1
 436.906 333.2 l 1
 256.854 333.2 l 1
 76.7998 333.2 l 1
 76.7998 307.6 l 1
 76.7998 282 l 1
 102.4 282 l 1
 128 282 l 1
 128 256.4 l 1
 128 230.8 l 1
 102.4 230.8 l 1
 76.7998 230.8 l 1
 76.7998 205.2 l 1
 76.7998 179.6 l 1
 102.4 179.6 l 1
 128 179.6 l 1
 128 154 l 1
 128 128.4 l 1
 102.4 128.4 l 1
 76.7998 128.4 l 1
 76.7998 102.8 l 1
 76.7998 77.2002 l 1
 102.4 77.2002 l 1
 128 77.2002 l 1
 128 51.5996 l 1
 128 26 l 1
 102.4 26 l 1
 76.7998 26 l 1
 76.7998 -0.453125 l 1
 76.7998 -26.9062 l 1
 102.4 -26.9062 l 1
 128 -26.9062 l 1
 128 -0.453125 l 1
 128 26 l 1
 153.6 26 l 1
 179.2 26 l 1
 179.2 -0.453125 l 1
 179.2 -26.9062 l 1
 204.8 -26.9062 l 1
 230.4 -26.9062 l 1
 230.4 -0.453125 l 1
 230.4 26 l 1
 256 26 l 1
 281.6 26 l 1
 281.6 -0.453125 l 1
 281.6 -26.9062 l 1
 307.2 -26.9062 l 1
 332.8 -26.9062 l 1
 332.8 25.1465 l 1
 332.8 77.2002 l 1
 358.4 77.2002 l 1
 384 77.2002 l 1
 384 25.1465 l 1
 384 -26.9062 l 1
 410.453 -26.9062 l 1
 436.906 -26.9062 l 1
 436.906 76.3467 l 1
 436.906 179.6 l 1
 410.453 179.6 l 1
 384 179.6 l 1
 384 205.2 l 1
 384 230.8 l 1
 410.453 230.8 l 1
 436.906 230.8 l 1
 436.906 282 l 1
EndSplineSet
EndChar

StartChar: uni30CC
Encoding: 12492 12492 88
Width: 512
VWidth: 0
Flags: H
LayerCount: 2
Back
Fore
SplineSet
0 154 m 1
 0 410 l 1
 256 410 l 1
 512 410 l 1
 512 154 l 1
 512 -102 l 1
 256 -102 l 1
 0 -102 l 1
 0 154 l 1
436.906 282 m 1
 436.906 333.2 l 1
 256.854 333.2 l 1
 76.7998 333.2 l 1
 76.7998 307.6 l 1
 76.7998 282 l 1
 102.4 282 l 1
 128 282 l 1
 128 256.4 l 1
 128 230.8 l 1
 102.4 230.8 l 1
 76.7998 230.8 l 1
 76.7998 205.2 l 1
 76.7998 179.6 l 1
 128 179.6 l 1
 179.2 179.6 l 1
 179.2 128.4 l 1
 179.2 77.2002 l 1
 256 77.2002 l 1
 332.8 77.2002 l 1
 332.8 51.5996 l 1
 332.8 26 l 1
 307.2 26 l 1
 281.6 26 l 1
 281.6 -0.453125 l 1
 281.6 -26.9062 l 1
 307.2 -26.9062 l 1
 332.8 -26.9062 l 1
 332.8 -0.453125 l 1
 332.8 26 l 1
 358.4 26 l 1
 384 26 l 1
 384 -0.453125 l 1
 384 -26.9062 l 1
 410.453 -26.9062 l 1
 436.906 -26.9062 l 1
 436.906 76.3467 l 1
 436.906 179.6 l 1
 410.453 179.6 l 1
 384 179.6 l 1
 384 205.2 l 1
 384 230.8 l 1
 410.453 230.8 l 1
 436.906 230.8 l 1
 436.906 282 l 1
128 102.8 m 1
 128 128.4 l 1
 102.4 128.4 l 1
 76.7998 128.4 l 1
 76.7998 102.8 l 1
 76.7998 77.2002 l 1
 102.4 77.2002 l 1
 128 77.2002 l 1
 128 102.8 l 1
128 -0.453125 m 1
 128 26 l 1
 102.4 26 l 1
 76.7998 26 l 1
 76.7998 -0.453125 l 1
 76.7998 -26.9062 l 1
 102.4 -26.9062 l 1
 128 -26.9062 l 1
 128 -0.453125 l 1
230.4 -0.453125 m 1
 230.4 26 l 1
 204.8 26 l 1
 179.2 26 l 1
 179.2 -0.453125 l 1
 179.2 -26.9062 l 1
 204.8 -26.9062 l 1
 230.4 -26.9062 l 1
 230.4 -0.453125 l 1
EndSplineSet
EndChar

StartChar: uni30A5
Encoding: 12453 12453 89
Width: 512
VWidth: 0
Flags: H
LayerCount: 2
Back
Fore
SplineSet
0 154 m 1
 0 410 l 1
 256 410 l 1
 512 410 l 1
 512 154 l 1
 512 -102 l 1
 256 -102 l 1
 0 -102 l 1
 0 154 l 1
436.906 282 m 1
 436.906 333.2 l 1
 256.854 333.2 l 1
 76.7998 333.2 l 1
 76.7998 307.6 l 1
 76.7998 282 l 1
 102.4 282 l 1
 128 282 l 1
 128 256.4 l 1
 128 230.8 l 1
 102.4 230.8 l 1
 76.7998 230.8 l 1
 76.7998 205.2 l 1
 76.7998 179.6 l 1
 128 179.6 l 1
 179.2 179.6 l 1
 179.2 154 l 1
 179.2 128.4 l 1
 128 128.4 l 1
 76.7998 128.4 l 1
 76.7998 102.8 l 1
 76.7998 77.2002 l 1
 128 77.2002 l 1
 179.2 77.2002 l 1
 179.2 25.1465 l 1
 179.2 -26.9062 l 1
 204.8 -26.9062 l 1
 230.4 -26.9062 l 1
 230.4 25.1465 l 1
 230.4 77.2002 l 1
 307.2 77.2002 l 1
 384 77.2002 l 1
 384 102.8 l 1
 384 128.4 l 1
 410.453 128.4 l 1
 436.906 128.4 l 1
 436.906 154 l 1
 436.906 179.6 l 1
 410.453 179.6 l 1
 384 179.6 l 1
 384 205.2 l 1
 384 230.8 l 1
 410.453 230.8 l 1
 436.906 230.8 l 1
 436.906 282 l 1
128 -0.453125 m 1
 128 26 l 1
 102.4 26 l 1
 76.7998 26 l 1
 76.7998 -0.453125 l 1
 76.7998 -26.9062 l 1
 102.4 -26.9062 l 1
 128 -26.9062 l 1
 128 -0.453125 l 1
332.8 -0.453125 m 1
 332.8 26 l 1
 307.2 26 l 1
 281.6 26 l 1
 281.6 -0.453125 l 1
 281.6 -26.9062 l 1
 307.2 -26.9062 l 1
 332.8 -26.9062 l 1
 332.8 -0.453125 l 1
436.906 -0.453125 m 1
 436.906 26 l 1
 410.453 26 l 1
 384 26 l 1
 384 -0.453125 l 1
 384 -26.9062 l 1
 410.453 -26.9062 l 1
 436.906 -26.9062 l 1
 436.906 -0.453125 l 1
EndSplineSet
EndChar

StartChar: uni3079
Encoding: 12409 12409 90
Width: 512
VWidth: 0
Flags: H
LayerCount: 2
Back
Fore
SplineSet
0 154 m 1
 0 410 l 1
 256 410 l 1
 512 410 l 1
 512 154 l 1
 512 -102 l 1
 256 -102 l 1
 0 -102 l 1
 0 154 l 1
436.906 282 m 1
 436.906 333.2 l 1
 256.854 333.2 l 1
 76.7998 333.2 l 1
 76.7998 307.6 l 1
 76.7998 282 l 1
 102.4 282 l 1
 128 282 l 1
 128 256.4 l 1
 128 230.8 l 1
 102.4 230.8 l 1
 76.7998 230.8 l 1
 76.7998 205.2 l 1
 76.7998 179.6 l 1
 102.4 179.6 l 1
 128 179.6 l 1
 128 154 l 1
 128 128.4 l 1
 102.4 128.4 l 1
 76.7998 128.4 l 1
 76.7998 102.8 l 1
 76.7998 77.2002 l 1
 102.4 77.2002 l 1
 128 77.2002 l 1
 128 102.8 l 1
 128 128.4 l 1
 153.6 128.4 l 1
 179.2 128.4 l 1
 179.2 102.8 l 1
 179.2 77.2002 l 1
 204.8 77.2002 l 1
 230.4 77.2002 l 1
 230.4 51.5996 l 1
 230.4 26 l 1
 204.8 26 l 1
 179.2 26 l 1
 179.2 -0.453125 l 1
 179.2 -26.9062 l 1
 204.8 -26.9062 l 1
 230.4 -26.9062 l 1
 230.4 -0.453125 l 1
 230.4 26 l 1
 256 26 l 1
 281.6 26 l 1
 281.6 -0.453125 l 1
 281.6 -26.9062 l 1
 307.2 -26.9062 l 1
 332.8 -26.9062 l 1
 332.8 -0.453125 l 1
 332.8 26 l 1
 358.4 26 l 1
 384 26 l 1
 384 -0.453125 l 1
 384 -26.9062 l 1
 410.453 -26.9062 l 1
 436.906 -26.9062 l 1
 436.906 -0.453125 l 1
 436.906 26 l 1
 410.453 26 l 1
 384 26 l 1
 384 77.2002 l 1
 384 128.4 l 1
 410.453 128.4 l 1
 436.906 128.4 l 1
 436.906 154 l 1
 436.906 179.6 l 1
 410.453 179.6 l 1
 384 179.6 l 1
 384 205.2 l 1
 384 230.8 l 1
 410.453 230.8 l 1
 436.906 230.8 l 1
 436.906 282 l 1
128 -0.453125 m 1
 128 26 l 1
 102.4 26 l 1
 76.7998 26 l 1
 76.7998 -0.453125 l 1
 76.7998 -26.9062 l 1
 102.4 -26.9062 l 1
 128 -26.9062 l 1
 128 -0.453125 l 1
EndSplineSet
EndChar

StartChar: uni30B2
Encoding: 12466 12466 91
Width: 512
VWidth: 0
Flags: H
LayerCount: 2
Back
Fore
SplineSet
0 154 m 1
 0 410 l 1
 256 410 l 1
 512 410 l 1
 512 154 l 1
 512 -102 l 1
 256 -102 l 1
 0 -102 l 1
 0 154 l 1
436.906 307.6 m 1
 436.906 333.2 l 1
 256.854 333.2 l 1
 76.7998 333.2 l 1
 76.7998 307.6 l 1
 76.7998 282 l 1
 102.4 282 l 1
 128 282 l 1
 128 256.4 l 1
 128 230.8 l 1
 102.4 230.8 l 1
 76.7998 230.8 l 1
 76.7998 205.2 l 1
 76.7998 179.6 l 1
 128 179.6 l 1
 179.2 179.6 l 1
 179.2 128.4 l 1
 179.2 77.2002 l 1
 153.6 77.2002 l 1
 128 77.2002 l 1
 128 102.8 l 1
 128 128.4 l 1
 102.4 128.4 l 1
 76.7998 128.4 l 1
 76.7998 102.8 l 1
 76.7998 77.2002 l 1
 102.4 77.2002 l 1
 128 77.2002 l 1
 128 51.5996 l 1
 128 26 l 1
 102.4 26 l 1
 76.7998 26 l 1
 76.7998 -0.453125 l 1
 76.7998 -26.9062 l 1
 102.4 -26.9062 l 1
 128 -26.9062 l 1
 128 -0.453125 l 1
 128 26 l 1
 153.6 26 l 1
 179.2 26 l 1
 179.2 -0.453125 l 1
 179.2 -26.9062 l 1
 204.8 -26.9062 l 1
 230.4 -26.9062 l 1
 230.4 25.1465 l 1
 230.4 77.2002 l 1
 256 77.2002 l 1
 281.6 77.2002 l 1
 281.6 25.1465 l 1
 281.6 -26.9062 l 1
 307.2 -26.9062 l 1
 332.8 -26.9062 l 1
 332.8 -0.453125 l 1
 332.8 26 l 1
 358.4 26 l 1
 384 26 l 1
 384 -0.453125 l 1
 384 -26.9062 l 1
 410.453 -26.9062 l 1
 436.906 -26.9062 l 1
 436.906 50.7471 l 1
 436.906 128.4 l 1
 410.453 128.4 l 1
 384 128.4 l 1
 384 205.2 l 1
 384 282 l 1
 410.453 282 l 1
 436.906 282 l 1
 436.906 307.6 l 1
EndSplineSet
EndChar

StartChar: uni308D
Encoding: 12429 12429 92
Width: 512
VWidth: 0
Flags: H
LayerCount: 2
Back
Fore
SplineSet
0 154 m 1
 0 410 l 1
 256 410 l 1
 512 410 l 1
 512 154 l 1
 512 -102 l 1
 256 -102 l 1
 0 -102 l 1
 0 154 l 1
436.906 282 m 1
 436.906 333.2 l 1
 256.854 333.2 l 1
 76.7998 333.2 l 1
 76.7998 307.6 l 1
 76.7998 282 l 1
 102.4 282 l 1
 128 282 l 1
 128 256.4 l 1
 128 230.8 l 1
 102.4 230.8 l 1
 76.7998 230.8 l 1
 76.7998 205.2 l 1
 76.7998 179.6 l 1
 128 179.6 l 1
 179.2 179.6 l 1
 179.2 154 l 1
 179.2 128.4 l 1
 128 128.4 l 1
 76.7998 128.4 l 1
 76.7998 102.8 l 1
 76.7998 77.2002 l 1
 102.4 77.2002 l 1
 128 77.2002 l 1
 128 51.5996 l 1
 128 26 l 1
 102.4 26 l 1
 76.7998 26 l 1
 76.7998 -0.453125 l 1
 76.7998 -26.9062 l 1
 102.4 -26.9062 l 1
 128 -26.9062 l 1
 128 -0.453125 l 1
 128 26 l 1
 153.6 26 l 1
 179.2 26 l 1
 179.2 -0.453125 l 1
 179.2 -26.9062 l 1
 204.8 -26.9062 l 1
 230.4 -26.9062 l 1
 230.4 -0.453125 l 1
 230.4 26 l 1
 204.8 26 l 1
 179.2 26 l 1
 179.2 51.5996 l 1
 179.2 77.2002 l 1
 230.4 77.2002 l 1
 281.6 77.2002 l 1
 281.6 25.1465 l 1
 281.6 -26.9062 l 1
 307.2 -26.9062 l 1
 332.8 -26.9062 l 1
 332.8 -0.453125 l 1
 332.8 26 l 1
 358.4 26 l 1
 384 26 l 1
 384 -0.453125 l 1
 384 -26.9062 l 1
 410.453 -26.9062 l 1
 436.906 -26.9062 l 1
 436.906 25.1465 l 1
 436.906 77.2002 l 1
 410.453 77.2002 l 1
 384 77.2002 l 1
 384 154 l 1
 384 230.8 l 1
 410.453 230.8 l 1
 436.906 230.8 l 1
 436.906 282 l 1
EndSplineSet
EndChar

StartChar: uni304F
Encoding: 12367 12367 93
Width: 512
VWidth: 0
Flags: H
LayerCount: 2
Back
Fore
SplineSet
0 154 m 1
 0 410 l 1
 256 410 l 1
 512 410 l 1
 512 154 l 1
 512 -102 l 1
 256 -102 l 1
 0 -102 l 1
 0 154 l 1
436.906 282 m 1
 436.906 333.2 l 1
 256.854 333.2 l 1
 76.7998 333.2 l 1
 76.7998 307.6 l 1
 76.7998 282 l 1
 102.4 282 l 1
 128 282 l 1
 128 256.4 l 1
 128 230.8 l 1
 102.4 230.8 l 1
 76.7998 230.8 l 1
 76.7998 205.2 l 1
 76.7998 179.6 l 1
 102.4 179.6 l 1
 128 179.6 l 1
 128 154 l 1
 128 128.4 l 1
 102.4 128.4 l 1
 76.7998 128.4 l 1
 76.7998 102.8 l 1
 76.7998 77.2002 l 1
 102.4 77.2002 l 1
 128 77.2002 l 1
 128 51.5996 l 1
 128 26 l 1
 102.4 26 l 1
 76.7998 26 l 1
 76.7998 -0.453125 l 1
 76.7998 -26.9062 l 1
 102.4 -26.9062 l 1
 128 -26.9062 l 1
 128 -0.453125 l 1
 128 26 l 1
 153.6 26 l 1
 179.2 26 l 1
 179.2 -0.453125 l 1
 179.2 -26.9062 l 1
 204.8 -26.9062 l 1
 230.4 -26.9062 l 1
 230.4 -0.453125 l 1
 230.4 26 l 1
 204.8 26 l 1
 179.2 26 l 1
 179.2 51.5996 l 1
 179.2 77.2002 l 1
 256 77.2002 l 1
 332.8 77.2002 l 1
 332.8 51.5996 l 1
 332.8 26 l 1
 307.2 26 l 1
 281.6 26 l 1
 281.6 -0.453125 l 1
 281.6 -26.9062 l 1
 307.2 -26.9062 l 1
 332.8 -26.9062 l 1
 332.8 -0.453125 l 1
 332.8 26 l 1
 358.4 26 l 1
 384 26 l 1
 384 -0.453125 l 1
 384 -26.9062 l 1
 410.453 -26.9062 l 1
 436.906 -26.9062 l 1
 436.906 25.1465 l 1
 436.906 77.2002 l 1
 410.453 77.2002 l 1
 384 77.2002 l 1
 384 154 l 1
 384 230.8 l 1
 410.453 230.8 l 1
 436.906 230.8 l 1
 436.906 282 l 1
EndSplineSet
EndChar

StartChar: uni30AA
Encoding: 12458 12458 94
Width: 512
VWidth: 0
Flags: H
LayerCount: 2
Back
Fore
SplineSet
0 154 m 1
 0 410 l 1
 256 410 l 1
 512 410 l 1
 512 154 l 1
 512 -102 l 1
 256 -102 l 1
 0 -102 l 1
 0 154 l 1
436.906 307.6 m 1
 436.906 333.2 l 1
 256.854 333.2 l 1
 76.7998 333.2 l 1
 76.7998 307.6 l 1
 76.7998 282 l 1
 102.4 282 l 1
 128 282 l 1
 128 256.4 l 1
 128 230.8 l 1
 102.4 230.8 l 1
 76.7998 230.8 l 1
 76.7998 205.2 l 1
 76.7998 179.6 l 1
 128 179.6 l 1
 179.2 179.6 l 1
 179.2 154 l 1
 179.2 128.4 l 1
 128 128.4 l 1
 76.7998 128.4 l 1
 76.7998 102.8 l 1
 76.7998 77.2002 l 1
 179.2 77.2002 l 1
 281.6 77.2002 l 1
 281.6 25.1465 l 1
 281.6 -26.9062 l 1
 307.2 -26.9062 l 1
 332.8 -26.9062 l 1
 332.8 -0.453125 l 1
 332.8 26 l 1
 358.4 26 l 1
 384 26 l 1
 384 -0.453125 l 1
 384 -26.9062 l 1
 410.453 -26.9062 l 1
 436.906 -26.9062 l 1
 436.906 -0.453125 l 1
 436.906 26 l 1
 410.453 26 l 1
 384 26 l 1
 384 154 l 1
 384 282 l 1
 410.453 282 l 1
 436.906 282 l 1
 436.906 307.6 l 1
128 -0.453125 m 1
 128 26 l 1
 102.4 26 l 1
 76.7998 26 l 1
 76.7998 -0.453125 l 1
 76.7998 -26.9062 l 1
 102.4 -26.9062 l 1
 128 -26.9062 l 1
 128 -0.453125 l 1
230.4 -0.453125 m 1
 230.4 26 l 1
 204.8 26 l 1
 179.2 26 l 1
 179.2 -0.453125 l 1
 179.2 -26.9062 l 1
 204.8 -26.9062 l 1
 230.4 -26.9062 l 1
 230.4 -0.453125 l 1
EndSplineSet
EndChar

StartChar: uni3087
Encoding: 12423 12423 95
Width: 512
VWidth: 0
Flags: H
LayerCount: 2
Back
Fore
SplineSet
0 154 m 1
 0 410 l 1
 256 410 l 1
 512 410 l 1
 512 154 l 1
 512 -102 l 1
 256 -102 l 1
 0 -102 l 1
 0 154 l 1
436.906 230.8 m 1
 436.906 333.2 l 1
 256.854 333.2 l 1
 76.7998 333.2 l 1
 76.7998 307.6 l 1
 76.7998 282 l 1
 102.4 282 l 1
 128 282 l 1
 128 256.4 l 1
 128 230.8 l 1
 102.4 230.8 l 1
 76.7998 230.8 l 1
 76.7998 205.2 l 1
 76.7998 179.6 l 1
 128 179.6 l 1
 179.2 179.6 l 1
 179.2 154 l 1
 179.2 128.4 l 1
 128 128.4 l 1
 76.7998 128.4 l 1
 76.7998 102.8 l 1
 76.7998 77.2002 l 1
 102.4 77.2002 l 1
 128 77.2002 l 1
 128 51.5996 l 1
 128 26 l 1
 102.4 26 l 1
 76.7998 26 l 1
 76.7998 -0.453125 l 1
 76.7998 -26.9062 l 1
 102.4 -26.9062 l 1
 128 -26.9062 l 1
 128 -0.453125 l 1
 128 26 l 1
 153.6 26 l 1
 179.2 26 l 1
 179.2 -0.453125 l 1
 179.2 -26.9062 l 1
 204.8 -26.9062 l 1
 230.4 -26.9062 l 1
 230.4 25.1465 l 1
 230.4 77.2002 l 1
 281.6 77.2002 l 1
 332.8 77.2002 l 1
 332.8 51.5996 l 1
 332.8 26 l 1
 307.2 26 l 1
 281.6 26 l 1
 281.6 -0.453125 l 1
 281.6 -26.9062 l 1
 307.2 -26.9062 l 1
 332.8 -26.9062 l 1
 332.8 -0.453125 l 1
 332.8 26 l 1
 358.4 26 l 1
 384 26 l 1
 384 -0.453125 l 1
 384 -26.9062 l 1
 410.453 -26.9062 l 1
 436.906 -26.9062 l 1
 436.906 25.1465 l 1
 436.906 77.2002 l 1
 410.453 77.2002 l 1
 384 77.2002 l 1
 384 102.8 l 1
 384 128.4 l 1
 410.453 128.4 l 1
 436.906 128.4 l 1
 436.906 230.8 l 1
EndSplineSet
EndChar

StartChar: uni30F4
Encoding: 12532 12532 96
Width: 512
VWidth: 0
Flags: H
LayerCount: 2
Back
Fore
SplineSet
128 102.8 m 1
 128 128.4 l 1
 153.6 128.4 l 1
 179.2 128.4 l 1
 179.2 102.8 l 1
 179.2 77.2002 l 1
 153.6 77.2002 l 1
 128 77.2002 l 1
 128 102.8 l 1
128 205.2 m 1
 128 230.8 l 1
 153.6 230.8 l 1
 179.2 230.8 l 1
 179.2 205.2 l 1
 179.2 179.6 l 1
 153.6 179.6 l 1
 128 179.6 l 1
 128 205.2 l 1
0 154 m 1
 0 410 l 1
 256 410 l 1
 512 410 l 1
 512 154 l 1
 512 -102 l 1
 256 -102 l 1
 0 -102 l 1
 0 154 l 1
436.906 307.6 m 1
 436.906 333.2 l 1
 256.854 333.2 l 1
 76.7998 333.2 l 1
 76.7998 307.6 l 1
 76.7998 282 l 1
 102.4 282 l 1
 128 282 l 1
 128 256.4 l 1
 128 230.8 l 1
 102.4 230.8 l 1
 76.7998 230.8 l 1
 76.7998 205.2 l 1
 76.7998 179.6 l 1
 102.4 179.6 l 1
 128 179.6 l 1
 128 154 l 1
 128 128.4 l 1
 102.4 128.4 l 1
 76.7998 128.4 l 1
 76.7998 102.8 l 1
 76.7998 77.2002 l 1
 102.4 77.2002 l 1
 128 77.2002 l 1
 128 51.5996 l 1
 128 26 l 1
 102.4 26 l 1
 76.7998 26 l 1
 76.7998 -0.453125 l 1
 76.7998 -26.9062 l 1
 102.4 -26.9062 l 1
 128 -26.9062 l 1
 128 -0.453125 l 1
 128 26 l 1
 153.6 26 l 1
 179.2 26 l 1
 179.2 -0.453125 l 1
 179.2 -26.9062 l 1
 204.8 -26.9062 l 1
 230.4 -26.9062 l 1
 230.4 25.1465 l 1
 230.4 77.2002 l 1
 281.6 77.2002 l 1
 332.8 77.2002 l 1
 332.8 51.5996 l 1
 332.8 26 l 1
 307.2 26 l 1
 281.6 26 l 1
 281.6 -0.453125 l 1
 281.6 -26.9062 l 1
 307.2 -26.9062 l 1
 332.8 -26.9062 l 1
 332.8 -0.453125 l 1
 332.8 26 l 1
 358.4 26 l 1
 384 26 l 1
 384 -0.453125 l 1
 384 -26.9062 l 1
 410.453 -26.9062 l 1
 436.906 -26.9062 l 1
 436.906 25.1465 l 1
 436.906 77.2002 l 1
 410.453 77.2002 l 1
 384 77.2002 l 1
 384 102.8 l 1
 384 128.4 l 1
 410.453 128.4 l 1
 436.906 128.4 l 1
 436.906 154 l 1
 436.906 179.6 l 1
 410.453 179.6 l 1
 384 179.6 l 1
 384 230.8 l 1
 384 282 l 1
 410.453 282 l 1
 436.906 282 l 1
 436.906 307.6 l 1
EndSplineSet
EndChar

StartChar: uni3043
Encoding: 12355 12355 97
Width: 512
VWidth: 0
Flags: H
LayerCount: 2
Back
Fore
SplineSet
281.6 51.5996 m 1
 281.6 77.2002 l 1
 307.2 77.2002 l 1
 332.8 77.2002 l 1
 332.8 51.5996 l 1
 332.8 26 l 1
 307.2 26 l 1
 281.6 26 l 1
 281.6 51.5996 l 1
0 154 m 1
 0 410 l 1
 256 410 l 1
 512 410 l 1
 512 154 l 1
 512 -102 l 1
 256 -102 l 1
 0 -102 l 1
 0 154 l 1
436.906 282 m 1
 436.906 333.2 l 1
 256.854 333.2 l 1
 76.7998 333.2 l 1
 76.7998 307.6 l 1
 76.7998 282 l 1
 102.4 282 l 1
 128 282 l 1
 128 256.4 l 1
 128 230.8 l 1
 102.4 230.8 l 1
 76.7998 230.8 l 1
 76.7998 205.2 l 1
 76.7998 179.6 l 1
 102.4 179.6 l 1
 128 179.6 l 1
 128 154 l 1
 128 128.4 l 1
 102.4 128.4 l 1
 76.7998 128.4 l 1
 76.7998 102.8 l 1
 76.7998 77.2002 l 1
 102.4 77.2002 l 1
 128 77.2002 l 1
 128 51.5996 l 1
 128 26 l 1
 102.4 26 l 1
 76.7998 26 l 1
 76.7998 -0.453125 l 1
 76.7998 -26.9062 l 1
 102.4 -26.9062 l 1
 128 -26.9062 l 1
 128 -0.453125 l 1
 128 26 l 1
 153.6 26 l 1
 179.2 26 l 1
 179.2 -0.453125 l 1
 179.2 -26.9062 l 1
 204.8 -26.9062 l 1
 230.4 -26.9062 l 1
 230.4 -0.453125 l 1
 230.4 26 l 1
 256 26 l 1
 281.6 26 l 1
 281.6 -0.453125 l 1
 281.6 -26.9062 l 1
 307.2 -26.9062 l 1
 332.8 -26.9062 l 1
 332.8 -0.453125 l 1
 332.8 26 l 1
 358.4 26 l 1
 384 26 l 1
 384 -0.453125 l 1
 384 -26.9062 l 1
 410.453 -26.9062 l 1
 436.906 -26.9062 l 1
 436.906 76.3467 l 1
 436.906 179.6 l 1
 410.453 179.6 l 1
 384 179.6 l 1
 384 205.2 l 1
 384 230.8 l 1
 410.453 230.8 l 1
 436.906 230.8 l 1
 436.906 282 l 1
EndSplineSet
EndChar

StartChar: uni30C0
Encoding: 12480 12480 98
Width: 512
VWidth: 0
Flags: H
LayerCount: 2
Back
Fore
SplineSet
281.6 51.5996 m 1
 281.6 77.2002 l 1
 307.2 77.2002 l 1
 332.8 77.2002 l 1
 332.8 51.5996 l 1
 332.8 26 l 1
 307.2 26 l 1
 281.6 26 l 1
 281.6 51.5996 l 1
0 154 m 1
 0 410 l 1
 256 410 l 1
 512 410 l 1
 512 154 l 1
 512 -102 l 1
 256 -102 l 1
 0 -102 l 1
 0 154 l 1
436.906 282 m 1
 436.906 333.2 l 1
 256.854 333.2 l 1
 76.7998 333.2 l 1
 76.7998 307.6 l 1
 76.7998 282 l 1
 102.4 282 l 1
 128 282 l 1
 128 256.4 l 1
 128 230.8 l 1
 102.4 230.8 l 1
 76.7998 230.8 l 1
 76.7998 205.2 l 1
 76.7998 179.6 l 1
 128 179.6 l 1
 179.2 179.6 l 1
 179.2 76.3467 l 1
 179.2 -26.9062 l 1
 204.8 -26.9062 l 1
 230.4 -26.9062 l 1
 230.4 -0.453125 l 1
 230.4 26 l 1
 256 26 l 1
 281.6 26 l 1
 281.6 -0.453125 l 1
 281.6 -26.9062 l 1
 307.2 -26.9062 l 1
 332.8 -26.9062 l 1
 332.8 -0.453125 l 1
 332.8 26 l 1
 358.4 26 l 1
 384 26 l 1
 384 -0.453125 l 1
 384 -26.9062 l 1
 410.453 -26.9062 l 1
 436.906 -26.9062 l 1
 436.906 -0.453125 l 1
 436.906 26 l 1
 410.453 26 l 1
 384 26 l 1
 384 51.5996 l 1
 384 77.2002 l 1
 410.453 77.2002 l 1
 436.906 77.2002 l 1
 436.906 102.8 l 1
 436.906 128.4 l 1
 410.453 128.4 l 1
 384 128.4 l 1
 384 179.6 l 1
 384 230.8 l 1
 410.453 230.8 l 1
 436.906 230.8 l 1
 436.906 282 l 1
128 102.8 m 1
 128 128.4 l 1
 102.4 128.4 l 1
 76.7998 128.4 l 1
 76.7998 102.8 l 1
 76.7998 77.2002 l 1
 102.4 77.2002 l 1
 128 77.2002 l 1
 128 102.8 l 1
128 -0.453125 m 1
 128 26 l 1
 102.4 26 l 1
 76.7998 26 l 1
 76.7998 -0.453125 l 1
 76.7998 -26.9062 l 1
 102.4 -26.9062 l 1
 128 -26.9062 l 1
 128 -0.453125 l 1
EndSplineSet
EndChar

StartChar: uni30E7
Encoding: 12519 12519 99
Width: 512
VWidth: 0
Flags: H
LayerCount: 2
Back
Fore
SplineSet
128 205.2 m 1
 128 230.8 l 1
 153.6 230.8 l 1
 179.2 230.8 l 1
 179.2 205.2 l 1
 179.2 179.6 l 1
 153.6 179.6 l 1
 128 179.6 l 1
 128 205.2 l 1
0 154 m 1
 0 410 l 1
 256 410 l 1
 512 410 l 1
 512 154 l 1
 512 -102 l 1
 256 -102 l 1
 0 -102 l 1
 0 154 l 1
436.906 282 m 1
 436.906 333.2 l 1
 256.854 333.2 l 1
 76.7998 333.2 l 1
 76.7998 307.6 l 1
 76.7998 282 l 1
 102.4 282 l 1
 128 282 l 1
 128 256.4 l 1
 128 230.8 l 1
 102.4 230.8 l 1
 76.7998 230.8 l 1
 76.7998 205.2 l 1
 76.7998 179.6 l 1
 102.4 179.6 l 1
 128 179.6 l 1
 128 154 l 1
 128 128.4 l 1
 102.4 128.4 l 1
 76.7998 128.4 l 1
 76.7998 102.8 l 1
 76.7998 77.2002 l 1
 153.6 77.2002 l 1
 230.4 77.2002 l 1
 230.4 51.5996 l 1
 230.4 26 l 1
 204.8 26 l 1
 179.2 26 l 1
 179.2 -0.453125 l 1
 179.2 -26.9062 l 1
 204.8 -26.9062 l 1
 230.4 -26.9062 l 1
 230.4 -0.453125 l 1
 230.4 26 l 1
 256 26 l 1
 281.6 26 l 1
 281.6 -0.453125 l 1
 281.6 -26.9062 l 1
 307.2 -26.9062 l 1
 332.8 -26.9062 l 1
 332.8 25.1465 l 1
 332.8 77.2002 l 1
 358.4 77.2002 l 1
 384 77.2002 l 1
 384 154 l 1
 384 230.8 l 1
 410.453 230.8 l 1
 436.906 230.8 l 1
 436.906 282 l 1
128 -0.453125 m 1
 128 26 l 1
 102.4 26 l 1
 76.7998 26 l 1
 76.7998 -0.453125 l 1
 76.7998 -26.9062 l 1
 102.4 -26.9062 l 1
 128 -26.9062 l 1
 128 -0.453125 l 1
436.906 -0.453125 m 1
 436.906 26 l 1
 410.453 26 l 1
 384 26 l 1
 384 -0.453125 l 1
 384 -26.9062 l 1
 410.453 -26.9062 l 1
 436.906 -26.9062 l 1
 436.906 -0.453125 l 1
EndSplineSet
EndChar

StartChar: uni30CF
Encoding: 12495 12495 100
Width: 512
VWidth: 0
Flags: H
LayerCount: 2
Back
Fore
SplineSet
128 205.2 m 1
 128 230.8 l 1
 153.6 230.8 l 1
 179.2 230.8 l 1
 179.2 205.2 l 1
 179.2 179.6 l 1
 153.6 179.6 l 1
 128 179.6 l 1
 128 205.2 l 1
0 154 m 1
 0 410 l 1
 256 410 l 1
 512 410 l 1
 512 154 l 1
 512 -102 l 1
 256 -102 l 1
 0 -102 l 1
 0 154 l 1
436.906 307.6 m 1
 436.906 333.2 l 1
 256.854 333.2 l 1
 76.7998 333.2 l 1
 76.7998 307.6 l 1
 76.7998 282 l 1
 102.4 282 l 1
 128 282 l 1
 128 256.4 l 1
 128 230.8 l 1
 102.4 230.8 l 1
 76.7998 230.8 l 1
 76.7998 205.2 l 1
 76.7998 179.6 l 1
 102.4 179.6 l 1
 128 179.6 l 1
 128 154 l 1
 128 128.4 l 1
 102.4 128.4 l 1
 76.7998 128.4 l 1
 76.7998 102.8 l 1
 76.7998 77.2002 l 1
 102.4 77.2002 l 1
 128 77.2002 l 1
 128 51.5996 l 1
 128 26 l 1
 102.4 26 l 1
 76.7998 26 l 1
 76.7998 -0.453125 l 1
 76.7998 -26.9062 l 1
 102.4 -26.9062 l 1
 128 -26.9062 l 1
 128 -0.453125 l 1
 128 26 l 1
 153.6 26 l 1
 179.2 26 l 1
 179.2 -0.453125 l 1
 179.2 -26.9062 l 1
 204.8 -26.9062 l 1
 230.4 -26.9062 l 1
 230.4 -0.453125 l 1
 230.4 26 l 1
 256 26 l 1
 281.6 26 l 1
 281.6 -0.453125 l 1
 281.6 -26.9062 l 1
 307.2 -26.9062 l 1
 332.8 -26.9062 l 1
 332.8 25.1465 l 1
 332.8 77.2002 l 1
 358.4 77.2002 l 1
 384 77.2002 l 1
 384 25.1465 l 1
 384 -26.9062 l 1
 410.453 -26.9062 l 1
 436.906 -26.9062 l 1
 436.906 50.7471 l 1
 436.906 128.4 l 1
 410.453 128.4 l 1
 384 128.4 l 1
 384 154 l 1
 384 179.6 l 1
 410.453 179.6 l 1
 436.906 179.6 l 1
 436.906 205.2 l 1
 436.906 230.8 l 1
 410.453 230.8 l 1
 384 230.8 l 1
 384 256.4 l 1
 384 282 l 1
 410.453 282 l 1
 436.906 282 l 1
 436.906 307.6 l 1
EndSplineSet
EndChar

StartChar: uni30D8
Encoding: 12504 12504 101
Width: 512
VWidth: 0
Flags: H
LayerCount: 2
Back
Fore
SplineSet
281.6 51.5996 m 1
 281.6 77.2002 l 1
 307.2 77.2002 l 1
 332.8 77.2002 l 1
 332.8 51.5996 l 1
 332.8 26 l 1
 307.2 26 l 1
 281.6 26 l 1
 281.6 51.5996 l 1
179.2 51.5996 m 1
 179.2 77.2002 l 1
 204.8 77.2002 l 1
 230.4 77.2002 l 1
 230.4 51.5996 l 1
 230.4 26 l 1
 204.8 26 l 1
 179.2 26 l 1
 179.2 51.5996 l 1
128 205.2 m 1
 128 230.8 l 1
 153.6 230.8 l 1
 179.2 230.8 l 1
 179.2 205.2 l 1
 179.2 179.6 l 1
 153.6 179.6 l 1
 128 179.6 l 1
 128 205.2 l 1
0 154 m 1
 0 410 l 1
 256 410 l 1
 512 410 l 1
 512 154 l 1
 512 -102 l 1
 256 -102 l 1
 0 -102 l 1
 0 154 l 1
436.906 282 m 1
 436.906 333.2 l 1
 256.854 333.2 l 1
 76.7998 333.2 l 1
 76.7998 307.6 l 1
 76.7998 282 l 1
 102.4 282 l 1
 128 282 l 1
 128 256.4 l 1
 128 230.8 l 1
 102.4 230.8 l 1
 76.7998 230.8 l 1
 76.7998 205.2 l 1
 76.7998 179.6 l 1
 102.4 179.6 l 1
 128 179.6 l 1
 128 154 l 1
 128 128.4 l 1
 102.4 128.4 l 1
 76.7998 128.4 l 1
 76.7998 102.8 l 1
 76.7998 77.2002 l 1
 102.4 77.2002 l 1
 128 77.2002 l 1
 128 51.5996 l 1
 128 26 l 1
 102.4 26 l 1
 76.7998 26 l 1
 76.7998 -0.453125 l 1
 76.7998 -26.9062 l 1
 102.4 -26.9062 l 1
 128 -26.9062 l 1
 128 -0.453125 l 1
 128 26 l 1
 153.6 26 l 1
 179.2 26 l 1
 179.2 -0.453125 l 1
 179.2 -26.9062 l 1
 204.8 -26.9062 l 1
 230.4 -26.9062 l 1
 230.4 -0.453125 l 1
 230.4 26 l 1
 256 26 l 1
 281.6 26 l 1
 281.6 -0.453125 l 1
 281.6 -26.9062 l 1
 307.2 -26.9062 l 1
 332.8 -26.9062 l 1
 332.8 -0.453125 l 1
 332.8 26 l 1
 358.4 26 l 1
 384 26 l 1
 384 -0.453125 l 1
 384 -26.9062 l 1
 410.453 -26.9062 l 1
 436.906 -26.9062 l 1
 436.906 25.1465 l 1
 436.906 77.2002 l 1
 410.453 77.2002 l 1
 384 77.2002 l 1
 384 154 l 1
 384 230.8 l 1
 410.453 230.8 l 1
 436.906 230.8 l 1
 436.906 282 l 1
EndSplineSet
EndChar

StartChar: uni30E0
Encoding: 12512 12512 102
Width: 512
VWidth: 0
Flags: H
LayerCount: 2
Back
Fore
SplineSet
281.6 51.5996 m 1
 281.6 77.2002 l 1
 307.2 77.2002 l 1
 332.8 77.2002 l 1
 332.8 51.5996 l 1
 332.8 26 l 1
 307.2 26 l 1
 281.6 26 l 1
 281.6 51.5996 l 1
128 205.2 m 1
 128 230.8 l 1
 153.6 230.8 l 1
 179.2 230.8 l 1
 179.2 205.2 l 1
 179.2 179.6 l 1
 153.6 179.6 l 1
 128 179.6 l 1
 128 205.2 l 1
0 154 m 1
 0 410 l 1
 256 410 l 1
 512 410 l 1
 512 154 l 1
 512 -102 l 1
 256 -102 l 1
 0 -102 l 1
 0 154 l 1
436.906 307.6 m 1
 436.906 333.2 l 1
 256.854 333.2 l 1
 76.7998 333.2 l 1
 76.7998 307.6 l 1
 76.7998 282 l 1
 102.4 282 l 1
 128 282 l 1
 128 256.4 l 1
 128 230.8 l 1
 102.4 230.8 l 1
 76.7998 230.8 l 1
 76.7998 205.2 l 1
 76.7998 179.6 l 1
 102.4 179.6 l 1
 128 179.6 l 1
 128 154 l 1
 128 128.4 l 1
 102.4 128.4 l 1
 76.7998 128.4 l 1
 76.7998 102.8 l 1
 76.7998 77.2002 l 1
 128 77.2002 l 1
 179.2 77.2002 l 1
 179.2 25.1465 l 1
 179.2 -26.9062 l 1
 204.8 -26.9062 l 1
 230.4 -26.9062 l 1
 230.4 -0.453125 l 1
 230.4 26 l 1
 256 26 l 1
 281.6 26 l 1
 281.6 -0.453125 l 1
 281.6 -26.9062 l 1
 307.2 -26.9062 l 1
 332.8 -26.9062 l 1
 332.8 -0.453125 l 1
 332.8 26 l 1
 358.4 26 l 1
 384 26 l 1
 384 -0.453125 l 1
 384 -26.9062 l 1
 410.453 -26.9062 l 1
 436.906 -26.9062 l 1
 436.906 -0.453125 l 1
 436.906 26 l 1
 410.453 26 l 1
 384 26 l 1
 384 51.5996 l 1
 384 77.2002 l 1
 410.453 77.2002 l 1
 436.906 77.2002 l 1
 436.906 102.8 l 1
 436.906 128.4 l 1
 410.453 128.4 l 1
 384 128.4 l 1
 384 205.2 l 1
 384 282 l 1
 410.453 282 l 1
 436.906 282 l 1
 436.906 307.6 l 1
128 -0.453125 m 1
 128 26 l 1
 102.4 26 l 1
 76.7998 26 l 1
 76.7998 -0.453125 l 1
 76.7998 -26.9062 l 1
 102.4 -26.9062 l 1
 128 -26.9062 l 1
 128 -0.453125 l 1
EndSplineSet
EndChar

StartChar: uni304D
Encoding: 12365 12365 103
Width: 512
VWidth: 0
Flags: H
LayerCount: 2
Back
Fore
SplineSet
0 154 m 1
 0 410 l 1
 256 410 l 1
 512 410 l 1
 512 154 l 1
 512 -102 l 1
 256 -102 l 1
 0 -102 l 1
 0 154 l 1
436.906 256.4 m 1
 436.906 333.2 l 1
 256.854 333.2 l 1
 76.7998 333.2 l 1
 76.7998 307.6 l 1
 76.7998 282 l 1
 102.4 282 l 1
 128 282 l 1
 128 256.4 l 1
 128 230.8 l 1
 102.4 230.8 l 1
 76.7998 230.8 l 1
 76.7998 205.2 l 1
 76.7998 179.6 l 1
 102.4 179.6 l 1
 128 179.6 l 1
 128 154 l 1
 128 128.4 l 1
 102.4 128.4 l 1
 76.7998 128.4 l 1
 76.7998 102.8 l 1
 76.7998 77.2002 l 1
 102.4 77.2002 l 1
 128 77.2002 l 1
 128 51.5996 l 1
 128 26 l 1
 102.4 26 l 1
 76.7998 26 l 1
 76.7998 -0.453125 l 1
 76.7998 -26.9062 l 1
 102.4 -26.9062 l 1
 128 -26.9062 l 1
 128 -0.453125 l 1
 128 26 l 1
 153.6 26 l 1
 179.2 26 l 1
 179.2 -0.453125 l 1
 179.2 -26.9062 l 1
 204.8 -26.9062 l 1
 230.4 -26.9062 l 1
 230.4 -0.453125 l 1
 230.4 26 l 1
 204.8 26 l 1
 179.2 26 l 1
 179.2 51.5996 l 1
 179.2 77.2002 l 1
 230.4 77.2002 l 1
 281.6 77.2002 l 1
 281.6 25.1465 l 1
 281.6 -26.9062 l 1
 307.2 -26.9062 l 1
 332.8 -26.9062 l 1
 332.8 -0.453125 l 1
 332.8 26 l 1
 358.4 26 l 1
 384 26 l 1
 384 -0.453125 l 1
 384 -26.9062 l 1
 410.453 -26.9062 l 1
 436.906 -26.9062 l 1
 436.906 25.1465 l 1
 436.906 77.2002 l 1
 410.453 77.2002 l 1
 384 77.2002 l 1
 384 128.4 l 1
 384 179.6 l 1
 410.453 179.6 l 1
 436.906 179.6 l 1
 436.906 256.4 l 1
EndSplineSet
EndChar

StartChar: uni30EC
Encoding: 12524 12524 104
Width: 512
VWidth: 0
Flags: H
LayerCount: 2
Back
Fore
SplineSet
128 205.2 m 1
 128 230.8 l 1
 153.6 230.8 l 1
 179.2 230.8 l 1
 179.2 205.2 l 1
 179.2 179.6 l 1
 153.6 179.6 l 1
 128 179.6 l 1
 128 205.2 l 1
0 154 m 1
 0 410 l 1
 256 410 l 1
 512 410 l 1
 512 154 l 1
 512 -102 l 1
 256 -102 l 1
 0 -102 l 1
 0 154 l 1
436.906 307.6 m 1
 436.906 333.2 l 1
 256.854 333.2 l 1
 76.7998 333.2 l 1
 76.7998 307.6 l 1
 76.7998 282 l 1
 102.4 282 l 1
 128 282 l 1
 128 256.4 l 1
 128 230.8 l 1
 102.4 230.8 l 1
 76.7998 230.8 l 1
 76.7998 205.2 l 1
 76.7998 179.6 l 1
 102.4 179.6 l 1
 128 179.6 l 1
 128 154 l 1
 128 128.4 l 1
 102.4 128.4 l 1
 76.7998 128.4 l 1
 76.7998 102.8 l 1
 76.7998 77.2002 l 1
 204.8 77.2002 l 1
 332.8 77.2002 l 1
 332.8 51.5996 l 1
 332.8 26 l 1
 307.2 26 l 1
 281.6 26 l 1
 281.6 -0.453125 l 1
 281.6 -26.9062 l 1
 307.2 -26.9062 l 1
 332.8 -26.9062 l 1
 332.8 -0.453125 l 1
 332.8 26 l 1
 358.4 26 l 1
 384 26 l 1
 384 -0.453125 l 1
 384 -26.9062 l 1
 410.453 -26.9062 l 1
 436.906 -26.9062 l 1
 436.906 76.3467 l 1
 436.906 179.6 l 1
 410.453 179.6 l 1
 384 179.6 l 1
 384 230.8 l 1
 384 282 l 1
 410.453 282 l 1
 436.906 282 l 1
 436.906 307.6 l 1
128 -0.453125 m 1
 128 26 l 1
 102.4 26 l 1
 76.7998 26 l 1
 76.7998 -0.453125 l 1
 76.7998 -26.9062 l 1
 102.4 -26.9062 l 1
 128 -26.9062 l 1
 128 -0.453125 l 1
230.4 -0.453125 m 1
 230.4 26 l 1
 204.8 26 l 1
 179.2 26 l 1
 179.2 -0.453125 l 1
 179.2 -26.9062 l 1
 204.8 -26.9062 l 1
 230.4 -26.9062 l 1
 230.4 -0.453125 l 1
EndSplineSet
EndChar

StartChar: uni3053
Encoding: 12371 12371 105
Width: 512
VWidth: 0
Flags: H
LayerCount: 2
Back
Fore
SplineSet
281.6 51.5996 m 1
 281.6 77.2002 l 1
 307.2 77.2002 l 1
 332.8 77.2002 l 1
 332.8 51.5996 l 1
 332.8 26 l 1
 307.2 26 l 1
 281.6 26 l 1
 281.6 51.5996 l 1
0 154 m 1
 0 410 l 1
 256 410 l 1
 512 410 l 1
 512 154 l 1
 512 -102 l 1
 256 -102 l 1
 0 -102 l 1
 0 154 l 1
436.906 282 m 1
 436.906 333.2 l 1
 256.854 333.2 l 1
 76.7998 333.2 l 1
 76.7998 307.6 l 1
 76.7998 282 l 1
 102.4 282 l 1
 128 282 l 1
 128 256.4 l 1
 128 230.8 l 1
 102.4 230.8 l 1
 76.7998 230.8 l 1
 76.7998 205.2 l 1
 76.7998 179.6 l 1
 102.4 179.6 l 1
 128 179.6 l 1
 128 154 l 1
 128 128.4 l 1
 102.4 128.4 l 1
 76.7998 128.4 l 1
 76.7998 102.8 l 1
 76.7998 77.2002 l 1
 128 77.2002 l 1
 179.2 77.2002 l 1
 179.2 25.1465 l 1
 179.2 -26.9062 l 1
 204.8 -26.9062 l 1
 230.4 -26.9062 l 1
 230.4 -0.453125 l 1
 230.4 26 l 1
 256 26 l 1
 281.6 26 l 1
 281.6 -0.453125 l 1
 281.6 -26.9062 l 1
 307.2 -26.9062 l 1
 332.8 -26.9062 l 1
 332.8 -0.453125 l 1
 332.8 26 l 1
 358.4 26 l 1
 384 26 l 1
 384 -0.453125 l 1
 384 -26.9062 l 1
 410.453 -26.9062 l 1
 436.906 -26.9062 l 1
 436.906 -0.453125 l 1
 436.906 26 l 1
 410.453 26 l 1
 384 26 l 1
 384 51.5996 l 1
 384 77.2002 l 1
 410.453 77.2002 l 1
 436.906 77.2002 l 1
 436.906 128.4 l 1
 436.906 179.6 l 1
 410.453 179.6 l 1
 384 179.6 l 1
 384 205.2 l 1
 384 230.8 l 1
 410.453 230.8 l 1
 436.906 230.8 l 1
 436.906 282 l 1
128 -0.453125 m 1
 128 26 l 1
 102.4 26 l 1
 76.7998 26 l 1
 76.7998 -0.453125 l 1
 76.7998 -26.9062 l 1
 102.4 -26.9062 l 1
 128 -26.9062 l 1
 128 -0.453125 l 1
EndSplineSet
EndChar

StartChar: uni30E4
Encoding: 12516 12516 106
Width: 512
VWidth: 0
Flags: H
LayerCount: 2
Back
Fore
SplineSet
128 205.2 m 1
 128 230.8 l 1
 153.6 230.8 l 1
 179.2 230.8 l 1
 179.2 205.2 l 1
 179.2 179.6 l 1
 153.6 179.6 l 1
 128 179.6 l 1
 128 205.2 l 1
0 154 m 1
 0 410 l 1
 256 410 l 1
 512 410 l 1
 512 154 l 1
 512 -102 l 1
 256 -102 l 1
 0 -102 l 1
 0 154 l 1
436.906 307.6 m 1
 436.906 333.2 l 1
 256.854 333.2 l 1
 76.7998 333.2 l 1
 76.7998 307.6 l 1
 76.7998 282 l 1
 102.4 282 l 1
 128 282 l 1
 128 256.4 l 1
 128 230.8 l 1
 102.4 230.8 l 1
 76.7998 230.8 l 1
 76.7998 205.2 l 1
 76.7998 179.6 l 1
 102.4 179.6 l 1
 128 179.6 l 1
 128 154 l 1
 128 128.4 l 1
 102.4 128.4 l 1
 76.7998 128.4 l 1
 76.7998 102.8 l 1
 76.7998 77.2002 l 1
 128 77.2002 l 1
 179.2 77.2002 l 1
 179.2 25.1465 l 1
 179.2 -26.9062 l 1
 204.8 -26.9062 l 1
 230.4 -26.9062 l 1
 230.4 25.1465 l 1
 230.4 77.2002 l 1
 281.6 77.2002 l 1
 332.8 77.2002 l 1
 332.8 51.5996 l 1
 332.8 26 l 1
 307.2 26 l 1
 281.6 26 l 1
 281.6 -0.453125 l 1
 281.6 -26.9062 l 1
 307.2 -26.9062 l 1
 332.8 -26.9062 l 1
 332.8 -0.453125 l 1
 332.8 26 l 1
 358.4 26 l 1
 384 26 l 1
 384 -0.453125 l 1
 384 -26.9062 l 1
 410.453 -26.9062 l 1
 436.906 -26.9062 l 1
 436.906 -0.453125 l 1
 436.906 26 l 1
 410.453 26 l 1
 384 26 l 1
 384 77.2002 l 1
 384 128.4 l 1
 410.453 128.4 l 1
 436.906 128.4 l 1
 436.906 154 l 1
 436.906 179.6 l 1
 410.453 179.6 l 1
 384 179.6 l 1
 384 230.8 l 1
 384 282 l 1
 410.453 282 l 1
 436.906 282 l 1
 436.906 307.6 l 1
128 -0.453125 m 1
 128 26 l 1
 102.4 26 l 1
 76.7998 26 l 1
 76.7998 -0.453125 l 1
 76.7998 -26.9062 l 1
 102.4 -26.9062 l 1
 128 -26.9062 l 1
 128 -0.453125 l 1
EndSplineSet
EndChar

StartChar: uni3059
Encoding: 12377 12377 107
Width: 512
VWidth: 0
Flags: H
LayerCount: 2
Back
Fore
SplineSet
0 154 m 1
 0 410 l 1
 256 410 l 1
 512 410 l 1
 512 154 l 1
 512 -102 l 1
 256 -102 l 1
 0 -102 l 1
 0 154 l 1
436.906 307.6 m 1
 436.906 333.2 l 1
 256.854 333.2 l 1
 76.7998 333.2 l 1
 76.7998 307.6 l 1
 76.7998 282 l 1
 102.4 282 l 1
 128 282 l 1
 128 256.4 l 1
 128 230.8 l 1
 102.4 230.8 l 1
 76.7998 230.8 l 1
 76.7998 205.2 l 1
 76.7998 179.6 l 1
 102.4 179.6 l 1
 128 179.6 l 1
 128 154 l 1
 128 128.4 l 1
 102.4 128.4 l 1
 76.7998 128.4 l 1
 76.7998 102.8 l 1
 76.7998 77.2002 l 1
 153.6 77.2002 l 1
 230.4 77.2002 l 1
 230.4 51.5996 l 1
 230.4 26 l 1
 204.8 26 l 1
 179.2 26 l 1
 179.2 -0.453125 l 1
 179.2 -26.9062 l 1
 204.8 -26.9062 l 1
 230.4 -26.9062 l 1
 230.4 -0.453125 l 1
 230.4 26 l 1
 256 26 l 1
 281.6 26 l 1
 281.6 -0.453125 l 1
 281.6 -26.9062 l 1
 307.2 -26.9062 l 1
 332.8 -26.9062 l 1
 332.8 -0.453125 l 1
 332.8 26 l 1
 358.4 26 l 1
 384 26 l 1
 384 -0.453125 l 1
 384 -26.9062 l 1
 410.453 -26.9062 l 1
 436.906 -26.9062 l 1
 436.906 -0.453125 l 1
 436.906 26 l 1
 410.453 26 l 1
 384 26 l 1
 384 77.2002 l 1
 384 128.4 l 1
 410.453 128.4 l 1
 436.906 128.4 l 1
 436.906 179.6 l 1
 436.906 230.8 l 1
 410.453 230.8 l 1
 384 230.8 l 1
 384 256.4 l 1
 384 282 l 1
 410.453 282 l 1
 436.906 282 l 1
 436.906 307.6 l 1
128 -0.453125 m 1
 128 26 l 1
 102.4 26 l 1
 76.7998 26 l 1
 76.7998 -0.453125 l 1
 76.7998 -26.9062 l 1
 102.4 -26.9062 l 1
 128 -26.9062 l 1
 128 -0.453125 l 1
EndSplineSet
EndChar

StartChar: uni3065
Encoding: 12389 12389 108
Width: 512
VWidth: 0
Flags: H
LayerCount: 2
Back
Fore
SplineSet
128 102.8 m 1
 128 128.4 l 1
 153.6 128.4 l 1
 179.2 128.4 l 1
 179.2 102.8 l 1
 179.2 77.2002 l 1
 153.6 77.2002 l 1
 128 77.2002 l 1
 128 102.8 l 1
0 154 m 1
 0 410 l 1
 256 410 l 1
 512 410 l 1
 512 154 l 1
 512 -102 l 1
 256 -102 l 1
 0 -102 l 1
 0 154 l 1
436.906 307.6 m 1
 436.906 333.2 l 1
 256.854 333.2 l 1
 76.7998 333.2 l 1
 76.7998 307.6 l 1
 76.7998 282 l 1
 102.4 282 l 1
 128 282 l 1
 128 256.4 l 1
 128 230.8 l 1
 102.4 230.8 l 1
 76.7998 230.8 l 1
 76.7998 205.2 l 1
 76.7998 179.6 l 1
 102.4 179.6 l 1
 128 179.6 l 1
 128 154 l 1
 128 128.4 l 1
 102.4 128.4 l 1
 76.7998 128.4 l 1
 76.7998 102.8 l 1
 76.7998 77.2002 l 1
 102.4 77.2002 l 1
 128 77.2002 l 1
 128 51.5996 l 1
 128 26 l 1
 102.4 26 l 1
 76.7998 26 l 1
 76.7998 -0.453125 l 1
 76.7998 -26.9062 l 1
 102.4 -26.9062 l 1
 128 -26.9062 l 1
 128 -0.453125 l 1
 128 26 l 1
 153.6 26 l 1
 179.2 26 l 1
 179.2 -0.453125 l 1
 179.2 -26.9062 l 1
 204.8 -26.9062 l 1
 230.4 -26.9062 l 1
 230.4 25.1465 l 1
 230.4 77.2002 l 1
 256 77.2002 l 1
 281.6 77.2002 l 1
 281.6 25.1465 l 1
 281.6 -26.9062 l 1
 307.2 -26.9062 l 1
 332.8 -26.9062 l 1
 332.8 -0.453125 l 1
 332.8 26 l 1
 358.4 26 l 1
 384 26 l 1
 384 -0.453125 l 1
 384 -26.9062 l 1
 410.453 -26.9062 l 1
 436.906 -26.9062 l 1
 436.906 50.7471 l 1
 436.906 128.4 l 1
 410.453 128.4 l 1
 384 128.4 l 1
 384 154 l 1
 384 179.6 l 1
 410.453 179.6 l 1
 436.906 179.6 l 1
 436.906 205.2 l 1
 436.906 230.8 l 1
 410.453 230.8 l 1
 384 230.8 l 1
 384 256.4 l 1
 384 282 l 1
 410.453 282 l 1
 436.906 282 l 1
 436.906 307.6 l 1
EndSplineSet
EndChar

StartChar: uni3085
Encoding: 12421 12421 109
Width: 512
VWidth: 0
Flags: H
LayerCount: 2
Back
Fore
SplineSet
0 154 m 1
 0 410 l 1
 256 410 l 1
 512 410 l 1
 512 154 l 1
 512 -102 l 1
 256 -102 l 1
 0 -102 l 1
 0 154 l 1
436.906 282 m 1
 436.906 333.2 l 1
 256.854 333.2 l 1
 76.7998 333.2 l 1
 76.7998 307.6 l 1
 76.7998 282 l 1
 102.4 282 l 1
 128 282 l 1
 128 256.4 l 1
 128 230.8 l 1
 102.4 230.8 l 1
 76.7998 230.8 l 1
 76.7998 205.2 l 1
 76.7998 179.6 l 1
 128 179.6 l 1
 179.2 179.6 l 1
 179.2 154 l 1
 179.2 128.4 l 1
 128 128.4 l 1
 76.7998 128.4 l 1
 76.7998 102.8 l 1
 76.7998 77.2002 l 1
 102.4 77.2002 l 1
 128 77.2002 l 1
 128 51.5996 l 1
 128 26 l 1
 102.4 26 l 1
 76.7998 26 l 1
 76.7998 -0.453125 l 1
 76.7998 -26.9062 l 1
 102.4 -26.9062 l 1
 128 -26.9062 l 1
 128 -0.453125 l 1
 128 26 l 1
 153.6 26 l 1
 179.2 26 l 1
 179.2 -0.453125 l 1
 179.2 -26.9062 l 1
 204.8 -26.9062 l 1
 230.4 -26.9062 l 1
 230.4 25.1465 l 1
 230.4 77.2002 l 1
 256 77.2002 l 1
 281.6 77.2002 l 1
 281.6 25.1465 l 1
 281.6 -26.9062 l 1
 307.2 -26.9062 l 1
 332.8 -26.9062 l 1
 332.8 -0.453125 l 1
 332.8 26 l 1
 358.4 26 l 1
 384 26 l 1
 384 -0.453125 l 1
 384 -26.9062 l 1
 410.453 -26.9062 l 1
 436.906 -26.9062 l 1
 436.906 50.7471 l 1
 436.906 128.4 l 1
 410.453 128.4 l 1
 384 128.4 l 1
 384 179.6 l 1
 384 230.8 l 1
 410.453 230.8 l 1
 436.906 230.8 l 1
 436.906 282 l 1
EndSplineSet
EndChar

StartChar: uni30A1
Encoding: 12449 12449 110
Width: 512
VWidth: 0
Flags: H
LayerCount: 2
Back
Fore
SplineSet
0 154 m 1
 0 410 l 1
 256 410 l 1
 512 410 l 1
 512 154 l 1
 512 -102 l 1
 256 -102 l 1
 0 -102 l 1
 0 154 l 1
436.906 282 m 1
 436.906 333.2 l 1
 256.854 333.2 l 1
 76.7998 333.2 l 1
 76.7998 307.6 l 1
 76.7998 282 l 1
 102.4 282 l 1
 128 282 l 1
 128 256.4 l 1
 128 230.8 l 1
 102.4 230.8 l 1
 76.7998 230.8 l 1
 76.7998 205.2 l 1
 76.7998 179.6 l 1
 128 179.6 l 1
 179.2 179.6 l 1
 179.2 154 l 1
 179.2 128.4 l 1
 128 128.4 l 1
 76.7998 128.4 l 1
 76.7998 102.8 l 1
 76.7998 77.2002 l 1
 128 77.2002 l 1
 179.2 77.2002 l 1
 179.2 25.1465 l 1
 179.2 -26.9062 l 1
 204.8 -26.9062 l 1
 230.4 -26.9062 l 1
 230.4 -0.453125 l 1
 230.4 26 l 1
 256 26 l 1
 281.6 26 l 1
 281.6 -0.453125 l 1
 281.6 -26.9062 l 1
 307.2 -26.9062 l 1
 332.8 -26.9062 l 1
 332.8 -0.453125 l 1
 332.8 26 l 1
 307.2 26 l 1
 281.6 26 l 1
 281.6 51.5996 l 1
 281.6 77.2002 l 1
 359.253 77.2002 l 1
 436.906 77.2002 l 1
 436.906 102.8 l 1
 436.906 128.4 l 1
 410.453 128.4 l 1
 384 128.4 l 1
 384 179.6 l 1
 384 230.8 l 1
 410.453 230.8 l 1
 436.906 230.8 l 1
 436.906 282 l 1
128 -0.453125 m 1
 128 26 l 1
 102.4 26 l 1
 76.7998 26 l 1
 76.7998 -0.453125 l 1
 76.7998 -26.9062 l 1
 102.4 -26.9062 l 1
 128 -26.9062 l 1
 128 -0.453125 l 1
436.906 -0.453125 m 1
 436.906 26 l 1
 410.453 26 l 1
 384 26 l 1
 384 -0.453125 l 1
 384 -26.9062 l 1
 410.453 -26.9062 l 1
 436.906 -26.9062 l 1
 436.906 -0.453125 l 1
EndSplineSet
EndChar

StartChar: uni3083
Encoding: 12419 12419 111
Width: 512
VWidth: 0
Flags: H
LayerCount: 2
Back
Fore
SplineSet
281.6 51.5996 m 1
 281.6 77.2002 l 1
 307.2 77.2002 l 1
 332.8 77.2002 l 1
 332.8 51.5996 l 1
 332.8 26 l 1
 307.2 26 l 1
 281.6 26 l 1
 281.6 51.5996 l 1
0 154 m 1
 0 410 l 1
 256 410 l 1
 512 410 l 1
 512 154 l 1
 512 -102 l 1
 256 -102 l 1
 0 -102 l 1
 0 154 l 1
436.906 256.4 m 1
 436.906 333.2 l 1
 256.854 333.2 l 1
 76.7998 333.2 l 1
 76.7998 307.6 l 1
 76.7998 282 l 1
 102.4 282 l 1
 128 282 l 1
 128 256.4 l 1
 128 230.8 l 1
 102.4 230.8 l 1
 76.7998 230.8 l 1
 76.7998 205.2 l 1
 76.7998 179.6 l 1
 128 179.6 l 1
 179.2 179.6 l 1
 179.2 154 l 1
 179.2 128.4 l 1
 128 128.4 l 1
 76.7998 128.4 l 1
 76.7998 102.8 l 1
 76.7998 77.2002 l 1
 102.4 77.2002 l 1
 128 77.2002 l 1
 128 51.5996 l 1
 128 26 l 1
 102.4 26 l 1
 76.7998 26 l 1
 76.7998 -0.453125 l 1
 76.7998 -26.9062 l 1
 102.4 -26.9062 l 1
 128 -26.9062 l 1
 128 -0.453125 l 1
 128 26 l 1
 153.6 26 l 1
 179.2 26 l 1
 179.2 -0.453125 l 1
 179.2 -26.9062 l 1
 204.8 -26.9062 l 1
 230.4 -26.9062 l 1
 230.4 -0.453125 l 1
 230.4 26 l 1
 256 26 l 1
 281.6 26 l 1
 281.6 -0.453125 l 1
 281.6 -26.9062 l 1
 307.2 -26.9062 l 1
 332.8 -26.9062 l 1
 332.8 -0.453125 l 1
 332.8 26 l 1
 358.4 26 l 1
 384 26 l 1
 384 -0.453125 l 1
 384 -26.9062 l 1
 410.453 -26.9062 l 1
 436.906 -26.9062 l 1
 436.906 50.7471 l 1
 436.906 128.4 l 1
 410.453 128.4 l 1
 384 128.4 l 1
 384 154 l 1
 384 179.6 l 1
 410.453 179.6 l 1
 436.906 179.6 l 1
 436.906 256.4 l 1
EndSplineSet
EndChar

StartChar: uni308C
Encoding: 12428 12428 112
Width: 512
VWidth: 0
Flags: H
LayerCount: 2
Back
Fore
SplineSet
179.2 51.5996 m 1
 179.2 77.2002 l 1
 204.8 77.2002 l 1
 230.4 77.2002 l 1
 230.4 51.5996 l 1
 230.4 26 l 1
 204.8 26 l 1
 179.2 26 l 1
 179.2 51.5996 l 1
0 154 m 1
 0 410 l 1
 256 410 l 1
 512 410 l 1
 512 154 l 1
 512 -102 l 1
 256 -102 l 1
 0 -102 l 1
 0 154 l 1
436.906 307.6 m 1
 436.906 333.2 l 1
 256.854 333.2 l 1
 76.7998 333.2 l 1
 76.7998 307.6 l 1
 76.7998 282 l 1
 102.4 282 l 1
 128 282 l 1
 128 256.4 l 1
 128 230.8 l 1
 102.4 230.8 l 1
 76.7998 230.8 l 1
 76.7998 205.2 l 1
 76.7998 179.6 l 1
 128 179.6 l 1
 179.2 179.6 l 1
 179.2 154 l 1
 179.2 128.4 l 1
 128 128.4 l 1
 76.7998 128.4 l 1
 76.7998 102.8 l 1
 76.7998 77.2002 l 1
 102.4 77.2002 l 1
 128 77.2002 l 1
 128 51.5996 l 1
 128 26 l 1
 102.4 26 l 1
 76.7998 26 l 1
 76.7998 -0.453125 l 1
 76.7998 -26.9062 l 1
 102.4 -26.9062 l 1
 128 -26.9062 l 1
 128 -0.453125 l 1
 128 26 l 1
 153.6 26 l 1
 179.2 26 l 1
 179.2 -0.453125 l 1
 179.2 -26.9062 l 1
 204.8 -26.9062 l 1
 230.4 -26.9062 l 1
 230.4 -0.453125 l 1
 230.4 26 l 1
 256 26 l 1
 281.6 26 l 1
 281.6 -0.453125 l 1
 281.6 -26.9062 l 1
 307.2 -26.9062 l 1
 332.8 -26.9062 l 1
 332.8 -0.453125 l 1
 332.8 26 l 1
 307.2 26 l 1
 281.6 26 l 1
 281.6 51.5996 l 1
 281.6 77.2002 l 1
 332.8 77.2002 l 1
 384 77.2002 l 1
 384 25.1465 l 1
 384 -26.9062 l 1
 410.453 -26.9062 l 1
 436.906 -26.9062 l 1
 436.906 25.1465 l 1
 436.906 77.2002 l 1
 410.453 77.2002 l 1
 384 77.2002 l 1
 384 128.4 l 1
 384 179.6 l 1
 410.453 179.6 l 1
 436.906 179.6 l 1
 436.906 205.2 l 1
 436.906 230.8 l 1
 410.453 230.8 l 1
 384 230.8 l 1
 384 256.4 l 1
 384 282 l 1
 410.453 282 l 1
 436.906 282 l 1
 436.906 307.6 l 1
EndSplineSet
EndChar

StartChar: uni30D9
Encoding: 12505 12505 113
Width: 512
VWidth: 0
Flags: H
LayerCount: 2
Back
Fore
SplineSet
179.2 51.5996 m 1
 179.2 77.2002 l 1
 204.8 77.2002 l 1
 230.4 77.2002 l 1
 230.4 51.5996 l 1
 230.4 26 l 1
 204.8 26 l 1
 179.2 26 l 1
 179.2 51.5996 l 1
128 205.2 m 1
 128 230.8 l 1
 153.6 230.8 l 1
 179.2 230.8 l 1
 179.2 205.2 l 1
 179.2 179.6 l 1
 153.6 179.6 l 1
 128 179.6 l 1
 128 205.2 l 1
0 154 m 1
 0 410 l 1
 256 410 l 1
 512 410 l 1
 512 154 l 1
 512 -102 l 1
 256 -102 l 1
 0 -102 l 1
 0 154 l 1
436.906 307.6 m 1
 436.906 333.2 l 1
 256.854 333.2 l 1
 76.7998 333.2 l 1
 76.7998 307.6 l 1
 76.7998 282 l 1
 102.4 282 l 1
 128 282 l 1
 128 256.4 l 1
 128 230.8 l 1
 102.4 230.8 l 1
 76.7998 230.8 l 1
 76.7998 205.2 l 1
 76.7998 179.6 l 1
 102.4 179.6 l 1
 128 179.6 l 1
 128 154 l 1
 128 128.4 l 1
 102.4 128.4 l 1
 76.7998 128.4 l 1
 76.7998 102.8 l 1
 76.7998 77.2002 l 1
 102.4 77.2002 l 1
 128 77.2002 l 1
 128 51.5996 l 1
 128 26 l 1
 102.4 26 l 1
 76.7998 26 l 1
 76.7998 -0.453125 l 1
 76.7998 -26.9062 l 1
 102.4 -26.9062 l 1
 128 -26.9062 l 1
 128 -0.453125 l 1
 128 26 l 1
 153.6 26 l 1
 179.2 26 l 1
 179.2 -0.453125 l 1
 179.2 -26.9062 l 1
 204.8 -26.9062 l 1
 230.4 -26.9062 l 1
 230.4 -0.453125 l 1
 230.4 26 l 1
 256 26 l 1
 281.6 26 l 1
 281.6 -0.453125 l 1
 281.6 -26.9062 l 1
 307.2 -26.9062 l 1
 332.8 -26.9062 l 1
 332.8 -0.453125 l 1
 332.8 26 l 1
 307.2 26 l 1
 281.6 26 l 1
 281.6 51.5996 l 1
 281.6 77.2002 l 1
 332.8 77.2002 l 1
 384 77.2002 l 1
 384 25.1465 l 1
 384 -26.9062 l 1
 410.453 -26.9062 l 1
 436.906 -26.9062 l 1
 436.906 25.1465 l 1
 436.906 77.2002 l 1
 410.453 77.2002 l 1
 384 77.2002 l 1
 384 179.6 l 1
 384 282 l 1
 410.453 282 l 1
 436.906 282 l 1
 436.906 307.6 l 1
EndSplineSet
EndChar

StartChar: uni30AD
Encoding: 12461 12461 114
Width: 512
VWidth: 0
Flags: H
LayerCount: 2
Back
Fore
SplineSet
0 154 m 1
 0 410 l 1
 256 410 l 1
 512 410 l 1
 512 154 l 1
 512 -102 l 1
 256 -102 l 1
 0 -102 l 1
 0 154 l 1
436.906 282 m 1
 436.906 333.2 l 1
 256.854 333.2 l 1
 76.7998 333.2 l 1
 76.7998 307.6 l 1
 76.7998 282 l 1
 102.4 282 l 1
 128 282 l 1
 128 256.4 l 1
 128 230.8 l 1
 102.4 230.8 l 1
 76.7998 230.8 l 1
 76.7998 205.2 l 1
 76.7998 179.6 l 1
 128 179.6 l 1
 179.2 179.6 l 1
 179.2 154 l 1
 179.2 128.4 l 1
 128 128.4 l 1
 76.7998 128.4 l 1
 76.7998 102.8 l 1
 76.7998 77.2002 l 1
 230.4 77.2002 l 1
 384 77.2002 l 1
 384 25.1465 l 1
 384 -26.9062 l 1
 410.453 -26.9062 l 1
 436.906 -26.9062 l 1
 436.906 76.3467 l 1
 436.906 179.6 l 1
 410.453 179.6 l 1
 384 179.6 l 1
 384 205.2 l 1
 384 230.8 l 1
 410.453 230.8 l 1
 436.906 230.8 l 1
 436.906 282 l 1
128 -0.453125 m 1
 128 26 l 1
 102.4 26 l 1
 76.7998 26 l 1
 76.7998 -0.453125 l 1
 76.7998 -26.9062 l 1
 102.4 -26.9062 l 1
 128 -26.9062 l 1
 128 -0.453125 l 1
230.4 -0.453125 m 1
 230.4 26 l 1
 204.8 26 l 1
 179.2 26 l 1
 179.2 -0.453125 l 1
 179.2 -26.9062 l 1
 204.8 -26.9062 l 1
 230.4 -26.9062 l 1
 230.4 -0.453125 l 1
332.8 -0.453125 m 1
 332.8 26 l 1
 307.2 26 l 1
 281.6 26 l 1
 281.6 -0.453125 l 1
 281.6 -26.9062 l 1
 307.2 -26.9062 l 1
 332.8 -26.9062 l 1
 332.8 -0.453125 l 1
EndSplineSet
EndChar

StartChar: uni305C
Encoding: 12380 12380 115
Width: 512
VWidth: 0
Flags: H
LayerCount: 2
Back
Fore
SplineSet
0 154 m 1
 0 410 l 1
 256 410 l 1
 512 410 l 1
 512 154 l 1
 512 -102 l 1
 256 -102 l 1
 0 -102 l 1
 0 154 l 1
436.906 256.4 m 1
 436.906 333.2 l 1
 256.854 333.2 l 1
 76.7998 333.2 l 1
 76.7998 307.6 l 1
 76.7998 282 l 1
 102.4 282 l 1
 128 282 l 1
 128 256.4 l 1
 128 230.8 l 1
 102.4 230.8 l 1
 76.7998 230.8 l 1
 76.7998 205.2 l 1
 76.7998 179.6 l 1
 102.4 179.6 l 1
 128 179.6 l 1
 128 154 l 1
 128 128.4 l 1
 102.4 128.4 l 1
 76.7998 128.4 l 1
 76.7998 102.8 l 1
 76.7998 77.2002 l 1
 153.6 77.2002 l 1
 230.4 77.2002 l 1
 230.4 51.5996 l 1
 230.4 26 l 1
 204.8 26 l 1
 179.2 26 l 1
 179.2 -0.453125 l 1
 179.2 -26.9062 l 1
 204.8 -26.9062 l 1
 230.4 -26.9062 l 1
 230.4 -0.453125 l 1
 230.4 26 l 1
 256 26 l 1
 281.6 26 l 1
 281.6 -0.453125 l 1
 281.6 -26.9062 l 1
 307.2 -26.9062 l 1
 332.8 -26.9062 l 1
 332.8 -0.453125 l 1
 332.8 26 l 1
 307.2 26 l 1
 281.6 26 l 1
 281.6 51.5996 l 1
 281.6 77.2002 l 1
 332.8 77.2002 l 1
 384 77.2002 l 1
 384 128.4 l 1
 384 179.6 l 1
 410.453 179.6 l 1
 436.906 179.6 l 1
 436.906 256.4 l 1
128 -0.453125 m 1
 128 26 l 1
 102.4 26 l 1
 76.7998 26 l 1
 76.7998 -0.453125 l 1
 76.7998 -26.9062 l 1
 102.4 -26.9062 l 1
 128 -26.9062 l 1
 128 -0.453125 l 1
436.906 -0.453125 m 1
 436.906 26 l 1
 410.453 26 l 1
 384 26 l 1
 384 -0.453125 l 1
 384 -26.9062 l 1
 410.453 -26.9062 l 1
 436.906 -26.9062 l 1
 436.906 -0.453125 l 1
EndSplineSet
EndChar

StartChar: uni30EB
Encoding: 12523 12523 116
Width: 512
VWidth: 0
Flags: H
LayerCount: 2
Back
Fore
SplineSet
128 205.2 m 1
 128 230.8 l 1
 153.6 230.8 l 1
 179.2 230.8 l 1
 179.2 205.2 l 1
 179.2 179.6 l 1
 153.6 179.6 l 1
 128 179.6 l 1
 128 205.2 l 1
0 154 m 1
 0 410 l 1
 256 410 l 1
 512 410 l 1
 512 154 l 1
 512 -102 l 1
 256 -102 l 1
 0 -102 l 1
 0 154 l 1
436.906 282 m 1
 436.906 333.2 l 1
 256.854 333.2 l 1
 76.7998 333.2 l 1
 76.7998 307.6 l 1
 76.7998 282 l 1
 102.4 282 l 1
 128 282 l 1
 128 256.4 l 1
 128 230.8 l 1
 102.4 230.8 l 1
 76.7998 230.8 l 1
 76.7998 205.2 l 1
 76.7998 179.6 l 1
 102.4 179.6 l 1
 128 179.6 l 1
 128 154 l 1
 128 128.4 l 1
 102.4 128.4 l 1
 76.7998 128.4 l 1
 76.7998 102.8 l 1
 76.7998 77.2002 l 1
 179.2 77.2002 l 1
 281.6 77.2002 l 1
 281.6 25.1465 l 1
 281.6 -26.9062 l 1
 307.2 -26.9062 l 1
 332.8 -26.9062 l 1
 332.8 25.1465 l 1
 332.8 77.2002 l 1
 358.4 77.2002 l 1
 384 77.2002 l 1
 384 25.1465 l 1
 384 -26.9062 l 1
 410.453 -26.9062 l 1
 436.906 -26.9062 l 1
 436.906 76.3467 l 1
 436.906 179.6 l 1
 410.453 179.6 l 1
 384 179.6 l 1
 384 205.2 l 1
 384 230.8 l 1
 410.453 230.8 l 1
 436.906 230.8 l 1
 436.906 282 l 1
128 -0.453125 m 1
 128 26 l 1
 102.4 26 l 1
 76.7998 26 l 1
 76.7998 -0.453125 l 1
 76.7998 -26.9062 l 1
 102.4 -26.9062 l 1
 128 -26.9062 l 1
 128 -0.453125 l 1
230.4 -0.453125 m 1
 230.4 26 l 1
 204.8 26 l 1
 179.2 26 l 1
 179.2 -0.453125 l 1
 179.2 -26.9062 l 1
 204.8 -26.9062 l 1
 230.4 -26.9062 l 1
 230.4 -0.453125 l 1
EndSplineSet
EndChar

StartChar: uni30D5
Encoding: 12501 12501 117
Width: 512
VWidth: 0
Flags: H
LayerCount: 2
Back
Fore
SplineSet
128 205.2 m 1
 128 230.8 l 1
 153.6 230.8 l 1
 179.2 230.8 l 1
 179.2 205.2 l 1
 179.2 179.6 l 1
 153.6 179.6 l 1
 128 179.6 l 1
 128 205.2 l 1
0 154 m 1
 0 410 l 1
 256 410 l 1
 512 410 l 1
 512 154 l 1
 512 -102 l 1
 256 -102 l 1
 0 -102 l 1
 0 154 l 1
436.906 307.6 m 1
 436.906 333.2 l 1
 256.854 333.2 l 1
 76.7998 333.2 l 1
 76.7998 307.6 l 1
 76.7998 282 l 1
 102.4 282 l 1
 128 282 l 1
 128 256.4 l 1
 128 230.8 l 1
 102.4 230.8 l 1
 76.7998 230.8 l 1
 76.7998 205.2 l 1
 76.7998 179.6 l 1
 102.4 179.6 l 1
 128 179.6 l 1
 128 154 l 1
 128 128.4 l 1
 102.4 128.4 l 1
 76.7998 128.4 l 1
 76.7998 102.8 l 1
 76.7998 77.2002 l 1
 102.4 77.2002 l 1
 128 77.2002 l 1
 128 51.5996 l 1
 128 26 l 1
 102.4 26 l 1
 76.7998 26 l 1
 76.7998 -0.453125 l 1
 76.7998 -26.9062 l 1
 102.4 -26.9062 l 1
 128 -26.9062 l 1
 128 -0.453125 l 1
 128 26 l 1
 153.6 26 l 1
 179.2 26 l 1
 179.2 -0.453125 l 1
 179.2 -26.9062 l 1
 204.8 -26.9062 l 1
 230.4 -26.9062 l 1
 230.4 25.1465 l 1
 230.4 77.2002 l 1
 307.2 77.2002 l 1
 384 77.2002 l 1
 384 25.1465 l 1
 384 -26.9062 l 1
 410.453 -26.9062 l 1
 436.906 -26.9062 l 1
 436.906 25.1465 l 1
 436.906 77.2002 l 1
 410.453 77.2002 l 1
 384 77.2002 l 1
 384 102.8 l 1
 384 128.4 l 1
 410.453 128.4 l 1
 436.906 128.4 l 1
 436.906 154 l 1
 436.906 179.6 l 1
 410.453 179.6 l 1
 384 179.6 l 1
 384 230.8 l 1
 384 282 l 1
 410.453 282 l 1
 436.906 282 l 1
 436.906 307.6 l 1
332.8 -0.453125 m 1
 332.8 26 l 1
 307.2 26 l 1
 281.6 26 l 1
 281.6 -0.453125 l 1
 281.6 -26.9062 l 1
 307.2 -26.9062 l 1
 332.8 -26.9062 l 1
 332.8 -0.453125 l 1
EndSplineSet
EndChar

StartChar: uni30BD
Encoding: 12477 12477 118
Width: 512
VWidth: 0
Flags: H
LayerCount: 2
Back
Fore
SplineSet
0 154 m 1
 0 410 l 1
 256 410 l 1
 512 410 l 1
 512 154 l 1
 512 -102 l 1
 256 -102 l 1
 0 -102 l 1
 0 154 l 1
436.906 282 m 1
 436.906 333.2 l 1
 256.854 333.2 l 1
 76.7998 333.2 l 1
 76.7998 307.6 l 1
 76.7998 282 l 1
 102.4 282 l 1
 128 282 l 1
 128 256.4 l 1
 128 230.8 l 1
 102.4 230.8 l 1
 76.7998 230.8 l 1
 76.7998 205.2 l 1
 76.7998 179.6 l 1
 128 179.6 l 1
 179.2 179.6 l 1
 179.2 128.4 l 1
 179.2 77.2002 l 1
 153.6 77.2002 l 1
 128 77.2002 l 1
 128 102.8 l 1
 128 128.4 l 1
 102.4 128.4 l 1
 76.7998 128.4 l 1
 76.7998 102.8 l 1
 76.7998 77.2002 l 1
 102.4 77.2002 l 1
 128 77.2002 l 1
 128 51.5996 l 1
 128 26 l 1
 102.4 26 l 1
 76.7998 26 l 1
 76.7998 -0.453125 l 1
 76.7998 -26.9062 l 1
 102.4 -26.9062 l 1
 128 -26.9062 l 1
 128 -0.453125 l 1
 128 26 l 1
 153.6 26 l 1
 179.2 26 l 1
 179.2 -0.453125 l 1
 179.2 -26.9062 l 1
 204.8 -26.9062 l 1
 230.4 -26.9062 l 1
 230.4 -0.453125 l 1
 230.4 26 l 1
 204.8 26 l 1
 179.2 26 l 1
 179.2 51.5996 l 1
 179.2 77.2002 l 1
 308.054 77.2002 l 1
 436.906 77.2002 l 1
 436.906 128.4 l 1
 436.906 179.6 l 1
 410.453 179.6 l 1
 384 179.6 l 1
 384 205.2 l 1
 384 230.8 l 1
 410.453 230.8 l 1
 436.906 230.8 l 1
 436.906 282 l 1
332.8 -0.453125 m 1
 332.8 26 l 1
 307.2 26 l 1
 281.6 26 l 1
 281.6 -0.453125 l 1
 281.6 -26.9062 l 1
 307.2 -26.9062 l 1
 332.8 -26.9062 l 1
 332.8 -0.453125 l 1
436.906 -0.453125 m 1
 436.906 26 l 1
 410.453 26 l 1
 384 26 l 1
 384 -0.453125 l 1
 384 -26.9062 l 1
 410.453 -26.9062 l 1
 436.906 -26.9062 l 1
 436.906 -0.453125 l 1
EndSplineSet
EndChar

StartChar: uni30B3
Encoding: 12467 12467 119
Width: 512
VWidth: 0
Flags: H
LayerCount: 2
Back
Fore
SplineSet
0 154 m 1
 0 410 l 1
 256 410 l 1
 512 410 l 1
 512 154 l 1
 512 -102 l 1
 256 -102 l 1
 0 -102 l 1
 0 154 l 1
436.906 230.8 m 1
 436.906 333.2 l 1
 256.854 333.2 l 1
 76.7998 333.2 l 1
 76.7998 307.6 l 1
 76.7998 282 l 1
 102.4 282 l 1
 128 282 l 1
 128 256.4 l 1
 128 230.8 l 1
 102.4 230.8 l 1
 76.7998 230.8 l 1
 76.7998 205.2 l 1
 76.7998 179.6 l 1
 128 179.6 l 1
 179.2 179.6 l 1
 179.2 128.4 l 1
 179.2 77.2002 l 1
 153.6 77.2002 l 1
 128 77.2002 l 1
 128 102.8 l 1
 128 128.4 l 1
 102.4 128.4 l 1
 76.7998 128.4 l 1
 76.7998 102.8 l 1
 76.7998 77.2002 l 1
 102.4 77.2002 l 1
 128 77.2002 l 1
 128 51.5996 l 1
 128 26 l 1
 102.4 26 l 1
 76.7998 26 l 1
 76.7998 -0.453125 l 1
 76.7998 -26.9062 l 1
 102.4 -26.9062 l 1
 128 -26.9062 l 1
 128 -0.453125 l 1
 128 26 l 1
 153.6 26 l 1
 179.2 26 l 1
 179.2 -0.453125 l 1
 179.2 -26.9062 l 1
 204.8 -26.9062 l 1
 230.4 -26.9062 l 1
 230.4 25.1465 l 1
 230.4 77.2002 l 1
 256 77.2002 l 1
 281.6 77.2002 l 1
 281.6 25.1465 l 1
 281.6 -26.9062 l 1
 307.2 -26.9062 l 1
 332.8 -26.9062 l 1
 332.8 25.1465 l 1
 332.8 77.2002 l 1
 358.4 77.2002 l 1
 384 77.2002 l 1
 384 25.1465 l 1
 384 -26.9062 l 1
 410.453 -26.9062 l 1
 436.906 -26.9062 l 1
 436.906 25.1465 l 1
 436.906 77.2002 l 1
 410.453 77.2002 l 1
 384 77.2002 l 1
 384 102.8 l 1
 384 128.4 l 1
 410.453 128.4 l 1
 436.906 128.4 l 1
 436.906 230.8 l 1
EndSplineSet
EndChar

StartChar: uni308F
Encoding: 12431 12431 120
Width: 512
VWidth: 0
Flags: H
LayerCount: 2
Back
Fore
SplineSet
0 154 m 1
 0 410 l 1
 256 410 l 1
 512 410 l 1
 512 154 l 1
 512 -102 l 1
 256 -102 l 1
 0 -102 l 1
 0 154 l 1
436.906 205.2 m 1
 436.906 333.2 l 1
 256.854 333.2 l 1
 76.7998 333.2 l 1
 76.7998 307.6 l 1
 76.7998 282 l 1
 102.4 282 l 1
 128 282 l 1
 128 256.4 l 1
 128 230.8 l 1
 102.4 230.8 l 1
 76.7998 230.8 l 1
 76.7998 205.2 l 1
 76.7998 179.6 l 1
 128 179.6 l 1
 179.2 179.6 l 1
 179.2 154 l 1
 179.2 128.4 l 1
 128 128.4 l 1
 76.7998 128.4 l 1
 76.7998 102.8 l 1
 76.7998 77.2002 l 1
 102.4 77.2002 l 1
 128 77.2002 l 1
 128 51.5996 l 1
 128 26 l 1
 102.4 26 l 1
 76.7998 26 l 1
 76.7998 -0.453125 l 1
 76.7998 -26.9062 l 1
 102.4 -26.9062 l 1
 128 -26.9062 l 1
 128 -0.453125 l 1
 128 26 l 1
 153.6 26 l 1
 179.2 26 l 1
 179.2 -0.453125 l 1
 179.2 -26.9062 l 1
 204.8 -26.9062 l 1
 230.4 -26.9062 l 1
 230.4 -0.453125 l 1
 230.4 26 l 1
 204.8 26 l 1
 179.2 26 l 1
 179.2 51.5996 l 1
 179.2 77.2002 l 1
 256 77.2002 l 1
 332.8 77.2002 l 1
 332.8 51.5996 l 1
 332.8 26 l 1
 307.2 26 l 1
 281.6 26 l 1
 281.6 -0.453125 l 1
 281.6 -26.9062 l 1
 307.2 -26.9062 l 1
 332.8 -26.9062 l 1
 332.8 -0.453125 l 1
 332.8 26 l 1
 358.4 26 l 1
 384 26 l 1
 384 -0.453125 l 1
 384 -26.9062 l 1
 410.453 -26.9062 l 1
 436.906 -26.9062 l 1
 436.906 -0.453125 l 1
 436.906 26 l 1
 410.453 26 l 1
 384 26 l 1
 384 51.5996 l 1
 384 77.2002 l 1
 410.453 77.2002 l 1
 436.906 77.2002 l 1
 436.906 205.2 l 1
EndSplineSet
EndChar

StartChar: uni30CE
Encoding: 12494 12494 121
Width: 512
VWidth: 0
Flags: H
LayerCount: 2
Back
Fore
SplineSet
128 205.2 m 1
 128 230.8 l 1
 153.6 230.8 l 1
 179.2 230.8 l 1
 179.2 205.2 l 1
 179.2 179.6 l 1
 153.6 179.6 l 1
 128 179.6 l 1
 128 205.2 l 1
0 154 m 1
 0 410 l 1
 256 410 l 1
 512 410 l 1
 512 154 l 1
 512 -102 l 1
 256 -102 l 1
 0 -102 l 1
 0 154 l 1
436.906 256.4 m 1
 436.906 333.2 l 1
 256.854 333.2 l 1
 76.7998 333.2 l 1
 76.7998 307.6 l 1
 76.7998 282 l 1
 102.4 282 l 1
 128 282 l 1
 128 256.4 l 1
 128 230.8 l 1
 102.4 230.8 l 1
 76.7998 230.8 l 1
 76.7998 205.2 l 1
 76.7998 179.6 l 1
 102.4 179.6 l 1
 128 179.6 l 1
 128 154 l 1
 128 128.4 l 1
 102.4 128.4 l 1
 76.7998 128.4 l 1
 76.7998 102.8 l 1
 76.7998 77.2002 l 1
 102.4 77.2002 l 1
 128 77.2002 l 1
 128 51.5996 l 1
 128 26 l 1
 102.4 26 l 1
 76.7998 26 l 1
 76.7998 -0.453125 l 1
 76.7998 -26.9062 l 1
 102.4 -26.9062 l 1
 128 -26.9062 l 1
 128 -0.453125 l 1
 128 26 l 1
 153.6 26 l 1
 179.2 26 l 1
 179.2 -0.453125 l 1
 179.2 -26.9062 l 1
 204.8 -26.9062 l 1
 230.4 -26.9062 l 1
 230.4 -0.453125 l 1
 230.4 26 l 1
 256 26 l 1
 281.6 26 l 1
 281.6 -0.453125 l 1
 281.6 -26.9062 l 1
 307.2 -26.9062 l 1
 332.8 -26.9062 l 1
 332.8 -0.453125 l 1
 332.8 26 l 1
 358.4 26 l 1
 384 26 l 1
 384 -0.453125 l 1
 384 -26.9062 l 1
 410.453 -26.9062 l 1
 436.906 -26.9062 l 1
 436.906 50.7471 l 1
 436.906 128.4 l 1
 410.453 128.4 l 1
 384 128.4 l 1
 384 154 l 1
 384 179.6 l 1
 410.453 179.6 l 1
 436.906 179.6 l 1
 436.906 256.4 l 1
EndSplineSet
EndChar

StartChar: uni3088
Encoding: 12424 12424 122
Width: 512
VWidth: 0
Flags: H
LayerCount: 2
Back
Fore
SplineSet
0 154 m 1
 0 410 l 1
 256 410 l 1
 512 410 l 1
 512 154 l 1
 512 -102 l 1
 256 -102 l 1
 0 -102 l 1
 0 154 l 1
436.906 307.6 m 1
 436.906 333.2 l 1
 256.854 333.2 l 1
 76.7998 333.2 l 1
 76.7998 307.6 l 1
 76.7998 282 l 1
 102.4 282 l 1
 128 282 l 1
 128 256.4 l 1
 128 230.8 l 1
 102.4 230.8 l 1
 76.7998 230.8 l 1
 76.7998 205.2 l 1
 76.7998 179.6 l 1
 128 179.6 l 1
 179.2 179.6 l 1
 179.2 154 l 1
 179.2 128.4 l 1
 128 128.4 l 1
 76.7998 128.4 l 1
 76.7998 102.8 l 1
 76.7998 77.2002 l 1
 102.4 77.2002 l 1
 128 77.2002 l 1
 128 51.5996 l 1
 128 26 l 1
 102.4 26 l 1
 76.7998 26 l 1
 76.7998 -0.453125 l 1
 76.7998 -26.9062 l 1
 102.4 -26.9062 l 1
 128 -26.9062 l 1
 128 -0.453125 l 1
 128 26 l 1
 153.6 26 l 1
 179.2 26 l 1
 179.2 -0.453125 l 1
 179.2 -26.9062 l 1
 204.8 -26.9062 l 1
 230.4 -26.9062 l 1
 230.4 25.1465 l 1
 230.4 77.2002 l 1
 307.2 77.2002 l 1
 384 77.2002 l 1
 384 25.1465 l 1
 384 -26.9062 l 1
 410.453 -26.9062 l 1
 436.906 -26.9062 l 1
 436.906 25.1465 l 1
 436.906 77.2002 l 1
 410.453 77.2002 l 1
 384 77.2002 l 1
 384 102.8 l 1
 384 128.4 l 1
 410.453 128.4 l 1
 436.906 128.4 l 1
 436.906 179.6 l 1
 436.906 230.8 l 1
 410.453 230.8 l 1
 384 230.8 l 1
 384 256.4 l 1
 384 282 l 1
 410.453 282 l 1
 436.906 282 l 1
 436.906 307.6 l 1
332.8 -0.453125 m 1
 332.8 26 l 1
 307.2 26 l 1
 281.6 26 l 1
 281.6 -0.453125 l 1
 281.6 -26.9062 l 1
 307.2 -26.9062 l 1
 332.8 -26.9062 l 1
 332.8 -0.453125 l 1
EndSplineSet
EndChar

StartChar: uni3057
Encoding: 12375 12375 123
Width: 512
VWidth: 0
Flags: H
LayerCount: 2
Back
Fore
SplineSet
0 154 m 1
 0 410 l 1
 256 410 l 1
 512 410 l 1
 512 154 l 1
 512 -102 l 1
 256 -102 l 1
 0 -102 l 1
 0 154 l 1
436.906 307.6 m 1
 436.906 333.2 l 1
 256.854 333.2 l 1
 76.7998 333.2 l 1
 76.7998 307.6 l 1
 76.7998 282 l 1
 102.4 282 l 1
 128 282 l 1
 128 256.4 l 1
 128 230.8 l 1
 102.4 230.8 l 1
 76.7998 230.8 l 1
 76.7998 205.2 l 1
 76.7998 179.6 l 1
 102.4 179.6 l 1
 128 179.6 l 1
 128 154 l 1
 128 128.4 l 1
 102.4 128.4 l 1
 76.7998 128.4 l 1
 76.7998 102.8 l 1
 76.7998 77.2002 l 1
 128 77.2002 l 1
 179.2 77.2002 l 1
 179.2 25.1465 l 1
 179.2 -26.9062 l 1
 204.8 -26.9062 l 1
 230.4 -26.9062 l 1
 230.4 25.1465 l 1
 230.4 77.2002 l 1
 281.6 77.2002 l 1
 332.8 77.2002 l 1
 332.8 51.5996 l 1
 332.8 26 l 1
 307.2 26 l 1
 281.6 26 l 1
 281.6 -0.453125 l 1
 281.6 -26.9062 l 1
 307.2 -26.9062 l 1
 332.8 -26.9062 l 1
 332.8 -0.453125 l 1
 332.8 26 l 1
 358.4 26 l 1
 384 26 l 1
 384 -0.453125 l 1
 384 -26.9062 l 1
 410.453 -26.9062 l 1
 436.906 -26.9062 l 1
 436.906 -0.453125 l 1
 436.906 26 l 1
 410.453 26 l 1
 384 26 l 1
 384 51.5996 l 1
 384 77.2002 l 1
 410.453 77.2002 l 1
 436.906 77.2002 l 1
 436.906 102.8 l 1
 436.906 128.4 l 1
 410.453 128.4 l 1
 384 128.4 l 1
 384 205.2 l 1
 384 282 l 1
 410.453 282 l 1
 436.906 282 l 1
 436.906 307.6 l 1
128 -0.453125 m 1
 128 26 l 1
 102.4 26 l 1
 76.7998 26 l 1
 76.7998 -0.453125 l 1
 76.7998 -26.9062 l 1
 102.4 -26.9062 l 1
 128 -26.9062 l 1
 128 -0.453125 l 1
EndSplineSet
EndChar

StartChar: uni30BF
Encoding: 12479 12479 124
Width: 512
VWidth: 0
Flags: H
LayerCount: 2
Back
Fore
SplineSet
0 154 m 1
 0 410 l 1
 256 410 l 1
 512 410 l 1
 512 154 l 1
 512 -102 l 1
 256 -102 l 1
 0 -102 l 1
 0 154 l 1
436.906 256.4 m 1
 436.906 333.2 l 1
 256.854 333.2 l 1
 76.7998 333.2 l 1
 76.7998 307.6 l 1
 76.7998 282 l 1
 102.4 282 l 1
 128 282 l 1
 128 256.4 l 1
 128 230.8 l 1
 102.4 230.8 l 1
 76.7998 230.8 l 1
 76.7998 205.2 l 1
 76.7998 179.6 l 1
 128 179.6 l 1
 179.2 179.6 l 1
 179.2 76.3467 l 1
 179.2 -26.9062 l 1
 204.8 -26.9062 l 1
 230.4 -26.9062 l 1
 230.4 -0.453125 l 1
 230.4 26 l 1
 256 26 l 1
 281.6 26 l 1
 281.6 -0.453125 l 1
 281.6 -26.9062 l 1
 307.2 -26.9062 l 1
 332.8 -26.9062 l 1
 332.8 25.1465 l 1
 332.8 77.2002 l 1
 384.854 77.2002 l 1
 436.906 77.2002 l 1
 436.906 102.8 l 1
 436.906 128.4 l 1
 410.453 128.4 l 1
 384 128.4 l 1
 384 154 l 1
 384 179.6 l 1
 410.453 179.6 l 1
 436.906 179.6 l 1
 436.906 256.4 l 1
128 102.8 m 1
 128 128.4 l 1
 102.4 128.4 l 1
 76.7998 128.4 l 1
 76.7998 102.8 l 1
 76.7998 77.2002 l 1
 102.4 77.2002 l 1
 128 77.2002 l 1
 128 102.8 l 1
128 -0.453125 m 1
 128 26 l 1
 102.4 26 l 1
 76.7998 26 l 1
 76.7998 -0.453125 l 1
 76.7998 -26.9062 l 1
 102.4 -26.9062 l 1
 128 -26.9062 l 1
 128 -0.453125 l 1
436.906 -0.453125 m 1
 436.906 26 l 1
 410.453 26 l 1
 384 26 l 1
 384 -0.453125 l 1
 384 -26.9062 l 1
 410.453 -26.9062 l 1
 436.906 -26.9062 l 1
 436.906 -0.453125 l 1
EndSplineSet
EndChar

StartChar: uni3058
Encoding: 12376 12376 125
Width: 512
VWidth: 0
Flags: H
LayerCount: 2
Back
Fore
SplineSet
0 154 m 1
 0 410 l 1
 256 410 l 1
 512 410 l 1
 512 154 l 1
 512 -102 l 1
 256 -102 l 1
 0 -102 l 1
 0 154 l 1
436.906 230.8 m 1
 436.906 333.2 l 1
 256.854 333.2 l 1
 76.7998 333.2 l 1
 76.7998 307.6 l 1
 76.7998 282 l 1
 102.4 282 l 1
 128 282 l 1
 128 256.4 l 1
 128 230.8 l 1
 102.4 230.8 l 1
 76.7998 230.8 l 1
 76.7998 205.2 l 1
 76.7998 179.6 l 1
 102.4 179.6 l 1
 128 179.6 l 1
 128 154 l 1
 128 128.4 l 1
 102.4 128.4 l 1
 76.7998 128.4 l 1
 76.7998 102.8 l 1
 76.7998 77.2002 l 1
 128 77.2002 l 1
 179.2 77.2002 l 1
 179.2 25.1465 l 1
 179.2 -26.9062 l 1
 204.8 -26.9062 l 1
 230.4 -26.9062 l 1
 230.4 25.1465 l 1
 230.4 77.2002 l 1
 307.2 77.2002 l 1
 384 77.2002 l 1
 384 102.8 l 1
 384 128.4 l 1
 410.453 128.4 l 1
 436.906 128.4 l 1
 436.906 230.8 l 1
128 -0.453125 m 1
 128 26 l 1
 102.4 26 l 1
 76.7998 26 l 1
 76.7998 -0.453125 l 1
 76.7998 -26.9062 l 1
 102.4 -26.9062 l 1
 128 -26.9062 l 1
 128 -0.453125 l 1
332.8 -0.453125 m 1
 332.8 26 l 1
 307.2 26 l 1
 281.6 26 l 1
 281.6 -0.453125 l 1
 281.6 -26.9062 l 1
 307.2 -26.9062 l 1
 332.8 -26.9062 l 1
 332.8 -0.453125 l 1
436.906 -0.453125 m 1
 436.906 26 l 1
 410.453 26 l 1
 384 26 l 1
 384 -0.453125 l 1
 384 -26.9062 l 1
 410.453 -26.9062 l 1
 436.906 -26.9062 l 1
 436.906 -0.453125 l 1
EndSplineSet
EndChar

